%TF.GenerationSoftware,KiCad,Pcbnew,9.0.2*%
%TF.CreationDate,2026-03-01T17:25:52+05:30*%
%TF.ProjectId,AVR_Controller_E172_Aiden (1),4156525f-436f-46e7-9472-6f6c6c65725f,rev?*%
%TF.SameCoordinates,Original*%
%TF.FileFunction,Soldermask,Top*%
%TF.FilePolarity,Negative*%
%FSLAX46Y46*%
G04 Gerber Fmt 4.6, Leading zero omitted, Abs format (unit mm)*
G04 Created by KiCad (PCBNEW 9.0.2) date 2026-03-01 17:25:52*
%MOMM*%
%LPD*%
G01*
G04 APERTURE LIST*
G04 Aperture macros list*
%AMRoundRect*
0 Rectangle with rounded corners*
0 $1 Rounding radius*
0 $2 $3 $4 $5 $6 $7 $8 $9 X,Y pos of 4 corners*
0 Add a 4 corners polygon primitive as box body*
4,1,4,$2,$3,$4,$5,$6,$7,$8,$9,$2,$3,0*
0 Add four circle primitives for the rounded corners*
1,1,$1+$1,$2,$3*
1,1,$1+$1,$4,$5*
1,1,$1+$1,$6,$7*
1,1,$1+$1,$8,$9*
0 Add four rect primitives between the rounded corners*
20,1,$1+$1,$2,$3,$4,$5,0*
20,1,$1+$1,$4,$5,$6,$7,0*
20,1,$1+$1,$6,$7,$8,$9,0*
20,1,$1+$1,$8,$9,$2,$3,0*%
G04 Aperture macros list end*
%ADD10C,1.600000*%
%ADD11R,1.905000X2.000000*%
%ADD12O,1.905000X2.000000*%
%ADD13C,1.500000*%
%ADD14R,1.800000X1.800000*%
%ADD15C,1.800000*%
%ADD16R,3.500000X3.500000*%
%ADD17RoundRect,0.750000X-0.750000X-1.000000X0.750000X-1.000000X0.750000X1.000000X-0.750000X1.000000X0*%
%ADD18RoundRect,0.875000X-0.875000X-0.875000X0.875000X-0.875000X0.875000X0.875000X-0.875000X0.875000X0*%
%ADD19C,2.000000*%
%ADD20R,2.000000X2.000000*%
%ADD21R,1.700000X1.700000*%
%ADD22C,1.700000*%
%ADD23R,1.050000X1.500000*%
%ADD24O,1.050000X1.500000*%
%ADD25RoundRect,0.250000X-0.550000X-0.550000X0.550000X-0.550000X0.550000X0.550000X-0.550000X0.550000X0*%
%ADD26RoundRect,0.150000X-0.875000X-0.150000X0.875000X-0.150000X0.875000X0.150000X-0.875000X0.150000X0*%
G04 APERTURE END LIST*
D10*
%TO.C,R2*%
X116500000Y-117920000D03*
X116500000Y-128080000D03*
%TD*%
%TO.C,C4*%
X109000000Y-103000000D03*
X109000000Y-108000000D03*
%TD*%
%TO.C,C3*%
X109000000Y-100500000D03*
X109000000Y-95500000D03*
%TD*%
D11*
%TO.C,U3*%
X121000000Y-57250000D03*
D12*
X123540000Y-57250000D03*
X126080000Y-57250000D03*
%TD*%
D13*
%TO.C,Y1*%
X102000000Y-99620000D03*
X102000000Y-104500000D03*
%TD*%
D14*
%TO.C,D1*%
X116500000Y-133770000D03*
D15*
X116500000Y-131230000D03*
%TD*%
D10*
%TO.C,C7*%
X97500000Y-59250000D03*
X97500000Y-54250000D03*
%TD*%
D16*
%TO.C,J5*%
X79500000Y-57750000D03*
D17*
X73500000Y-57750000D03*
D18*
X76500000Y-62450000D03*
%TD*%
D10*
%TO.C,R3*%
X124000000Y-117920000D03*
X124000000Y-128080000D03*
%TD*%
%TO.C,R4*%
X128500000Y-114000000D03*
X138660000Y-114000000D03*
%TD*%
D19*
%TO.C,SW1*%
X70250000Y-69750000D03*
X76750000Y-69750000D03*
X70250000Y-74250000D03*
X76750000Y-74250000D03*
%TD*%
D20*
%TO.C,BZ1*%
X145000000Y-125500000D03*
D19*
X137400000Y-125500000D03*
%TD*%
D21*
%TO.C,J6*%
X70600000Y-100270000D03*
D22*
X70600000Y-97730000D03*
X70600000Y-95190000D03*
X70600000Y-92650000D03*
X70600000Y-90110000D03*
X70600000Y-87570000D03*
X70600000Y-85030000D03*
X70600000Y-82490000D03*
%TD*%
D21*
%TO.C,J2*%
X70500000Y-107340000D03*
D22*
X70500000Y-109880000D03*
X70500000Y-112420000D03*
X70500000Y-114960000D03*
X70500000Y-117500000D03*
X70500000Y-120040000D03*
X70500000Y-122580000D03*
X70500000Y-125120000D03*
%TD*%
D21*
%TO.C,J4*%
X146500000Y-93000000D03*
D22*
X146500000Y-90460000D03*
X146500000Y-87920000D03*
X146500000Y-85380000D03*
X146500000Y-82840000D03*
X146500000Y-80300000D03*
%TD*%
D23*
%TO.C,Q1*%
X128730000Y-119360000D03*
D24*
X130000000Y-119360000D03*
X131270000Y-119360000D03*
%TD*%
D25*
%TO.C,U1*%
X116380000Y-80420000D03*
D10*
X116380000Y-82960000D03*
X116380000Y-85500000D03*
X116380000Y-88040000D03*
X116380000Y-90580000D03*
X116380000Y-93120000D03*
X116380000Y-95660000D03*
X116380000Y-98200000D03*
X116380000Y-100740000D03*
X116380000Y-103280000D03*
X116380000Y-105820000D03*
X116380000Y-108360000D03*
X116380000Y-110900000D03*
X116380000Y-113440000D03*
X124000000Y-113440000D03*
X124000000Y-110900000D03*
X124000000Y-108360000D03*
X124000000Y-105820000D03*
X124000000Y-103280000D03*
X124000000Y-100740000D03*
X124000000Y-98200000D03*
X124000000Y-95660000D03*
X124000000Y-93120000D03*
X124000000Y-90580000D03*
X124000000Y-88040000D03*
X124000000Y-85500000D03*
X124000000Y-82960000D03*
X124000000Y-80420000D03*
%TD*%
D26*
%TO.C,U2*%
X78600000Y-85920000D03*
X78600000Y-87190000D03*
X78600000Y-88460000D03*
X78600000Y-89730000D03*
X78600000Y-91000000D03*
X78600000Y-92270000D03*
X78600000Y-93540000D03*
X78600000Y-94810000D03*
X78600000Y-96080000D03*
X87900000Y-96080000D03*
X87900000Y-94810000D03*
X87900000Y-93540000D03*
X87900000Y-92270000D03*
X87900000Y-91000000D03*
X87900000Y-89730000D03*
X87900000Y-88460000D03*
X87900000Y-87190000D03*
X87900000Y-85920000D03*
%TD*%
D10*
%TO.C,C8*%
X114000000Y-59750000D03*
X114000000Y-54750000D03*
%TD*%
%TO.C,C6*%
X109000000Y-91500000D03*
X114000000Y-91500000D03*
%TD*%
%TO.C,R1*%
X115000000Y-75500000D03*
X125160000Y-75500000D03*
%TD*%
D14*
%TO.C,D2*%
X124000000Y-133770000D03*
D15*
X124000000Y-131230000D03*
%TD*%
D19*
%TO.C,SW2*%
X85750000Y-54500000D03*
X92250000Y-54500000D03*
X85750000Y-59000000D03*
X92250000Y-59000000D03*
%TD*%
D10*
%TO.C,C2*%
X132500000Y-98000000D03*
X127500000Y-98000000D03*
%TD*%
D21*
%TO.C,J1*%
X143960000Y-104460000D03*
D22*
X146500000Y-104460000D03*
X143960000Y-107000000D03*
X146500000Y-107000000D03*
X143960000Y-109540000D03*
X146500000Y-109540000D03*
%TD*%
D19*
%TO.C,FB1*%
X108040000Y-59500000D03*
X102960000Y-59500000D03*
%TD*%
D21*
%TO.C,J3*%
X90580000Y-134500000D03*
D22*
X88040000Y-134500000D03*
X85500000Y-134500000D03*
X82960000Y-134500000D03*
X80420000Y-134500000D03*
X77880000Y-134500000D03*
X75340000Y-134500000D03*
X72800000Y-134500000D03*
%TD*%
M02*
