%TF.GenerationSoftware,KiCad,Pcbnew,9.0.2*%
%TF.CreationDate,2026-03-01T17:25:52+05:30*%
%TF.ProjectId,AVR_Controller_E172_Aiden (1),4156525f-436f-46e7-9472-6f6c6c65725f,rev?*%
%TF.SameCoordinates,Original*%
%TF.FileFunction,Copper,L1,Top*%
%TF.FilePolarity,Positive*%
%FSLAX46Y46*%
G04 Gerber Fmt 4.6, Leading zero omitted, Abs format (unit mm)*
G04 Created by KiCad (PCBNEW 9.0.2) date 2026-03-01 17:25:52*
%MOMM*%
%LPD*%
G01*
G04 APERTURE LIST*
G04 Aperture macros list*
%AMRoundRect*
0 Rectangle with rounded corners*
0 $1 Rounding radius*
0 $2 $3 $4 $5 $6 $7 $8 $9 X,Y pos of 4 corners*
0 Add a 4 corners polygon primitive as box body*
4,1,4,$2,$3,$4,$5,$6,$7,$8,$9,$2,$3,0*
0 Add four circle primitives for the rounded corners*
1,1,$1+$1,$2,$3*
1,1,$1+$1,$4,$5*
1,1,$1+$1,$6,$7*
1,1,$1+$1,$8,$9*
0 Add four rect primitives between the rounded corners*
20,1,$1+$1,$2,$3,$4,$5,0*
20,1,$1+$1,$4,$5,$6,$7,0*
20,1,$1+$1,$6,$7,$8,$9,0*
20,1,$1+$1,$8,$9,$2,$3,0*%
G04 Aperture macros list end*
%TA.AperFunction,ComponentPad*%
%ADD10C,1.600000*%
%TD*%
%TA.AperFunction,ComponentPad*%
%ADD11R,1.905000X2.000000*%
%TD*%
%TA.AperFunction,ComponentPad*%
%ADD12O,1.905000X2.000000*%
%TD*%
%TA.AperFunction,ComponentPad*%
%ADD13C,1.500000*%
%TD*%
%TA.AperFunction,ComponentPad*%
%ADD14R,1.800000X1.800000*%
%TD*%
%TA.AperFunction,ComponentPad*%
%ADD15C,1.800000*%
%TD*%
%TA.AperFunction,ComponentPad*%
%ADD16R,3.500000X3.500000*%
%TD*%
%TA.AperFunction,ComponentPad*%
%ADD17RoundRect,0.750000X-0.750000X-1.000000X0.750000X-1.000000X0.750000X1.000000X-0.750000X1.000000X0*%
%TD*%
%TA.AperFunction,ComponentPad*%
%ADD18RoundRect,0.875000X-0.875000X-0.875000X0.875000X-0.875000X0.875000X0.875000X-0.875000X0.875000X0*%
%TD*%
%TA.AperFunction,ComponentPad*%
%ADD19C,2.000000*%
%TD*%
%TA.AperFunction,ComponentPad*%
%ADD20R,2.000000X2.000000*%
%TD*%
%TA.AperFunction,ComponentPad*%
%ADD21R,1.700000X1.700000*%
%TD*%
%TA.AperFunction,ComponentPad*%
%ADD22C,1.700000*%
%TD*%
%TA.AperFunction,ComponentPad*%
%ADD23R,1.050000X1.500000*%
%TD*%
%TA.AperFunction,ComponentPad*%
%ADD24O,1.050000X1.500000*%
%TD*%
%TA.AperFunction,ComponentPad*%
%ADD25RoundRect,0.250000X-0.550000X-0.550000X0.550000X-0.550000X0.550000X0.550000X-0.550000X0.550000X0*%
%TD*%
%TA.AperFunction,SMDPad,CuDef*%
%ADD26RoundRect,0.150000X-0.875000X-0.150000X0.875000X-0.150000X0.875000X0.150000X-0.875000X0.150000X0*%
%TD*%
%TA.AperFunction,ViaPad*%
%ADD27C,0.600000*%
%TD*%
%TA.AperFunction,Conductor*%
%ADD28C,0.250000*%
%TD*%
%TA.AperFunction,Conductor*%
%ADD29C,0.200000*%
%TD*%
%TA.AperFunction,Conductor*%
%ADD30C,0.500000*%
%TD*%
%TA.AperFunction,Conductor*%
%ADD31C,0.800000*%
%TD*%
G04 APERTURE END LIST*
D10*
%TO.P,R2,1*%
%TO.N,GPIO_FLAG_1*%
X116500000Y-117920000D03*
%TO.P,R2,2*%
%TO.N,Net-(D1-A)*%
X116500000Y-128080000D03*
%TD*%
%TO.P,C4,1*%
%TO.N,Net-(U1-XTAL2{slash}PB7)*%
X109000000Y-103000000D03*
%TO.P,C4,2*%
%TO.N,GND*%
X109000000Y-108000000D03*
%TD*%
%TO.P,C3,1*%
%TO.N,Net-(U1-XTAL1{slash}PB6)*%
X109000000Y-100500000D03*
%TO.P,C3,2*%
%TO.N,GND*%
X109000000Y-95500000D03*
%TD*%
D11*
%TO.P,U3,1,IN*%
%TO.N,Net-(U3-IN)*%
X121000000Y-57250000D03*
D12*
%TO.P,U3,2,GND*%
%TO.N,GND*%
X123540000Y-57250000D03*
%TO.P,U3,3,OUT*%
%TO.N,+5V*%
X126080000Y-57250000D03*
%TD*%
D13*
%TO.P,Y1,1,1*%
%TO.N,Net-(U1-XTAL1{slash}PB6)*%
X102000000Y-99620000D03*
%TO.P,Y1,2,2*%
%TO.N,Net-(U1-XTAL2{slash}PB7)*%
X102000000Y-104500000D03*
%TD*%
D14*
%TO.P,D1,1,K*%
%TO.N,GND*%
X116500000Y-133770000D03*
D15*
%TO.P,D1,2,A*%
%TO.N,Net-(D1-A)*%
X116500000Y-131230000D03*
%TD*%
D10*
%TO.P,C7,1*%
%TO.N,Net-(C7-Pad1)*%
X97500000Y-59250000D03*
%TO.P,C7,2*%
%TO.N,GND*%
X97500000Y-54250000D03*
%TD*%
D16*
%TO.P,J5,1*%
%TO.N,Net-(J5-Pad1)*%
X79500000Y-57750000D03*
D17*
%TO.P,J5,2*%
%TO.N,GND*%
X73500000Y-57750000D03*
D18*
%TO.P,J5,3*%
%TO.N,N/C*%
X76500000Y-62450000D03*
%TD*%
D10*
%TO.P,R3,1*%
%TO.N,GPIO_FLAG_2*%
X124000000Y-117920000D03*
%TO.P,R3,2*%
%TO.N,Net-(D2-A)*%
X124000000Y-128080000D03*
%TD*%
%TO.P,R4,1*%
%TO.N,PWM1*%
X128500000Y-114000000D03*
%TO.P,R4,2*%
%TO.N,Net-(Q1-G)*%
X138660000Y-114000000D03*
%TD*%
D19*
%TO.P,SW1,1,1*%
%TO.N,RESET*%
X70250000Y-69750000D03*
X76750000Y-69750000D03*
%TO.P,SW1,2,2*%
%TO.N,GND*%
X70250000Y-74250000D03*
X76750000Y-74250000D03*
%TD*%
D20*
%TO.P,BZ1,1,+*%
%TO.N,+5V*%
X145000000Y-125500000D03*
D19*
%TO.P,BZ1,2,-*%
%TO.N,Net-(BZ1--)*%
X137400000Y-125500000D03*
%TD*%
D21*
%TO.P,J6,1,Pin_1*%
%TO.N,Net-(J6-Pin_1)*%
X70600000Y-100270000D03*
D22*
%TO.P,J6,2,Pin_2*%
%TO.N,Net-(J6-Pin_2)*%
X70600000Y-97730000D03*
%TO.P,J6,3,Pin_3*%
%TO.N,Net-(J6-Pin_3)*%
X70600000Y-95190000D03*
%TO.P,J6,4,Pin_4*%
%TO.N,Net-(J6-Pin_4)*%
X70600000Y-92650000D03*
%TO.P,J6,5,Pin_5*%
%TO.N,Net-(J6-Pin_5)*%
X70600000Y-90110000D03*
%TO.P,J6,6,Pin_6*%
%TO.N,Net-(J6-Pin_6)*%
X70600000Y-87570000D03*
%TO.P,J6,7,Pin_7*%
%TO.N,Net-(J6-Pin_7)*%
X70600000Y-85030000D03*
%TO.P,J6,8,Pin_8*%
%TO.N,Net-(J6-Pin_8)*%
X70600000Y-82490000D03*
%TD*%
D21*
%TO.P,J2,1,Pin_1*%
%TO.N,Net-(J2-Pin_1)*%
X70500000Y-107340000D03*
D22*
%TO.P,J2,2,Pin_2*%
%TO.N,Net-(J2-Pin_2)*%
X70500000Y-109880000D03*
%TO.P,J2,3,Pin_3*%
%TO.N,Net-(J2-Pin_3)*%
X70500000Y-112420000D03*
%TO.P,J2,4,Pin_4*%
%TO.N,Net-(J2-Pin_4)*%
X70500000Y-114960000D03*
%TO.P,J2,5,Pin_5*%
%TO.N,Net-(J2-Pin_5)*%
X70500000Y-117500000D03*
%TO.P,J2,6,Pin_6*%
%TO.N,Net-(J2-Pin_6)*%
X70500000Y-120040000D03*
%TO.P,J2,7,Pin_7*%
%TO.N,Net-(J2-Pin_7)*%
X70500000Y-122580000D03*
%TO.P,J2,8,Pin_8*%
%TO.N,Net-(J2-Pin_8)*%
X70500000Y-125120000D03*
%TD*%
D21*
%TO.P,J4,1,Pin_1*%
%TO.N,Net-(J4-Pin_1)*%
X146500000Y-93000000D03*
D22*
%TO.P,J4,2,Pin_2*%
%TO.N,Net-(J4-Pin_2)*%
X146500000Y-90460000D03*
%TO.P,J4,3,Pin_3*%
%TO.N,Net-(J4-Pin_3)*%
X146500000Y-87920000D03*
%TO.P,J4,4,Pin_4*%
%TO.N,Net-(J4-Pin_4)*%
X146500000Y-85380000D03*
%TO.P,J4,5,Pin_5*%
%TO.N,Net-(J4-Pin_5)*%
X146500000Y-82840000D03*
%TO.P,J4,6,Pin_6*%
%TO.N,Net-(J4-Pin_6)*%
X146500000Y-80300000D03*
%TD*%
D23*
%TO.P,Q1,1,S*%
%TO.N,GND*%
X128730000Y-119360000D03*
D24*
%TO.P,Q1,2,G*%
%TO.N,Net-(Q1-G)*%
X130000000Y-119360000D03*
%TO.P,Q1,3,D*%
%TO.N,Net-(BZ1--)*%
X131270000Y-119360000D03*
%TD*%
D25*
%TO.P,U1,1,~{RESET}/PC6*%
%TO.N,RESET*%
X116380000Y-80420000D03*
D10*
%TO.P,U1,2,PD0*%
%TO.N,Net-(J3-Pin_8)*%
X116380000Y-82960000D03*
%TO.P,U1,3,PD1*%
%TO.N,Net-(J3-Pin_7)*%
X116380000Y-85500000D03*
%TO.P,U1,4,PD2*%
%TO.N,Net-(J3-Pin_6)*%
X116380000Y-88040000D03*
%TO.P,U1,5,PD3*%
%TO.N,Net-(J3-Pin_5)*%
X116380000Y-90580000D03*
%TO.P,U1,6,PD4*%
%TO.N,Net-(J3-Pin_4)*%
X116380000Y-93120000D03*
%TO.P,U1,7,VCC*%
%TO.N,+5V*%
X116380000Y-95660000D03*
%TO.P,U1,8,GND*%
%TO.N,GND*%
X116380000Y-98200000D03*
%TO.P,U1,9,XTAL1/PB6*%
%TO.N,Net-(U1-XTAL1{slash}PB6)*%
X116380000Y-100740000D03*
%TO.P,U1,10,XTAL2/PB7*%
%TO.N,Net-(U1-XTAL2{slash}PB7)*%
X116380000Y-103280000D03*
%TO.P,U1,11,PD5*%
%TO.N,Net-(J3-Pin_3)*%
X116380000Y-105820000D03*
%TO.P,U1,12,PD6*%
%TO.N,Net-(J3-Pin_2)*%
X116380000Y-108360000D03*
%TO.P,U1,13,PD7*%
%TO.N,Net-(J3-Pin_1)*%
X116380000Y-110900000D03*
%TO.P,U1,14,PB0*%
%TO.N,GPIO_FLAG_1*%
X116380000Y-113440000D03*
%TO.P,U1,15,PB1*%
%TO.N,GPIO_FLAG_2*%
X124000000Y-113440000D03*
%TO.P,U1,16,PB2*%
%TO.N,PWM1*%
X124000000Y-110900000D03*
%TO.P,U1,17,PB3*%
%TO.N,Net-(J1-Pin_4)*%
X124000000Y-108360000D03*
%TO.P,U1,18,PB4*%
%TO.N,Net-(J1-Pin_1)*%
X124000000Y-105820000D03*
%TO.P,U1,19,PB5*%
%TO.N,Net-(J1-Pin_3)*%
X124000000Y-103280000D03*
%TO.P,U1,20,AVCC*%
%TO.N,+5V*%
X124000000Y-100740000D03*
%TO.P,U1,21,AREF*%
%TO.N,Net-(U1-AREF)*%
X124000000Y-98200000D03*
%TO.P,U1,22,GND*%
%TO.N,GND*%
X124000000Y-95660000D03*
%TO.P,U1,23,PC0*%
%TO.N,Net-(J4-Pin_1)*%
X124000000Y-93120000D03*
%TO.P,U1,24,PC1*%
%TO.N,Net-(J4-Pin_2)*%
X124000000Y-90580000D03*
%TO.P,U1,25,PC2*%
%TO.N,Net-(J4-Pin_3)*%
X124000000Y-88040000D03*
%TO.P,U1,26,PC3*%
%TO.N,Net-(J4-Pin_4)*%
X124000000Y-85500000D03*
%TO.P,U1,27,PC4*%
%TO.N,Net-(J4-Pin_5)*%
X124000000Y-82960000D03*
%TO.P,U1,28,PC5*%
%TO.N,Net-(J4-Pin_6)*%
X124000000Y-80420000D03*
%TD*%
D26*
%TO.P,U2,1,I1*%
%TO.N,Net-(J6-Pin_8)*%
X78600000Y-85920000D03*
%TO.P,U2,2,I2*%
%TO.N,Net-(J6-Pin_7)*%
X78600000Y-87190000D03*
%TO.P,U2,3,I3*%
%TO.N,Net-(J6-Pin_6)*%
X78600000Y-88460000D03*
%TO.P,U2,4,I4*%
%TO.N,Net-(J6-Pin_5)*%
X78600000Y-89730000D03*
%TO.P,U2,5,I5*%
%TO.N,Net-(J6-Pin_4)*%
X78600000Y-91000000D03*
%TO.P,U2,6,I6*%
%TO.N,Net-(J6-Pin_3)*%
X78600000Y-92270000D03*
%TO.P,U2,7,I7*%
%TO.N,Net-(J6-Pin_2)*%
X78600000Y-93540000D03*
%TO.P,U2,8,I8*%
%TO.N,Net-(J6-Pin_1)*%
X78600000Y-94810000D03*
%TO.P,U2,9,GND*%
%TO.N,GND*%
X78600000Y-96080000D03*
%TO.P,U2,10,COM*%
%TO.N,+12V*%
X87900000Y-96080000D03*
%TO.P,U2,11,O8*%
%TO.N,Net-(J2-Pin_8)*%
X87900000Y-94810000D03*
%TO.P,U2,12,O7*%
%TO.N,Net-(J2-Pin_7)*%
X87900000Y-93540000D03*
%TO.P,U2,13,O6*%
%TO.N,Net-(J2-Pin_6)*%
X87900000Y-92270000D03*
%TO.P,U2,14,O5*%
%TO.N,Net-(J2-Pin_5)*%
X87900000Y-91000000D03*
%TO.P,U2,15,O4*%
%TO.N,Net-(J2-Pin_4)*%
X87900000Y-89730000D03*
%TO.P,U2,16,O3*%
%TO.N,Net-(J2-Pin_3)*%
X87900000Y-88460000D03*
%TO.P,U2,17,O2*%
%TO.N,Net-(J2-Pin_2)*%
X87900000Y-87190000D03*
%TO.P,U2,18,O1*%
%TO.N,Net-(J2-Pin_1)*%
X87900000Y-85920000D03*
%TD*%
D10*
%TO.P,C8,1*%
%TO.N,Net-(U3-IN)*%
X114000000Y-59750000D03*
%TO.P,C8,2*%
%TO.N,GND*%
X114000000Y-54750000D03*
%TD*%
%TO.P,C6,1*%
%TO.N,GND*%
X109000000Y-91500000D03*
%TO.P,C6,2*%
%TO.N,+5V*%
X114000000Y-91500000D03*
%TD*%
%TO.P,R1,1*%
%TO.N,RESET*%
X115000000Y-75500000D03*
%TO.P,R1,2*%
%TO.N,+5V*%
X125160000Y-75500000D03*
%TD*%
D14*
%TO.P,D2,1,K*%
%TO.N,GND*%
X124000000Y-133770000D03*
D15*
%TO.P,D2,2,A*%
%TO.N,Net-(D2-A)*%
X124000000Y-131230000D03*
%TD*%
D19*
%TO.P,SW2,1,1*%
%TO.N,Net-(J5-Pad1)*%
X85750000Y-54500000D03*
X92250000Y-54500000D03*
%TO.P,SW2,2,2*%
%TO.N,Net-(C7-Pad1)*%
X85750000Y-59000000D03*
X92250000Y-59000000D03*
%TD*%
D10*
%TO.P,C2,1*%
%TO.N,GND*%
X132500000Y-98000000D03*
%TO.P,C2,2*%
%TO.N,Net-(U1-AREF)*%
X127500000Y-98000000D03*
%TD*%
D21*
%TO.P,J1,1,Pin_1*%
%TO.N,Net-(J1-Pin_1)*%
X143960000Y-104460000D03*
D22*
%TO.P,J1,2,Pin_2*%
%TO.N,+5V*%
X146500000Y-104460000D03*
%TO.P,J1,3,Pin_3*%
%TO.N,Net-(J1-Pin_3)*%
X143960000Y-107000000D03*
%TO.P,J1,4,Pin_4*%
%TO.N,Net-(J1-Pin_4)*%
X146500000Y-107000000D03*
%TO.P,J1,5,Pin_5*%
%TO.N,RESET*%
X143960000Y-109540000D03*
%TO.P,J1,6,Pin_6*%
%TO.N,GND*%
X146500000Y-109540000D03*
%TD*%
D19*
%TO.P,FB1,1*%
%TO.N,Net-(U3-IN)*%
X108040000Y-59500000D03*
%TO.P,FB1,2*%
%TO.N,Net-(C7-Pad1)*%
X102960000Y-59500000D03*
%TD*%
D21*
%TO.P,J3,1,Pin_1*%
%TO.N,Net-(J3-Pin_1)*%
X90580000Y-134500000D03*
D22*
%TO.P,J3,2,Pin_2*%
%TO.N,Net-(J3-Pin_2)*%
X88040000Y-134500000D03*
%TO.P,J3,3,Pin_3*%
%TO.N,Net-(J3-Pin_3)*%
X85500000Y-134500000D03*
%TO.P,J3,4,Pin_4*%
%TO.N,Net-(J3-Pin_4)*%
X82960000Y-134500000D03*
%TO.P,J3,5,Pin_5*%
%TO.N,Net-(J3-Pin_5)*%
X80420000Y-134500000D03*
%TO.P,J3,6,Pin_6*%
%TO.N,Net-(J3-Pin_6)*%
X77880000Y-134500000D03*
%TO.P,J3,7,Pin_7*%
%TO.N,Net-(J3-Pin_7)*%
X75340000Y-134500000D03*
%TO.P,J3,8,Pin_8*%
%TO.N,Net-(J3-Pin_8)*%
X72800000Y-134500000D03*
%TD*%
D27*
%TO.N,Net-(J2-Pin_8)*%
X87000000Y-104500000D03*
%TD*%
D28*
%TO.N,Net-(U1-AREF)*%
X124200000Y-98000000D02*
X124000000Y-98200000D01*
X127500000Y-98000000D02*
X124200000Y-98000000D01*
D29*
%TO.N,Net-(U1-XTAL1{slash}PB6)*%
X116140000Y-100500000D02*
X116380000Y-100740000D01*
X108120000Y-99620000D02*
X109000000Y-100500000D01*
X109000000Y-100500000D02*
X116140000Y-100500000D01*
X102000000Y-99620000D02*
X108120000Y-99620000D01*
%TO.N,Net-(U1-XTAL2{slash}PB7)*%
X109000000Y-103000000D02*
X116100000Y-103000000D01*
X116100000Y-103000000D02*
X116380000Y-103280000D01*
X107500000Y-104500000D02*
X109000000Y-103000000D01*
X102000000Y-104500000D02*
X107500000Y-104500000D01*
D28*
%TO.N,+5V*%
X150500000Y-108460000D02*
X146500000Y-104460000D01*
X150500000Y-120000000D02*
X150500000Y-108460000D01*
X145000000Y-125500000D02*
X150500000Y-120000000D01*
D30*
X124500000Y-78000000D02*
X114500000Y-78000000D01*
X124000000Y-100740000D02*
X142780000Y-100740000D01*
X125160000Y-75500000D02*
X125160000Y-77340000D01*
D31*
X126080000Y-74580000D02*
X125160000Y-75500000D01*
D30*
X121740000Y-100740000D02*
X124000000Y-100740000D01*
X114500000Y-78000000D02*
X114000000Y-78500000D01*
X114000000Y-78500000D02*
X114000000Y-91500000D01*
X114000000Y-91500000D02*
X114000000Y-93280000D01*
X116380000Y-95660000D02*
X116660000Y-95660000D01*
X125160000Y-77340000D02*
X124500000Y-78000000D01*
X116660000Y-95660000D02*
X121740000Y-100740000D01*
D31*
X126080000Y-57250000D02*
X126080000Y-74580000D01*
D30*
X142780000Y-100740000D02*
X146500000Y-104460000D01*
X114000000Y-93280000D02*
X116380000Y-95660000D01*
D28*
%TO.N,Net-(J1-Pin_3)*%
X123220000Y-103280000D02*
X122500000Y-104000000D01*
X123500000Y-107000000D02*
X143960000Y-107000000D01*
X122500000Y-106000000D02*
X123500000Y-107000000D01*
X124000000Y-103280000D02*
X123220000Y-103280000D01*
X122500000Y-104000000D02*
X122500000Y-106000000D01*
%TO.N,RESET*%
X115000000Y-75500000D02*
X109250000Y-69750000D01*
X109250000Y-69750000D02*
X109000000Y-69750000D01*
X70250000Y-69750000D02*
X76750000Y-69750000D01*
X76750000Y-69750000D02*
X109000000Y-69750000D01*
%TO.N,Net-(J1-Pin_4)*%
X124086000Y-108446000D02*
X124000000Y-108360000D01*
X145140000Y-108360000D02*
X146500000Y-107000000D01*
X124000000Y-108360000D02*
X145140000Y-108360000D01*
%TO.N,Net-(J1-Pin_1)*%
X142600000Y-105820000D02*
X143960000Y-104460000D01*
X124000000Y-105820000D02*
X142600000Y-105820000D01*
%TO.N,Net-(J3-Pin_3)*%
X85500000Y-134500000D02*
X114180000Y-105820000D01*
X114180000Y-105820000D02*
X116380000Y-105820000D01*
%TO.N,Net-(J3-Pin_1)*%
X114180000Y-110900000D02*
X116380000Y-110900000D01*
X90580000Y-134500000D02*
X114180000Y-110900000D01*
%TO.N,Net-(J3-Pin_2)*%
X114180000Y-108360000D02*
X88040000Y-134500000D01*
X116380000Y-108360000D02*
X114180000Y-108360000D01*
%TO.N,Net-(J4-Pin_4)*%
X124336000Y-85164000D02*
X124000000Y-85500000D01*
X146380000Y-85500000D02*
X146500000Y-85380000D01*
X124000000Y-85500000D02*
X146380000Y-85500000D01*
%TO.N,GPIO_FLAG_2*%
X124000000Y-113440000D02*
X124000000Y-117920000D01*
%TO.N,Net-(J4-Pin_6)*%
X124336000Y-80084000D02*
X124000000Y-80420000D01*
X146380000Y-80420000D02*
X146500000Y-80300000D01*
X124000000Y-80420000D02*
X146380000Y-80420000D01*
%TO.N,Net-(J4-Pin_5)*%
X124336000Y-82624000D02*
X124000000Y-82960000D01*
X146380000Y-82960000D02*
X146500000Y-82840000D01*
X124000000Y-82960000D02*
X146380000Y-82960000D01*
%TO.N,Net-(J4-Pin_3)*%
X124000000Y-88040000D02*
X146380000Y-88040000D01*
X124336000Y-87704000D02*
X124000000Y-88040000D01*
X146380000Y-88040000D02*
X146500000Y-87920000D01*
%TO.N,Net-(J4-Pin_2)*%
X146380000Y-90580000D02*
X146500000Y-90460000D01*
X124000000Y-90580000D02*
X146380000Y-90580000D01*
X124524000Y-90056000D02*
X124000000Y-90580000D01*
%TO.N,Net-(J4-Pin_1)*%
X124000000Y-93120000D02*
X146380000Y-93120000D01*
X146380000Y-93120000D02*
X146500000Y-93000000D01*
%TO.N,GPIO_FLAG_1*%
X116320000Y-113500000D02*
X116380000Y-113440000D01*
X116380000Y-113440000D02*
X116380000Y-117800000D01*
X116380000Y-117800000D02*
X116500000Y-117920000D01*
%TO.N,Net-(BZ1--)*%
X131270000Y-119370000D02*
X131270000Y-119360000D01*
X137400000Y-125500000D02*
X131270000Y-119370000D01*
D31*
%TO.N,Net-(C7-Pad1)*%
X92250000Y-59000000D02*
X97250000Y-59000000D01*
X85750000Y-59000000D02*
X92250000Y-59000000D01*
X97250000Y-59000000D02*
X97500000Y-59250000D01*
X102710000Y-59250000D02*
X102960000Y-59500000D01*
X97500000Y-59250000D02*
X102710000Y-59250000D01*
%TO.N,Net-(U3-IN)*%
X113750000Y-59500000D02*
X114000000Y-59750000D01*
X114000000Y-59750000D02*
X118500000Y-59750000D01*
X118500000Y-59750000D02*
X121000000Y-57250000D01*
X108040000Y-59500000D02*
X113750000Y-59500000D01*
D28*
%TO.N,Net-(D1-A)*%
X116500000Y-128080000D02*
X116500000Y-131230000D01*
%TO.N,Net-(D2-A)*%
X124000000Y-128080000D02*
X124000000Y-131230000D01*
%TO.N,Net-(J2-Pin_1)*%
X87900000Y-85920000D02*
X87467678Y-85920000D01*
X80840000Y-97000000D02*
X80840000Y-89660000D01*
X80840000Y-89660000D02*
X84580000Y-85920000D01*
X70500000Y-107340000D02*
X80840000Y-97000000D01*
X84580000Y-85920000D02*
X87900000Y-85920000D01*
%TO.N,Net-(J2-Pin_2)*%
X85310000Y-87190000D02*
X82000000Y-90500000D01*
X82000000Y-90500000D02*
X82000000Y-98380000D01*
X82000000Y-98380000D02*
X70500000Y-109880000D01*
X87900000Y-87190000D02*
X85310000Y-87190000D01*
D29*
%TO.N,Net-(J2-Pin_8)*%
X90000000Y-95500000D02*
X90000000Y-101500000D01*
X90000000Y-101500000D02*
X87000000Y-104500000D01*
X89310000Y-94810000D02*
X90000000Y-95500000D01*
X87900000Y-94810000D02*
X89310000Y-94810000D01*
D28*
%TO.N,Net-(J2-Pin_3)*%
X83000000Y-99920000D02*
X70500000Y-112420000D01*
X87900000Y-88460000D02*
X86040000Y-88460000D01*
X83000000Y-91500000D02*
X83000000Y-99920000D01*
X86040000Y-88460000D02*
X83000000Y-91500000D01*
%TO.N,Net-(J2-Pin_5)*%
X85000000Y-92500000D02*
X85000000Y-103000000D01*
X86500000Y-91000000D02*
X85000000Y-92500000D01*
X87900000Y-91000000D02*
X86500000Y-91000000D01*
X85000000Y-103000000D02*
X70500000Y-117500000D01*
D29*
%TO.N,Net-(J2-Pin_7)*%
X90040000Y-93540000D02*
X91500000Y-95000000D01*
X91500000Y-101580000D02*
X70500000Y-122580000D01*
X91500000Y-95000000D02*
X91500000Y-101580000D01*
X87900000Y-93540000D02*
X90040000Y-93540000D01*
D28*
%TO.N,Net-(J2-Pin_4)*%
X86270000Y-89730000D02*
X84000000Y-92000000D01*
X87900000Y-89730000D02*
X86270000Y-89730000D01*
X84000000Y-101460000D02*
X70500000Y-114960000D01*
X84000000Y-92000000D02*
X84000000Y-101460000D01*
%TO.N,Net-(J2-Pin_6)*%
X86000000Y-104540000D02*
X70500000Y-120040000D01*
X87900000Y-92270000D02*
X86875001Y-92270000D01*
X86875001Y-92270000D02*
X86000000Y-93145001D01*
X86000000Y-93145001D02*
X86000000Y-104540000D01*
D31*
%TO.N,Net-(J5-Pad1)*%
X85750000Y-54500000D02*
X92250000Y-54500000D01*
X79500000Y-57750000D02*
X82500000Y-57750000D01*
X82500000Y-57750000D02*
X85750000Y-54500000D01*
D28*
%TO.N,Net-(J6-Pin_3)*%
X73520000Y-92270000D02*
X78600000Y-92270000D01*
X70600000Y-95190000D02*
X73520000Y-92270000D01*
%TO.N,Net-(J6-Pin_5)*%
X70600000Y-90110000D02*
X78220000Y-90110000D01*
X78220000Y-90110000D02*
X78600000Y-89730000D01*
%TO.N,Net-(J6-Pin_6)*%
X71490000Y-88460000D02*
X78600000Y-88460000D01*
X70600000Y-87570000D02*
X71490000Y-88460000D01*
%TO.N,Net-(J6-Pin_2)*%
X70600000Y-97730000D02*
X74790000Y-93540000D01*
X74790000Y-93540000D02*
X78600000Y-93540000D01*
%TO.N,Net-(J6-Pin_4)*%
X72250000Y-91000000D02*
X78600000Y-91000000D01*
X70600000Y-92650000D02*
X72250000Y-91000000D01*
%TO.N,Net-(J6-Pin_1)*%
X76060000Y-94810000D02*
X78600000Y-94810000D01*
X70600000Y-100270000D02*
X76060000Y-94810000D01*
%TO.N,Net-(J6-Pin_7)*%
X72760000Y-87190000D02*
X78600000Y-87190000D01*
X70600000Y-85030000D02*
X72760000Y-87190000D01*
%TO.N,Net-(J6-Pin_8)*%
X70600000Y-82490000D02*
X74030000Y-85920000D01*
X74030000Y-85920000D02*
X78600000Y-85920000D01*
%TO.N,Net-(Q1-G)*%
X130000000Y-119201504D02*
X130000000Y-119360000D01*
X135201504Y-114000000D02*
X130000000Y-119201504D01*
X138660000Y-114000000D02*
X135201504Y-114000000D01*
%TO.N,PWM1*%
X128500000Y-114000000D02*
X127100000Y-114000000D01*
X127100000Y-114000000D02*
X124000000Y-110900000D01*
%TD*%
%TA.AperFunction,Conductor*%
%TO.N,GND*%
G36*
X151942539Y-51520185D02*
G01*
X151988294Y-51572989D01*
X151999500Y-51624500D01*
X151999500Y-138375500D01*
X151979815Y-138442539D01*
X151927011Y-138488294D01*
X151875500Y-138499500D01*
X65624500Y-138499500D01*
X65557461Y-138479815D01*
X65511706Y-138427011D01*
X65500500Y-138375500D01*
X65500500Y-134393713D01*
X71449500Y-134393713D01*
X71449500Y-134606286D01*
X71476598Y-134777379D01*
X71482754Y-134816243D01*
X71513895Y-134912086D01*
X71548444Y-135018414D01*
X71644951Y-135207820D01*
X71769890Y-135379786D01*
X71920213Y-135530109D01*
X72092179Y-135655048D01*
X72092181Y-135655049D01*
X72092184Y-135655051D01*
X72281588Y-135751557D01*
X72483757Y-135817246D01*
X72693713Y-135850500D01*
X72693714Y-135850500D01*
X72906286Y-135850500D01*
X72906287Y-135850500D01*
X73116243Y-135817246D01*
X73318412Y-135751557D01*
X73507816Y-135655051D01*
X73594138Y-135592335D01*
X73679786Y-135530109D01*
X73679788Y-135530106D01*
X73679792Y-135530104D01*
X73830104Y-135379792D01*
X73830106Y-135379788D01*
X73830109Y-135379786D01*
X73955048Y-135207820D01*
X73955047Y-135207820D01*
X73955051Y-135207816D01*
X73959514Y-135199054D01*
X74007488Y-135148259D01*
X74075308Y-135131463D01*
X74141444Y-135153999D01*
X74180486Y-135199056D01*
X74184951Y-135207820D01*
X74309890Y-135379786D01*
X74460213Y-135530109D01*
X74632179Y-135655048D01*
X74632181Y-135655049D01*
X74632184Y-135655051D01*
X74821588Y-135751557D01*
X75023757Y-135817246D01*
X75233713Y-135850500D01*
X75233714Y-135850500D01*
X75446286Y-135850500D01*
X75446287Y-135850500D01*
X75656243Y-135817246D01*
X75858412Y-135751557D01*
X76047816Y-135655051D01*
X76134138Y-135592335D01*
X76219786Y-135530109D01*
X76219788Y-135530106D01*
X76219792Y-135530104D01*
X76370104Y-135379792D01*
X76370106Y-135379788D01*
X76370109Y-135379786D01*
X76495048Y-135207820D01*
X76495047Y-135207820D01*
X76495051Y-135207816D01*
X76499514Y-135199054D01*
X76547488Y-135148259D01*
X76615308Y-135131463D01*
X76681444Y-135153999D01*
X76720486Y-135199056D01*
X76724951Y-135207820D01*
X76849890Y-135379786D01*
X77000213Y-135530109D01*
X77172179Y-135655048D01*
X77172181Y-135655049D01*
X77172184Y-135655051D01*
X77361588Y-135751557D01*
X77563757Y-135817246D01*
X77773713Y-135850500D01*
X77773714Y-135850500D01*
X77986286Y-135850500D01*
X77986287Y-135850500D01*
X78196243Y-135817246D01*
X78398412Y-135751557D01*
X78587816Y-135655051D01*
X78674138Y-135592335D01*
X78759786Y-135530109D01*
X78759788Y-135530106D01*
X78759792Y-135530104D01*
X78910104Y-135379792D01*
X78910106Y-135379788D01*
X78910109Y-135379786D01*
X79035048Y-135207820D01*
X79035047Y-135207820D01*
X79035051Y-135207816D01*
X79039514Y-135199054D01*
X79087488Y-135148259D01*
X79155308Y-135131463D01*
X79221444Y-135153999D01*
X79260486Y-135199056D01*
X79264951Y-135207820D01*
X79389890Y-135379786D01*
X79540213Y-135530109D01*
X79712179Y-135655048D01*
X79712181Y-135655049D01*
X79712184Y-135655051D01*
X79901588Y-135751557D01*
X80103757Y-135817246D01*
X80313713Y-135850500D01*
X80313714Y-135850500D01*
X80526286Y-135850500D01*
X80526287Y-135850500D01*
X80736243Y-135817246D01*
X80938412Y-135751557D01*
X81127816Y-135655051D01*
X81214138Y-135592335D01*
X81299786Y-135530109D01*
X81299788Y-135530106D01*
X81299792Y-135530104D01*
X81450104Y-135379792D01*
X81450106Y-135379788D01*
X81450109Y-135379786D01*
X81575048Y-135207820D01*
X81575047Y-135207820D01*
X81575051Y-135207816D01*
X81579514Y-135199054D01*
X81627488Y-135148259D01*
X81695308Y-135131463D01*
X81761444Y-135153999D01*
X81800486Y-135199056D01*
X81804951Y-135207820D01*
X81929890Y-135379786D01*
X82080213Y-135530109D01*
X82252179Y-135655048D01*
X82252181Y-135655049D01*
X82252184Y-135655051D01*
X82441588Y-135751557D01*
X82643757Y-135817246D01*
X82853713Y-135850500D01*
X82853714Y-135850500D01*
X83066286Y-135850500D01*
X83066287Y-135850500D01*
X83276243Y-135817246D01*
X83478412Y-135751557D01*
X83667816Y-135655051D01*
X83754138Y-135592335D01*
X83839786Y-135530109D01*
X83839788Y-135530106D01*
X83839792Y-135530104D01*
X83990104Y-135379792D01*
X83990106Y-135379788D01*
X83990109Y-135379786D01*
X84115048Y-135207820D01*
X84115047Y-135207820D01*
X84115051Y-135207816D01*
X84119514Y-135199054D01*
X84167488Y-135148259D01*
X84235308Y-135131463D01*
X84301444Y-135153999D01*
X84340486Y-135199056D01*
X84344951Y-135207820D01*
X84469890Y-135379786D01*
X84620213Y-135530109D01*
X84792179Y-135655048D01*
X84792181Y-135655049D01*
X84792184Y-135655051D01*
X84981588Y-135751557D01*
X85183757Y-135817246D01*
X85393713Y-135850500D01*
X85393714Y-135850500D01*
X85606286Y-135850500D01*
X85606287Y-135850500D01*
X85816243Y-135817246D01*
X86018412Y-135751557D01*
X86207816Y-135655051D01*
X86294138Y-135592335D01*
X86379786Y-135530109D01*
X86379788Y-135530106D01*
X86379792Y-135530104D01*
X86530104Y-135379792D01*
X86530106Y-135379788D01*
X86530109Y-135379786D01*
X86655048Y-135207820D01*
X86655047Y-135207820D01*
X86655051Y-135207816D01*
X86659514Y-135199054D01*
X86707488Y-135148259D01*
X86775308Y-135131463D01*
X86841444Y-135153999D01*
X86880486Y-135199056D01*
X86884951Y-135207820D01*
X87009890Y-135379786D01*
X87160213Y-135530109D01*
X87332179Y-135655048D01*
X87332181Y-135655049D01*
X87332184Y-135655051D01*
X87521588Y-135751557D01*
X87723757Y-135817246D01*
X87933713Y-135850500D01*
X87933714Y-135850500D01*
X88146286Y-135850500D01*
X88146287Y-135850500D01*
X88356243Y-135817246D01*
X88558412Y-135751557D01*
X88747816Y-135655051D01*
X88919792Y-135530104D01*
X89033329Y-135416566D01*
X89094648Y-135383084D01*
X89164340Y-135388068D01*
X89220274Y-135429939D01*
X89237189Y-135460917D01*
X89286202Y-135592328D01*
X89286206Y-135592335D01*
X89372452Y-135707544D01*
X89372455Y-135707547D01*
X89487664Y-135793793D01*
X89487671Y-135793797D01*
X89622517Y-135844091D01*
X89622516Y-135844091D01*
X89629444Y-135844835D01*
X89682127Y-135850500D01*
X91477872Y-135850499D01*
X91537483Y-135844091D01*
X91672331Y-135793796D01*
X91787546Y-135707546D01*
X91873796Y-135592331D01*
X91924091Y-135457483D01*
X91930500Y-135397873D01*
X91930499Y-134085450D01*
X91939143Y-134056010D01*
X91945667Y-134026024D01*
X91949421Y-134021008D01*
X91950184Y-134018412D01*
X91966813Y-133997775D01*
X94844810Y-131119778D01*
X115099500Y-131119778D01*
X115099500Y-131340221D01*
X115133985Y-131557952D01*
X115202103Y-131767603D01*
X115202104Y-131767606D01*
X115302187Y-131964025D01*
X115431752Y-132142358D01*
X115431756Y-132142363D01*
X115482316Y-132192923D01*
X115515801Y-132254246D01*
X115510817Y-132323938D01*
X115468945Y-132379871D01*
X115437969Y-132396785D01*
X115357918Y-132426643D01*
X115357906Y-132426649D01*
X115242812Y-132512809D01*
X115242809Y-132512812D01*
X115156649Y-132627906D01*
X115156645Y-132627913D01*
X115106403Y-132762620D01*
X115106401Y-132762627D01*
X115100000Y-132822155D01*
X115100000Y-133520000D01*
X116124722Y-133520000D01*
X116080667Y-133596306D01*
X116050000Y-133710756D01*
X116050000Y-133829244D01*
X116080667Y-133943694D01*
X116124722Y-134020000D01*
X115100000Y-134020000D01*
X115100000Y-134717844D01*
X115106401Y-134777372D01*
X115106403Y-134777379D01*
X115156645Y-134912086D01*
X115156649Y-134912093D01*
X115242809Y-135027187D01*
X115242812Y-135027190D01*
X115357906Y-135113350D01*
X115357913Y-135113354D01*
X115492620Y-135163596D01*
X115492627Y-135163598D01*
X115552155Y-135169999D01*
X115552172Y-135170000D01*
X116250000Y-135170000D01*
X116250000Y-134145277D01*
X116326306Y-134189333D01*
X116440756Y-134220000D01*
X116559244Y-134220000D01*
X116673694Y-134189333D01*
X116750000Y-134145277D01*
X116750000Y-135170000D01*
X117447828Y-135170000D01*
X117447844Y-135169999D01*
X117507372Y-135163598D01*
X117507379Y-135163596D01*
X117642086Y-135113354D01*
X117642093Y-135113350D01*
X117757187Y-135027190D01*
X117757190Y-135027187D01*
X117843350Y-134912093D01*
X117843354Y-134912086D01*
X117893596Y-134777379D01*
X117893598Y-134777372D01*
X117899999Y-134717844D01*
X117900000Y-134717827D01*
X117900000Y-134020000D01*
X116875278Y-134020000D01*
X116919333Y-133943694D01*
X116950000Y-133829244D01*
X116950000Y-133710756D01*
X116919333Y-133596306D01*
X116875278Y-133520000D01*
X117900000Y-133520000D01*
X117900000Y-132822172D01*
X117899999Y-132822155D01*
X117893598Y-132762627D01*
X117893596Y-132762620D01*
X117843354Y-132627913D01*
X117843350Y-132627906D01*
X117757190Y-132512812D01*
X117757187Y-132512809D01*
X117642093Y-132426649D01*
X117642087Y-132426646D01*
X117562030Y-132396786D01*
X117506097Y-132354914D01*
X117481680Y-132289450D01*
X117496532Y-132221177D01*
X117517681Y-132192925D01*
X117568242Y-132142365D01*
X117697815Y-131964022D01*
X117797895Y-131767606D01*
X117866015Y-131557951D01*
X117900500Y-131340222D01*
X117900500Y-131119778D01*
X122599500Y-131119778D01*
X122599500Y-131340221D01*
X122633985Y-131557952D01*
X122702103Y-131767603D01*
X122702104Y-131767606D01*
X122802187Y-131964025D01*
X122931752Y-132142358D01*
X122931756Y-132142363D01*
X122982316Y-132192923D01*
X123015801Y-132254246D01*
X123010817Y-132323938D01*
X122968945Y-132379871D01*
X122937969Y-132396785D01*
X122857918Y-132426643D01*
X122857906Y-132426649D01*
X122742812Y-132512809D01*
X122742809Y-132512812D01*
X122656649Y-132627906D01*
X122656645Y-132627913D01*
X122606403Y-132762620D01*
X122606401Y-132762627D01*
X122600000Y-132822155D01*
X122600000Y-133520000D01*
X123624722Y-133520000D01*
X123580667Y-133596306D01*
X123550000Y-133710756D01*
X123550000Y-133829244D01*
X123580667Y-133943694D01*
X123624722Y-134020000D01*
X122600000Y-134020000D01*
X122600000Y-134717844D01*
X122606401Y-134777372D01*
X122606403Y-134777379D01*
X122656645Y-134912086D01*
X122656649Y-134912093D01*
X122742809Y-135027187D01*
X122742812Y-135027190D01*
X122857906Y-135113350D01*
X122857913Y-135113354D01*
X122992620Y-135163596D01*
X122992627Y-135163598D01*
X123052155Y-135169999D01*
X123052172Y-135170000D01*
X123750000Y-135170000D01*
X123750000Y-134145277D01*
X123826306Y-134189333D01*
X123940756Y-134220000D01*
X124059244Y-134220000D01*
X124173694Y-134189333D01*
X124250000Y-134145277D01*
X124250000Y-135170000D01*
X124947828Y-135170000D01*
X124947844Y-135169999D01*
X125007372Y-135163598D01*
X125007379Y-135163596D01*
X125142086Y-135113354D01*
X125142093Y-135113350D01*
X125257187Y-135027190D01*
X125257190Y-135027187D01*
X125343350Y-134912093D01*
X125343354Y-134912086D01*
X125393596Y-134777379D01*
X125393598Y-134777372D01*
X125399999Y-134717844D01*
X125400000Y-134717827D01*
X125400000Y-134020000D01*
X124375278Y-134020000D01*
X124419333Y-133943694D01*
X124450000Y-133829244D01*
X124450000Y-133710756D01*
X124419333Y-133596306D01*
X124375278Y-133520000D01*
X125400000Y-133520000D01*
X125400000Y-132822172D01*
X125399999Y-132822155D01*
X125393598Y-132762627D01*
X125393596Y-132762620D01*
X125343354Y-132627913D01*
X125343350Y-132627906D01*
X125257190Y-132512812D01*
X125257187Y-132512809D01*
X125142093Y-132426649D01*
X125142087Y-132426646D01*
X125062030Y-132396786D01*
X125006097Y-132354914D01*
X124981680Y-132289450D01*
X124996532Y-132221177D01*
X125017681Y-132192925D01*
X125068242Y-132142365D01*
X125197815Y-131964022D01*
X125297895Y-131767606D01*
X125366015Y-131557951D01*
X125400500Y-131340222D01*
X125400500Y-131119778D01*
X125366015Y-130902049D01*
X125297895Y-130692394D01*
X125297895Y-130692393D01*
X125263237Y-130624375D01*
X125197815Y-130495978D01*
X125181260Y-130473192D01*
X125068247Y-130317641D01*
X125068243Y-130317636D01*
X124912363Y-130161756D01*
X124912358Y-130161752D01*
X124734023Y-130032185D01*
X124693204Y-130011386D01*
X124642408Y-129963411D01*
X124625500Y-129900902D01*
X124625500Y-129296114D01*
X124645185Y-129229075D01*
X124678575Y-129196398D01*
X124677668Y-129195150D01*
X124681605Y-129192289D01*
X124681610Y-129192287D01*
X124847219Y-129071966D01*
X124991966Y-128927219D01*
X124991968Y-128927215D01*
X124991971Y-128927213D01*
X125044732Y-128854590D01*
X125112287Y-128761610D01*
X125205220Y-128579219D01*
X125268477Y-128384534D01*
X125300500Y-128182352D01*
X125300500Y-127977648D01*
X125268477Y-127775466D01*
X125205220Y-127580781D01*
X125205218Y-127580778D01*
X125205218Y-127580776D01*
X125171503Y-127514607D01*
X125112287Y-127398390D01*
X125104556Y-127387749D01*
X124991971Y-127232786D01*
X124847213Y-127088028D01*
X124681613Y-126967715D01*
X124681612Y-126967714D01*
X124681610Y-126967713D01*
X124624653Y-126938691D01*
X124499223Y-126874781D01*
X124304534Y-126811522D01*
X124126609Y-126783342D01*
X124102352Y-126779500D01*
X123897648Y-126779500D01*
X123873391Y-126783342D01*
X123695465Y-126811522D01*
X123500776Y-126874781D01*
X123318386Y-126967715D01*
X123152786Y-127088028D01*
X123008028Y-127232786D01*
X122887715Y-127398386D01*
X122794781Y-127580776D01*
X122731522Y-127775465D01*
X122699500Y-127977648D01*
X122699500Y-128182351D01*
X122731522Y-128384534D01*
X122794781Y-128579223D01*
X122887715Y-128761613D01*
X123008028Y-128927213D01*
X123008034Y-128927219D01*
X123152781Y-129071966D01*
X123318390Y-129192287D01*
X123318394Y-129192289D01*
X123322332Y-129195150D01*
X123321111Y-129196829D01*
X123362155Y-129242177D01*
X123374500Y-129296114D01*
X123374500Y-129900902D01*
X123354815Y-129967941D01*
X123306796Y-130011386D01*
X123265976Y-130032185D01*
X123087641Y-130161752D01*
X123087636Y-130161756D01*
X122931756Y-130317636D01*
X122931752Y-130317641D01*
X122802187Y-130495974D01*
X122702104Y-130692393D01*
X122702103Y-130692396D01*
X122633985Y-130902047D01*
X122599500Y-131119778D01*
X117900500Y-131119778D01*
X117866015Y-130902049D01*
X117797895Y-130692394D01*
X117797895Y-130692393D01*
X117763237Y-130624375D01*
X117697815Y-130495978D01*
X117681260Y-130473192D01*
X117568247Y-130317641D01*
X117568243Y-130317636D01*
X117412363Y-130161756D01*
X117412358Y-130161752D01*
X117234023Y-130032185D01*
X117193204Y-130011386D01*
X117142408Y-129963411D01*
X117125500Y-129900902D01*
X117125500Y-129296114D01*
X117145185Y-129229075D01*
X117178575Y-129196398D01*
X117177668Y-129195150D01*
X117181605Y-129192289D01*
X117181610Y-129192287D01*
X117347219Y-129071966D01*
X117491966Y-128927219D01*
X117491968Y-128927215D01*
X117491971Y-128927213D01*
X117544732Y-128854590D01*
X117612287Y-128761610D01*
X117705220Y-128579219D01*
X117768477Y-128384534D01*
X117800500Y-128182352D01*
X117800500Y-127977648D01*
X117768477Y-127775466D01*
X117705220Y-127580781D01*
X117705218Y-127580778D01*
X117705218Y-127580776D01*
X117671503Y-127514607D01*
X117612287Y-127398390D01*
X117604556Y-127387749D01*
X117491971Y-127232786D01*
X117347213Y-127088028D01*
X117181613Y-126967715D01*
X117181612Y-126967714D01*
X117181610Y-126967713D01*
X117124653Y-126938691D01*
X116999223Y-126874781D01*
X116804534Y-126811522D01*
X116626609Y-126783342D01*
X116602352Y-126779500D01*
X116397648Y-126779500D01*
X116373391Y-126783342D01*
X116195465Y-126811522D01*
X116000776Y-126874781D01*
X115818386Y-126967715D01*
X115652786Y-127088028D01*
X115508028Y-127232786D01*
X115387715Y-127398386D01*
X115294781Y-127580776D01*
X115231522Y-127775465D01*
X115199500Y-127977648D01*
X115199500Y-128182351D01*
X115231522Y-128384534D01*
X115294781Y-128579223D01*
X115387715Y-128761613D01*
X115508028Y-128927213D01*
X115508034Y-128927219D01*
X115652781Y-129071966D01*
X115818390Y-129192287D01*
X115818394Y-129192289D01*
X115822332Y-129195150D01*
X115821111Y-129196829D01*
X115862155Y-129242177D01*
X115874500Y-129296114D01*
X115874500Y-129900902D01*
X115854815Y-129967941D01*
X115806796Y-130011386D01*
X115765976Y-130032185D01*
X115587641Y-130161752D01*
X115587636Y-130161756D01*
X115431756Y-130317636D01*
X115431752Y-130317641D01*
X115302187Y-130495974D01*
X115202104Y-130692393D01*
X115202103Y-130692396D01*
X115133985Y-130902047D01*
X115099500Y-131119778D01*
X94844810Y-131119778D01*
X114402771Y-111561819D01*
X114464094Y-111528334D01*
X114490452Y-111525500D01*
X115163885Y-111525500D01*
X115230924Y-111545185D01*
X115263606Y-111578571D01*
X115264849Y-111577669D01*
X115388028Y-111747213D01*
X115532786Y-111891971D01*
X115687749Y-112004556D01*
X115698390Y-112012287D01*
X115789840Y-112058883D01*
X115791080Y-112059515D01*
X115841876Y-112107490D01*
X115858671Y-112175311D01*
X115836134Y-112241446D01*
X115791080Y-112280485D01*
X115698386Y-112327715D01*
X115532786Y-112448028D01*
X115388028Y-112592786D01*
X115267715Y-112758386D01*
X115174781Y-112940776D01*
X115111522Y-113135465D01*
X115079500Y-113337648D01*
X115079500Y-113542351D01*
X115111522Y-113744534D01*
X115174781Y-113939223D01*
X115267715Y-114121613D01*
X115388028Y-114287213D01*
X115388034Y-114287219D01*
X115532781Y-114431966D01*
X115698390Y-114552287D01*
X115698394Y-114552289D01*
X115702332Y-114555150D01*
X115701111Y-114556829D01*
X115742155Y-114602177D01*
X115754500Y-114656114D01*
X115754500Y-116790949D01*
X115734815Y-116857988D01*
X115703385Y-116891267D01*
X115652787Y-116928028D01*
X115652782Y-116928032D01*
X115508028Y-117072786D01*
X115387715Y-117238386D01*
X115294781Y-117420776D01*
X115231522Y-117615465D01*
X115199500Y-117817648D01*
X115199500Y-118022351D01*
X115231522Y-118224534D01*
X115294781Y-118419223D01*
X115387715Y-118601613D01*
X115508028Y-118767213D01*
X115652786Y-118911971D01*
X115799174Y-119018326D01*
X115818390Y-119032287D01*
X115934607Y-119091503D01*
X116000776Y-119125218D01*
X116000778Y-119125218D01*
X116000781Y-119125220D01*
X116105137Y-119159127D01*
X116195465Y-119188477D01*
X116296557Y-119204488D01*
X116397648Y-119220500D01*
X116397649Y-119220500D01*
X116602351Y-119220500D01*
X116602352Y-119220500D01*
X116804534Y-119188477D01*
X116999219Y-119125220D01*
X117181610Y-119032287D01*
X117274590Y-118964732D01*
X117347213Y-118911971D01*
X117347215Y-118911968D01*
X117347219Y-118911966D01*
X117491966Y-118767219D01*
X117491968Y-118767215D01*
X117491971Y-118767213D01*
X117577684Y-118649237D01*
X117612287Y-118601610D01*
X117705220Y-118419219D01*
X117768477Y-118224534D01*
X117800500Y-118022352D01*
X117800500Y-117817648D01*
X117800277Y-117816239D01*
X117768477Y-117615465D01*
X117705218Y-117420776D01*
X117671503Y-117354607D01*
X117612287Y-117238390D01*
X117604556Y-117227749D01*
X117491971Y-117072786D01*
X117347213Y-116928028D01*
X117181611Y-116807713D01*
X117073204Y-116752476D01*
X117022409Y-116704502D01*
X117005500Y-116641992D01*
X117005500Y-114656114D01*
X117025185Y-114589075D01*
X117058575Y-114556398D01*
X117057668Y-114555150D01*
X117061605Y-114552289D01*
X117061610Y-114552287D01*
X117227219Y-114431966D01*
X117371966Y-114287219D01*
X117371968Y-114287215D01*
X117371971Y-114287213D01*
X117424732Y-114214590D01*
X117492287Y-114121610D01*
X117585220Y-113939219D01*
X117648477Y-113744534D01*
X117680500Y-113542352D01*
X117680500Y-113337648D01*
X117669159Y-113266047D01*
X117648477Y-113135465D01*
X117585218Y-112940776D01*
X117510829Y-112794781D01*
X117492287Y-112758390D01*
X117476196Y-112736243D01*
X117371971Y-112592786D01*
X117227213Y-112448028D01*
X117061614Y-112327715D01*
X117034133Y-112313713D01*
X116968917Y-112280483D01*
X116918123Y-112232511D01*
X116901328Y-112164690D01*
X116923865Y-112098555D01*
X116968917Y-112059516D01*
X117061610Y-112012287D01*
X117082770Y-111996913D01*
X117227213Y-111891971D01*
X117227215Y-111891968D01*
X117227219Y-111891966D01*
X117371966Y-111747219D01*
X117371968Y-111747215D01*
X117371971Y-111747213D01*
X117424732Y-111674590D01*
X117492287Y-111581610D01*
X117585220Y-111399219D01*
X117648477Y-111204534D01*
X117680500Y-111002352D01*
X117680500Y-110797648D01*
X117664250Y-110695051D01*
X117648477Y-110595465D01*
X117585218Y-110400776D01*
X117540161Y-110312348D01*
X117492287Y-110218390D01*
X117476196Y-110196243D01*
X117371971Y-110052786D01*
X117227213Y-109908028D01*
X117061614Y-109787715D01*
X117034133Y-109773713D01*
X116968917Y-109740483D01*
X116918123Y-109692511D01*
X116901328Y-109624690D01*
X116923865Y-109558555D01*
X116968917Y-109519516D01*
X117061610Y-109472287D01*
X117114703Y-109433713D01*
X117227213Y-109351971D01*
X117227215Y-109351968D01*
X117227219Y-109351966D01*
X117371966Y-109207219D01*
X117371968Y-109207215D01*
X117371971Y-109207213D01*
X117435566Y-109119680D01*
X117492287Y-109041610D01*
X117585220Y-108859219D01*
X117648477Y-108664534D01*
X117680500Y-108462352D01*
X117680500Y-108257648D01*
X117648477Y-108055466D01*
X117640236Y-108030104D01*
X117585218Y-107860776D01*
X117531013Y-107754394D01*
X117492287Y-107678390D01*
X117467963Y-107644910D01*
X117371971Y-107512786D01*
X117227213Y-107368028D01*
X117061614Y-107247715D01*
X117055006Y-107244348D01*
X116968917Y-107200483D01*
X116918123Y-107152511D01*
X116901328Y-107084690D01*
X116923865Y-107018555D01*
X116968917Y-106979516D01*
X117061610Y-106932287D01*
X117096730Y-106906771D01*
X117227213Y-106811971D01*
X117227215Y-106811968D01*
X117227219Y-106811966D01*
X117371966Y-106667219D01*
X117371968Y-106667215D01*
X117371971Y-106667213D01*
X117424732Y-106594590D01*
X117492287Y-106501610D01*
X117585220Y-106319219D01*
X117648477Y-106124534D01*
X117680500Y-105922352D01*
X117680500Y-105717648D01*
X117672565Y-105667547D01*
X117648477Y-105515465D01*
X117616640Y-105417483D01*
X117585220Y-105320781D01*
X117585218Y-105320778D01*
X117585218Y-105320776D01*
X117542602Y-105237139D01*
X117492287Y-105138390D01*
X117451703Y-105082530D01*
X117371971Y-104972786D01*
X117227213Y-104828028D01*
X117061614Y-104707715D01*
X117055006Y-104704348D01*
X116968917Y-104660483D01*
X116918123Y-104612511D01*
X116901328Y-104544690D01*
X116923865Y-104478555D01*
X116968917Y-104439516D01*
X117061610Y-104392287D01*
X117164921Y-104317228D01*
X117227213Y-104271971D01*
X117227215Y-104271968D01*
X117227219Y-104271966D01*
X117371966Y-104127219D01*
X117371968Y-104127215D01*
X117371971Y-104127213D01*
X117424732Y-104054590D01*
X117492287Y-103961610D01*
X117585220Y-103779219D01*
X117648477Y-103584534D01*
X117680500Y-103382352D01*
X117680500Y-103177648D01*
X117648477Y-102975466D01*
X117585220Y-102780781D01*
X117585218Y-102780778D01*
X117585218Y-102780776D01*
X117538734Y-102689547D01*
X117492287Y-102598390D01*
X117484556Y-102587749D01*
X117371971Y-102432786D01*
X117227213Y-102288028D01*
X117061614Y-102167715D01*
X117023480Y-102148285D01*
X116968917Y-102120483D01*
X116918123Y-102072511D01*
X116901328Y-102004690D01*
X116923865Y-101938555D01*
X116968917Y-101899516D01*
X117061610Y-101852287D01*
X117117357Y-101811785D01*
X117227213Y-101731971D01*
X117227215Y-101731968D01*
X117227219Y-101731966D01*
X117371966Y-101587219D01*
X117371968Y-101587215D01*
X117371971Y-101587213D01*
X117440167Y-101493347D01*
X117492287Y-101421610D01*
X117585220Y-101239219D01*
X117648477Y-101044534D01*
X117680500Y-100842352D01*
X117680500Y-100637648D01*
X117648477Y-100435466D01*
X117648211Y-100434648D01*
X117585218Y-100240776D01*
X117517469Y-100107813D01*
X117492287Y-100058390D01*
X117484556Y-100047749D01*
X117371971Y-99892786D01*
X117227213Y-99748028D01*
X117061611Y-99627713D01*
X116968369Y-99580203D01*
X116917574Y-99532229D01*
X116900779Y-99464407D01*
X116923317Y-99398273D01*
X116968371Y-99359234D01*
X117061346Y-99311861D01*
X117061347Y-99311861D01*
X117105921Y-99279474D01*
X116426447Y-98600000D01*
X116432661Y-98600000D01*
X116534394Y-98572741D01*
X116625606Y-98520080D01*
X116700080Y-98445606D01*
X116752741Y-98354394D01*
X116780000Y-98252661D01*
X116780000Y-98246446D01*
X117459474Y-98925921D01*
X117491859Y-98881349D01*
X117584755Y-98699031D01*
X117647990Y-98504417D01*
X117680000Y-98302317D01*
X117680000Y-98097682D01*
X117672645Y-98051246D01*
X117681599Y-97981953D01*
X117726595Y-97928501D01*
X117793347Y-97907861D01*
X117860661Y-97926586D01*
X117882799Y-97944167D01*
X121261586Y-101322954D01*
X121286095Y-101339329D01*
X121299394Y-101348215D01*
X121384505Y-101405084D01*
X121384506Y-101405084D01*
X121384507Y-101405085D01*
X121521082Y-101461656D01*
X121521087Y-101461658D01*
X121521091Y-101461658D01*
X121521092Y-101461659D01*
X121666079Y-101490500D01*
X121666082Y-101490500D01*
X121666083Y-101490500D01*
X121813917Y-101490500D01*
X122874582Y-101490500D01*
X122941621Y-101510185D01*
X122974900Y-101541615D01*
X123008028Y-101587212D01*
X123008032Y-101587217D01*
X123152786Y-101731971D01*
X123307749Y-101844556D01*
X123318390Y-101852287D01*
X123409840Y-101898883D01*
X123411080Y-101899515D01*
X123461876Y-101947490D01*
X123478671Y-102015311D01*
X123456134Y-102081446D01*
X123411080Y-102120485D01*
X123318386Y-102167715D01*
X123152786Y-102288028D01*
X123008028Y-102432786D01*
X122887715Y-102598385D01*
X122794778Y-102780784D01*
X122784798Y-102811499D01*
X122777812Y-102822897D01*
X122775703Y-102832599D01*
X122754554Y-102860854D01*
X122747683Y-102867725D01*
X122734142Y-102881267D01*
X122734139Y-102881270D01*
X122101270Y-103514139D01*
X122101267Y-103514142D01*
X122069237Y-103546172D01*
X122014142Y-103601266D01*
X121992199Y-103634107D01*
X121992198Y-103634108D01*
X121945690Y-103703709D01*
X121945685Y-103703718D01*
X121898540Y-103817538D01*
X121898538Y-103817545D01*
X121898537Y-103817548D01*
X121898537Y-103817549D01*
X121882801Y-103896666D01*
X121877457Y-103923532D01*
X121877455Y-103923537D01*
X121874500Y-103938389D01*
X121874500Y-106061611D01*
X121898535Y-106182444D01*
X121898540Y-106182461D01*
X121945685Y-106296281D01*
X121945690Y-106296290D01*
X121961012Y-106319220D01*
X121961013Y-106319221D01*
X122014140Y-106398731D01*
X122014141Y-106398732D01*
X122014142Y-106398733D01*
X122101267Y-106485858D01*
X122101268Y-106485858D01*
X122108335Y-106492925D01*
X122108334Y-106492925D01*
X122108338Y-106492928D01*
X122983710Y-107368300D01*
X123017195Y-107429623D01*
X123012211Y-107499315D01*
X122996347Y-107528866D01*
X122887715Y-107678386D01*
X122794781Y-107860776D01*
X122731522Y-108055465D01*
X122699500Y-108257648D01*
X122699500Y-108462351D01*
X122731522Y-108664534D01*
X122794781Y-108859223D01*
X122822851Y-108914312D01*
X122877511Y-109021588D01*
X122887715Y-109041613D01*
X123008028Y-109207213D01*
X123152786Y-109351971D01*
X123265352Y-109433753D01*
X123318390Y-109472287D01*
X123409840Y-109518883D01*
X123411080Y-109519515D01*
X123461876Y-109567490D01*
X123478671Y-109635311D01*
X123456134Y-109701446D01*
X123411080Y-109740485D01*
X123318386Y-109787715D01*
X123152786Y-109908028D01*
X123008028Y-110052786D01*
X122887715Y-110218386D01*
X122794781Y-110400776D01*
X122731522Y-110595465D01*
X122699500Y-110797648D01*
X122699500Y-111002351D01*
X122731522Y-111204534D01*
X122794781Y-111399223D01*
X122858691Y-111524653D01*
X122860567Y-111528334D01*
X122887715Y-111581613D01*
X123008028Y-111747213D01*
X123152786Y-111891971D01*
X123307749Y-112004556D01*
X123318390Y-112012287D01*
X123409840Y-112058883D01*
X123411080Y-112059515D01*
X123461876Y-112107490D01*
X123478671Y-112175311D01*
X123456134Y-112241446D01*
X123411080Y-112280485D01*
X123318386Y-112327715D01*
X123152786Y-112448028D01*
X123008028Y-112592786D01*
X122887715Y-112758386D01*
X122794781Y-112940776D01*
X122731522Y-113135465D01*
X122699500Y-113337648D01*
X122699500Y-113542351D01*
X122731522Y-113744534D01*
X122794781Y-113939223D01*
X122887715Y-114121613D01*
X123008028Y-114287213D01*
X123008034Y-114287219D01*
X123152781Y-114431966D01*
X123318390Y-114552287D01*
X123318394Y-114552289D01*
X123322332Y-114555150D01*
X123321111Y-114556829D01*
X123362155Y-114602177D01*
X123374500Y-114656114D01*
X123374500Y-116703885D01*
X123354815Y-116770924D01*
X123321428Y-116803606D01*
X123322331Y-116804849D01*
X123152786Y-116928028D01*
X123008028Y-117072786D01*
X122887715Y-117238386D01*
X122794781Y-117420776D01*
X122731522Y-117615465D01*
X122699500Y-117817648D01*
X122699500Y-118022351D01*
X122731522Y-118224534D01*
X122794781Y-118419223D01*
X122887715Y-118601613D01*
X123008028Y-118767213D01*
X123152786Y-118911971D01*
X123299174Y-119018326D01*
X123318390Y-119032287D01*
X123434607Y-119091503D01*
X123500776Y-119125218D01*
X123500778Y-119125218D01*
X123500781Y-119125220D01*
X123605137Y-119159127D01*
X123695465Y-119188477D01*
X123796557Y-119204488D01*
X123897648Y-119220500D01*
X123897649Y-119220500D01*
X124102351Y-119220500D01*
X124102352Y-119220500D01*
X124304534Y-119188477D01*
X124499219Y-119125220D01*
X124681610Y-119032287D01*
X124774590Y-118964732D01*
X124847213Y-118911971D01*
X124847215Y-118911968D01*
X124847219Y-118911966D01*
X124991966Y-118767219D01*
X124991968Y-118767215D01*
X124991971Y-118767213D01*
X125077684Y-118649237D01*
X125112287Y-118601610D01*
X125132390Y-118562155D01*
X127705000Y-118562155D01*
X127705000Y-119110000D01*
X128449670Y-119110000D01*
X128429925Y-119129745D01*
X128380556Y-119215255D01*
X128355000Y-119310630D01*
X128355000Y-119409370D01*
X128380556Y-119504745D01*
X128429925Y-119590255D01*
X128449670Y-119610000D01*
X127705000Y-119610000D01*
X127705000Y-120157844D01*
X127711401Y-120217372D01*
X127711403Y-120217379D01*
X127761645Y-120352086D01*
X127761649Y-120352093D01*
X127847809Y-120467187D01*
X127847812Y-120467190D01*
X127962906Y-120553350D01*
X127962913Y-120553354D01*
X128097620Y-120603596D01*
X128097627Y-120603598D01*
X128157155Y-120609999D01*
X128157172Y-120610000D01*
X128480000Y-120610000D01*
X128480000Y-119640330D01*
X128499745Y-119660075D01*
X128585255Y-119709444D01*
X128680630Y-119735000D01*
X128779370Y-119735000D01*
X128874745Y-119709444D01*
X128960255Y-119660075D01*
X128974500Y-119645830D01*
X128974500Y-119686002D01*
X128977617Y-119701671D01*
X128980000Y-119725865D01*
X128980000Y-120610000D01*
X129302828Y-120610000D01*
X129302844Y-120609999D01*
X129362372Y-120603598D01*
X129362376Y-120603597D01*
X129497089Y-120553352D01*
X129497896Y-120552748D01*
X129498845Y-120552393D01*
X129504876Y-120549101D01*
X129505349Y-120549967D01*
X129563360Y-120528329D01*
X129619661Y-120537451D01*
X129700873Y-120571091D01*
X129864288Y-120603596D01*
X129898992Y-120610499D01*
X129898996Y-120610500D01*
X129898997Y-120610500D01*
X130101004Y-120610500D01*
X130101005Y-120610499D01*
X130299127Y-120571091D01*
X130485756Y-120493786D01*
X130566110Y-120440094D01*
X130632786Y-120419217D01*
X130700166Y-120437701D01*
X130703865Y-120440078D01*
X130784244Y-120493786D01*
X130970873Y-120571091D01*
X131134288Y-120603596D01*
X131168992Y-120610499D01*
X131168996Y-120610500D01*
X131168997Y-120610500D01*
X131371004Y-120610500D01*
X131371004Y-120610499D01*
X131466403Y-120591523D01*
X131518613Y-120581139D01*
X131588204Y-120587366D01*
X131630485Y-120615075D01*
X135938530Y-124923120D01*
X135972015Y-124984443D01*
X135968780Y-125049119D01*
X135936447Y-125148630D01*
X135899500Y-125381902D01*
X135899500Y-125618097D01*
X135936446Y-125851368D01*
X136009433Y-126075996D01*
X136047196Y-126150109D01*
X136116657Y-126286433D01*
X136255483Y-126477510D01*
X136422490Y-126644517D01*
X136613567Y-126783343D01*
X136712991Y-126834002D01*
X136824003Y-126890566D01*
X136824005Y-126890566D01*
X136824008Y-126890568D01*
X136944412Y-126929689D01*
X137048631Y-126963553D01*
X137281903Y-127000500D01*
X137281908Y-127000500D01*
X137518097Y-127000500D01*
X137751368Y-126963553D01*
X137975992Y-126890568D01*
X138186433Y-126783343D01*
X138377510Y-126644517D01*
X138544517Y-126477510D01*
X138683343Y-126286433D01*
X138790568Y-126075992D01*
X138863553Y-125851368D01*
X138867283Y-125827816D01*
X138900500Y-125618097D01*
X138900500Y-125381902D01*
X138863553Y-125148631D01*
X138819715Y-125013713D01*
X138790568Y-124924008D01*
X138790566Y-124924005D01*
X138790566Y-124924003D01*
X138683342Y-124713566D01*
X138544517Y-124522490D01*
X138377510Y-124355483D01*
X138186433Y-124216657D01*
X137975996Y-124109433D01*
X137751368Y-124036446D01*
X137518097Y-123999500D01*
X137518092Y-123999500D01*
X137281908Y-123999500D01*
X137281903Y-123999500D01*
X137048630Y-124036447D01*
X136949119Y-124068780D01*
X136879277Y-124070775D01*
X136823120Y-124038530D01*
X132331819Y-119547229D01*
X132298334Y-119485906D01*
X132295500Y-119459548D01*
X132295500Y-119033996D01*
X132295499Y-119033992D01*
X132285754Y-118985000D01*
X132256091Y-118835873D01*
X132178786Y-118649244D01*
X132178784Y-118649241D01*
X132178782Y-118649237D01*
X132066558Y-118481281D01*
X131923366Y-118338089D01*
X131889881Y-118276766D01*
X131894865Y-118207074D01*
X131923364Y-118162729D01*
X135424276Y-114661819D01*
X135485599Y-114628334D01*
X135511957Y-114625500D01*
X137443885Y-114625500D01*
X137510924Y-114645185D01*
X137543606Y-114678571D01*
X137544849Y-114677669D01*
X137668028Y-114847213D01*
X137812786Y-114991971D01*
X137936330Y-115081729D01*
X137978390Y-115112287D01*
X138094607Y-115171503D01*
X138160776Y-115205218D01*
X138160778Y-115205218D01*
X138160781Y-115205220D01*
X138265137Y-115239127D01*
X138355465Y-115268477D01*
X138456557Y-115284488D01*
X138557648Y-115300500D01*
X138557649Y-115300500D01*
X138762351Y-115300500D01*
X138762352Y-115300500D01*
X138964534Y-115268477D01*
X139159219Y-115205220D01*
X139341610Y-115112287D01*
X139441302Y-115039857D01*
X139507213Y-114991971D01*
X139507215Y-114991968D01*
X139507219Y-114991966D01*
X139651966Y-114847219D01*
X139651968Y-114847215D01*
X139651971Y-114847213D01*
X139704732Y-114774590D01*
X139772287Y-114681610D01*
X139865220Y-114499219D01*
X139928477Y-114304534D01*
X139960500Y-114102352D01*
X139960500Y-113897648D01*
X139945818Y-113804949D01*
X139928477Y-113695465D01*
X139899127Y-113605137D01*
X139865220Y-113500781D01*
X139865218Y-113500778D01*
X139865218Y-113500776D01*
X139805947Y-113384452D01*
X139772287Y-113318390D01*
X139756580Y-113296771D01*
X139651971Y-113152786D01*
X139507213Y-113008028D01*
X139341613Y-112887715D01*
X139341612Y-112887714D01*
X139341610Y-112887713D01*
X139284653Y-112858691D01*
X139159223Y-112794781D01*
X138964534Y-112731522D01*
X138789995Y-112703878D01*
X138762352Y-112699500D01*
X138557648Y-112699500D01*
X138533329Y-112703351D01*
X138355465Y-112731522D01*
X138160776Y-112794781D01*
X137978386Y-112887715D01*
X137812786Y-113008028D01*
X137668028Y-113152786D01*
X137544849Y-113322331D01*
X137543176Y-113321115D01*
X137497792Y-113362169D01*
X137443885Y-113374500D01*
X135269245Y-113374500D01*
X135269225Y-113374499D01*
X135263111Y-113374499D01*
X135139898Y-113374499D01*
X135039101Y-113394548D01*
X135039096Y-113394548D01*
X135019053Y-113398536D01*
X135019051Y-113398536D01*
X134971901Y-113418067D01*
X134905223Y-113445685D01*
X134905221Y-113445686D01*
X134802770Y-113514141D01*
X134802767Y-113514144D01*
X130236625Y-118080287D01*
X130175302Y-118113772D01*
X130124755Y-118114224D01*
X130101003Y-118109500D01*
X129898997Y-118109500D01*
X129898992Y-118109500D01*
X129700880Y-118148907D01*
X129700868Y-118148910D01*
X129619661Y-118182547D01*
X129550191Y-118190016D01*
X129505140Y-118170405D01*
X129504872Y-118170897D01*
X129499374Y-118167894D01*
X129497895Y-118167251D01*
X129497086Y-118166645D01*
X129362379Y-118116403D01*
X129362372Y-118116401D01*
X129302844Y-118110000D01*
X128980000Y-118110000D01*
X128980000Y-118994134D01*
X128977617Y-119018326D01*
X128974500Y-119033995D01*
X128974500Y-119074170D01*
X128960255Y-119059925D01*
X128874745Y-119010556D01*
X128779370Y-118985000D01*
X128680630Y-118985000D01*
X128585255Y-119010556D01*
X128499745Y-119059925D01*
X128480000Y-119079670D01*
X128480000Y-118110000D01*
X128157155Y-118110000D01*
X128097627Y-118116401D01*
X128097620Y-118116403D01*
X127962913Y-118166645D01*
X127962906Y-118166649D01*
X127847812Y-118252809D01*
X127847809Y-118252812D01*
X127761649Y-118367906D01*
X127761645Y-118367913D01*
X127711403Y-118502620D01*
X127711401Y-118502627D01*
X127705000Y-118562155D01*
X125132390Y-118562155D01*
X125152224Y-118523228D01*
X125162758Y-118502556D01*
X125174963Y-118478600D01*
X125205220Y-118419219D01*
X125268477Y-118224534D01*
X125300500Y-118022352D01*
X125300500Y-117817648D01*
X125300277Y-117816239D01*
X125268477Y-117615465D01*
X125205218Y-117420776D01*
X125171503Y-117354607D01*
X125112287Y-117238390D01*
X125104556Y-117227749D01*
X124991971Y-117072786D01*
X124847213Y-116928028D01*
X124677669Y-116804849D01*
X124678884Y-116803176D01*
X124637831Y-116757792D01*
X124625500Y-116703885D01*
X124625500Y-114656114D01*
X124645185Y-114589075D01*
X124678575Y-114556398D01*
X124677668Y-114555150D01*
X124681605Y-114552289D01*
X124681610Y-114552287D01*
X124847219Y-114431966D01*
X124991966Y-114287219D01*
X124991968Y-114287215D01*
X124991971Y-114287213D01*
X125044732Y-114214590D01*
X125112287Y-114121610D01*
X125205220Y-113939219D01*
X125268477Y-113744534D01*
X125300500Y-113542352D01*
X125300500Y-113384452D01*
X125320185Y-113317413D01*
X125372989Y-113271658D01*
X125442147Y-113261714D01*
X125505703Y-113290739D01*
X125512181Y-113296771D01*
X126614139Y-114398729D01*
X126614142Y-114398733D01*
X126701267Y-114485858D01*
X126752490Y-114520084D01*
X126803714Y-114554312D01*
X126803715Y-114554312D01*
X126803716Y-114554313D01*
X126877390Y-114584829D01*
X126877394Y-114584830D01*
X126884207Y-114587652D01*
X126917548Y-114601463D01*
X126977971Y-114613481D01*
X127038393Y-114625500D01*
X127038394Y-114625500D01*
X127283885Y-114625500D01*
X127350924Y-114645185D01*
X127383606Y-114678571D01*
X127384849Y-114677669D01*
X127508028Y-114847213D01*
X127652786Y-114991971D01*
X127776330Y-115081729D01*
X127818390Y-115112287D01*
X127934607Y-115171503D01*
X128000776Y-115205218D01*
X128000778Y-115205218D01*
X128000781Y-115205220D01*
X128105137Y-115239127D01*
X128195465Y-115268477D01*
X128296557Y-115284488D01*
X128397648Y-115300500D01*
X128397649Y-115300500D01*
X128602351Y-115300500D01*
X128602352Y-115300500D01*
X128804534Y-115268477D01*
X128999219Y-115205220D01*
X129181610Y-115112287D01*
X129281302Y-115039857D01*
X129347213Y-114991971D01*
X129347215Y-114991968D01*
X129347219Y-114991966D01*
X129491966Y-114847219D01*
X129491968Y-114847215D01*
X129491971Y-114847213D01*
X129544732Y-114774590D01*
X129612287Y-114681610D01*
X129705220Y-114499219D01*
X129768477Y-114304534D01*
X129800500Y-114102352D01*
X129800500Y-113897648D01*
X129785818Y-113804949D01*
X129768477Y-113695465D01*
X129739127Y-113605137D01*
X129705220Y-113500781D01*
X129705218Y-113500778D01*
X129705218Y-113500776D01*
X129645947Y-113384452D01*
X129612287Y-113318390D01*
X129596580Y-113296771D01*
X129491971Y-113152786D01*
X129347213Y-113008028D01*
X129181613Y-112887715D01*
X129181612Y-112887714D01*
X129181610Y-112887713D01*
X129124653Y-112858691D01*
X128999223Y-112794781D01*
X128804534Y-112731522D01*
X128629995Y-112703878D01*
X128602352Y-112699500D01*
X128397648Y-112699500D01*
X128373329Y-112703351D01*
X128195465Y-112731522D01*
X128000776Y-112794781D01*
X127818386Y-112887715D01*
X127652786Y-113008028D01*
X127508032Y-113152782D01*
X127437393Y-113250009D01*
X127382063Y-113292674D01*
X127312449Y-113298653D01*
X127250655Y-113266047D01*
X127249394Y-113264804D01*
X125302218Y-111317628D01*
X125268733Y-111256305D01*
X125269241Y-111209588D01*
X125267715Y-111209347D01*
X125300500Y-111002351D01*
X125300500Y-110797648D01*
X125268477Y-110595465D01*
X125205218Y-110400776D01*
X125160161Y-110312348D01*
X125112287Y-110218390D01*
X125096196Y-110196243D01*
X124991971Y-110052786D01*
X124847213Y-109908028D01*
X124681614Y-109787715D01*
X124654133Y-109773713D01*
X124588917Y-109740483D01*
X124538123Y-109692511D01*
X124521328Y-109624690D01*
X124543865Y-109558555D01*
X124588917Y-109519516D01*
X124681610Y-109472287D01*
X124734703Y-109433713D01*
X124847213Y-109351971D01*
X124847215Y-109351968D01*
X124847219Y-109351966D01*
X124991966Y-109207219D01*
X124991968Y-109207215D01*
X124991971Y-109207213D01*
X125115151Y-109037669D01*
X125116823Y-109038884D01*
X125162208Y-108997831D01*
X125216115Y-108985500D01*
X142549498Y-108985500D01*
X142616537Y-109005185D01*
X142662292Y-109057989D01*
X142672236Y-109127147D01*
X142667431Y-109147806D01*
X142642754Y-109223757D01*
X142642753Y-109223760D01*
X142642753Y-109223762D01*
X142609500Y-109433713D01*
X142609500Y-109646286D01*
X142642735Y-109856127D01*
X142642754Y-109856243D01*
X142706613Y-110052781D01*
X142708444Y-110058414D01*
X142804951Y-110247820D01*
X142929890Y-110419786D01*
X143080213Y-110570109D01*
X143252179Y-110695048D01*
X143252181Y-110695049D01*
X143252184Y-110695051D01*
X143441588Y-110791557D01*
X143643757Y-110857246D01*
X143853713Y-110890500D01*
X143853714Y-110890500D01*
X144066286Y-110890500D01*
X144066287Y-110890500D01*
X144276243Y-110857246D01*
X144478412Y-110791557D01*
X144667816Y-110695051D01*
X144722572Y-110655269D01*
X144839786Y-110570109D01*
X144839788Y-110570106D01*
X144839792Y-110570104D01*
X144990104Y-110419792D01*
X144990106Y-110419788D01*
X144990109Y-110419786D01*
X145075890Y-110301717D01*
X145115051Y-110247816D01*
X145119793Y-110238508D01*
X145167763Y-110187711D01*
X145235583Y-110170911D01*
X145301719Y-110193445D01*
X145340763Y-110238500D01*
X145345373Y-110247547D01*
X145384728Y-110301716D01*
X146017037Y-109669408D01*
X146034075Y-109732993D01*
X146099901Y-109847007D01*
X146192993Y-109940099D01*
X146307007Y-110005925D01*
X146370590Y-110022962D01*
X145738282Y-110655269D01*
X145738282Y-110655270D01*
X145792449Y-110694624D01*
X145981782Y-110791095D01*
X146183870Y-110856757D01*
X146393754Y-110890000D01*
X146606246Y-110890000D01*
X146816127Y-110856757D01*
X146816130Y-110856757D01*
X147018217Y-110791095D01*
X147207554Y-110694622D01*
X147261716Y-110655270D01*
X147261717Y-110655270D01*
X146629408Y-110022962D01*
X146692993Y-110005925D01*
X146807007Y-109940099D01*
X146900099Y-109847007D01*
X146965925Y-109732993D01*
X146982962Y-109669408D01*
X147615270Y-110301717D01*
X147615270Y-110301716D01*
X147654622Y-110247554D01*
X147751095Y-110058217D01*
X147816757Y-109856130D01*
X147816757Y-109856127D01*
X147850000Y-109646246D01*
X147850000Y-109433753D01*
X147816757Y-109223872D01*
X147816757Y-109223869D01*
X147751095Y-109021782D01*
X147654624Y-108832449D01*
X147615270Y-108778282D01*
X147615269Y-108778282D01*
X146982962Y-109410590D01*
X146965925Y-109347007D01*
X146900099Y-109232993D01*
X146807007Y-109139901D01*
X146692993Y-109074075D01*
X146629408Y-109057037D01*
X147261716Y-108424728D01*
X147207547Y-108385373D01*
X147207547Y-108385372D01*
X147198500Y-108380763D01*
X147147706Y-108332788D01*
X147130912Y-108264966D01*
X147153451Y-108198832D01*
X147198508Y-108159793D01*
X147207816Y-108155051D01*
X147336905Y-108061263D01*
X147379786Y-108030109D01*
X147379788Y-108030106D01*
X147379792Y-108030104D01*
X147530104Y-107879792D01*
X147530106Y-107879788D01*
X147530109Y-107879786D01*
X147655048Y-107707820D01*
X147655047Y-107707820D01*
X147655051Y-107707816D01*
X147751557Y-107518412D01*
X147817246Y-107316243D01*
X147850500Y-107106287D01*
X147850500Y-106994452D01*
X147870185Y-106927413D01*
X147922989Y-106881658D01*
X147992147Y-106871714D01*
X148055703Y-106900739D01*
X148062181Y-106906771D01*
X149838181Y-108682771D01*
X149871666Y-108744094D01*
X149874500Y-108770452D01*
X149874500Y-119689547D01*
X149854815Y-119756586D01*
X149838181Y-119777228D01*
X145652227Y-123963181D01*
X145590904Y-123996666D01*
X145564546Y-123999500D01*
X143952129Y-123999500D01*
X143952123Y-123999501D01*
X143892516Y-124005908D01*
X143757671Y-124056202D01*
X143757664Y-124056206D01*
X143642455Y-124142452D01*
X143642452Y-124142455D01*
X143556206Y-124257664D01*
X143556202Y-124257671D01*
X143505908Y-124392517D01*
X143499501Y-124452116D01*
X143499500Y-124452135D01*
X143499500Y-126547870D01*
X143499501Y-126547876D01*
X143505908Y-126607483D01*
X143556202Y-126742328D01*
X143556206Y-126742335D01*
X143642452Y-126857544D01*
X143642455Y-126857547D01*
X143757664Y-126943793D01*
X143757671Y-126943797D01*
X143892517Y-126994091D01*
X143892516Y-126994091D01*
X143899444Y-126994835D01*
X143952127Y-127000500D01*
X146047872Y-127000499D01*
X146107483Y-126994091D01*
X146242331Y-126943796D01*
X146357546Y-126857546D01*
X146443796Y-126742331D01*
X146494091Y-126607483D01*
X146500500Y-126547873D01*
X146500499Y-124935450D01*
X146520184Y-124868412D01*
X146536813Y-124847775D01*
X150985858Y-120398733D01*
X151054312Y-120296285D01*
X151101463Y-120182451D01*
X151125501Y-120061606D01*
X151125501Y-119938393D01*
X151125501Y-119933283D01*
X151125500Y-119933257D01*
X151125500Y-108398393D01*
X151125499Y-108398389D01*
X151120397Y-108372741D01*
X151101463Y-108277548D01*
X151054311Y-108163714D01*
X151054310Y-108163713D01*
X151054307Y-108163707D01*
X150985858Y-108061267D01*
X150985855Y-108061263D01*
X150895637Y-107971045D01*
X150895606Y-107971016D01*
X147842428Y-104917838D01*
X147808943Y-104856515D01*
X147812177Y-104791841D01*
X147817246Y-104776243D01*
X147850500Y-104566287D01*
X147850500Y-104353713D01*
X147817246Y-104143757D01*
X147751557Y-103941588D01*
X147655051Y-103752184D01*
X147655049Y-103752181D01*
X147655048Y-103752179D01*
X147530109Y-103580213D01*
X147379786Y-103429890D01*
X147207820Y-103304951D01*
X147018414Y-103208444D01*
X147018413Y-103208443D01*
X147018412Y-103208443D01*
X146816243Y-103142754D01*
X146816241Y-103142753D01*
X146816240Y-103142753D01*
X146654957Y-103117208D01*
X146606287Y-103109500D01*
X146393713Y-103109500D01*
X146393708Y-103109500D01*
X146298270Y-103124616D01*
X146228977Y-103115662D01*
X146191191Y-103089824D01*
X143258421Y-100157052D01*
X143258414Y-100157046D01*
X143184729Y-100107812D01*
X143184729Y-100107813D01*
X143135491Y-100074913D01*
X142998917Y-100018343D01*
X142998907Y-100018340D01*
X142853920Y-99989500D01*
X142853918Y-99989500D01*
X125125418Y-99989500D01*
X125058379Y-99969815D01*
X125025100Y-99938385D01*
X124991971Y-99892787D01*
X124991967Y-99892782D01*
X124847213Y-99748028D01*
X124681614Y-99627715D01*
X124645957Y-99609547D01*
X124588917Y-99580483D01*
X124538123Y-99532511D01*
X124521328Y-99464690D01*
X124543865Y-99398555D01*
X124588917Y-99359516D01*
X124681610Y-99312287D01*
X124754055Y-99259653D01*
X124847213Y-99191971D01*
X124847215Y-99191968D01*
X124847219Y-99191966D01*
X124991966Y-99047219D01*
X124991968Y-99047215D01*
X124991971Y-99047213D01*
X125079172Y-98927189D01*
X125112287Y-98881610D01*
X125205220Y-98699219D01*
X125205219Y-98699219D01*
X125207432Y-98694878D01*
X125209128Y-98695742D01*
X125247891Y-98647643D01*
X125314185Y-98625579D01*
X125318610Y-98625500D01*
X126283885Y-98625500D01*
X126350924Y-98645185D01*
X126383606Y-98678571D01*
X126384849Y-98677669D01*
X126508028Y-98847213D01*
X126652786Y-98991971D01*
X126803914Y-99101770D01*
X126818390Y-99112287D01*
X126934607Y-99171503D01*
X127000776Y-99205218D01*
X127000778Y-99205218D01*
X127000781Y-99205220D01*
X127096045Y-99236173D01*
X127195465Y-99268477D01*
X127264897Y-99279474D01*
X127397648Y-99300500D01*
X127397649Y-99300500D01*
X127602351Y-99300500D01*
X127602352Y-99300500D01*
X127804534Y-99268477D01*
X127999219Y-99205220D01*
X128181610Y-99112287D01*
X128274590Y-99044732D01*
X128347213Y-98991971D01*
X128347215Y-98991968D01*
X128347219Y-98991966D01*
X128491966Y-98847219D01*
X128491968Y-98847215D01*
X128491971Y-98847213D01*
X128555258Y-98760104D01*
X128612287Y-98681610D01*
X128705220Y-98499219D01*
X128768477Y-98304534D01*
X128800500Y-98102352D01*
X128800500Y-97897682D01*
X131200000Y-97897682D01*
X131200000Y-98102317D01*
X131232009Y-98304417D01*
X131295244Y-98499031D01*
X131388141Y-98681350D01*
X131388147Y-98681359D01*
X131420523Y-98725921D01*
X131420524Y-98725922D01*
X132100000Y-98046446D01*
X132100000Y-98052661D01*
X132127259Y-98154394D01*
X132179920Y-98245606D01*
X132254394Y-98320080D01*
X132345606Y-98372741D01*
X132447339Y-98400000D01*
X132453553Y-98400000D01*
X131774076Y-99079474D01*
X131818650Y-99111859D01*
X132000968Y-99204755D01*
X132195582Y-99267990D01*
X132397683Y-99300000D01*
X132602317Y-99300000D01*
X132804417Y-99267990D01*
X132999031Y-99204755D01*
X133181349Y-99111859D01*
X133225921Y-99079474D01*
X132546447Y-98400000D01*
X132552661Y-98400000D01*
X132654394Y-98372741D01*
X132745606Y-98320080D01*
X132820080Y-98245606D01*
X132872741Y-98154394D01*
X132900000Y-98052661D01*
X132900000Y-98046447D01*
X133579474Y-98725921D01*
X133611859Y-98681349D01*
X133704755Y-98499031D01*
X133767990Y-98304417D01*
X133800000Y-98102317D01*
X133800000Y-97897682D01*
X133767990Y-97695582D01*
X133704755Y-97500968D01*
X133611859Y-97318650D01*
X133579474Y-97274077D01*
X133579474Y-97274076D01*
X132900000Y-97953551D01*
X132900000Y-97947339D01*
X132872741Y-97845606D01*
X132820080Y-97754394D01*
X132745606Y-97679920D01*
X132654394Y-97627259D01*
X132552661Y-97600000D01*
X132546446Y-97600000D01*
X133225922Y-96920524D01*
X133225921Y-96920523D01*
X133181359Y-96888147D01*
X133181350Y-96888141D01*
X132999031Y-96795244D01*
X132804417Y-96732009D01*
X132602317Y-96700000D01*
X132397683Y-96700000D01*
X132195582Y-96732009D01*
X132000968Y-96795244D01*
X131818644Y-96888143D01*
X131774077Y-96920523D01*
X131774077Y-96920524D01*
X132453554Y-97600000D01*
X132447339Y-97600000D01*
X132345606Y-97627259D01*
X132254394Y-97679920D01*
X132179920Y-97754394D01*
X132127259Y-97845606D01*
X132100000Y-97947339D01*
X132100000Y-97953553D01*
X131420524Y-97274077D01*
X131420523Y-97274077D01*
X131388143Y-97318644D01*
X131295244Y-97500968D01*
X131232009Y-97695582D01*
X131200000Y-97897682D01*
X128800500Y-97897682D01*
X128800500Y-97897648D01*
X128785034Y-97800000D01*
X128768477Y-97695465D01*
X128729381Y-97575141D01*
X128705220Y-97500781D01*
X128705218Y-97500778D01*
X128705218Y-97500776D01*
X128671503Y-97434607D01*
X128612287Y-97318390D01*
X128580092Y-97274077D01*
X128491971Y-97152786D01*
X128347213Y-97008028D01*
X128181613Y-96887715D01*
X128181612Y-96887714D01*
X128181610Y-96887713D01*
X128108012Y-96850213D01*
X127999223Y-96794781D01*
X127804534Y-96731522D01*
X127628509Y-96703643D01*
X127602352Y-96699500D01*
X127397648Y-96699500D01*
X127373329Y-96703351D01*
X127195465Y-96731522D01*
X127000776Y-96794781D01*
X126818386Y-96887715D01*
X126652786Y-97008028D01*
X126508028Y-97152786D01*
X126384849Y-97322331D01*
X126383176Y-97321115D01*
X126337792Y-97362169D01*
X126283885Y-97374500D01*
X125065047Y-97374500D01*
X124998008Y-97354815D01*
X124977366Y-97338181D01*
X124847213Y-97208028D01*
X124681611Y-97087713D01*
X124588369Y-97040203D01*
X124537574Y-96992229D01*
X124520779Y-96924407D01*
X124543317Y-96858273D01*
X124588371Y-96819234D01*
X124681346Y-96771861D01*
X124681347Y-96771861D01*
X124725921Y-96739474D01*
X124046447Y-96060000D01*
X124052661Y-96060000D01*
X124154394Y-96032741D01*
X124245606Y-95980080D01*
X124320080Y-95905606D01*
X124372741Y-95814394D01*
X124400000Y-95712661D01*
X124400000Y-95706448D01*
X125079474Y-96385922D01*
X125079474Y-96385921D01*
X125111859Y-96341349D01*
X125204755Y-96159031D01*
X125267990Y-95964417D01*
X125300000Y-95762317D01*
X125300000Y-95557682D01*
X125267990Y-95355582D01*
X125204755Y-95160968D01*
X125111859Y-94978650D01*
X125079474Y-94934077D01*
X125079474Y-94934076D01*
X124400000Y-95613551D01*
X124400000Y-95607339D01*
X124372741Y-95505606D01*
X124320080Y-95414394D01*
X124245606Y-95339920D01*
X124154394Y-95287259D01*
X124052661Y-95260000D01*
X124046446Y-95260000D01*
X124725922Y-94580524D01*
X124725921Y-94580523D01*
X124681359Y-94548147D01*
X124681350Y-94548141D01*
X124588369Y-94500765D01*
X124537573Y-94452790D01*
X124520778Y-94384969D01*
X124543315Y-94318835D01*
X124588370Y-94279795D01*
X124588920Y-94279515D01*
X124681610Y-94232287D01*
X124747384Y-94184500D01*
X124847213Y-94111971D01*
X124847215Y-94111968D01*
X124847219Y-94111966D01*
X124991966Y-93967219D01*
X124991968Y-93967215D01*
X124991971Y-93967213D01*
X125115151Y-93797669D01*
X125116823Y-93798884D01*
X125162208Y-93757831D01*
X125216115Y-93745500D01*
X145025501Y-93745500D01*
X145092540Y-93765185D01*
X145138295Y-93817989D01*
X145149501Y-93869500D01*
X145149501Y-93897876D01*
X145155908Y-93957483D01*
X145206202Y-94092328D01*
X145206206Y-94092335D01*
X145292452Y-94207544D01*
X145292455Y-94207547D01*
X145407664Y-94293793D01*
X145407671Y-94293797D01*
X145542517Y-94344091D01*
X145542516Y-94344091D01*
X145549444Y-94344835D01*
X145602127Y-94350500D01*
X147397872Y-94350499D01*
X147457483Y-94344091D01*
X147592331Y-94293796D01*
X147707546Y-94207546D01*
X147793796Y-94092331D01*
X147844091Y-93957483D01*
X147850500Y-93897873D01*
X147850499Y-92102128D01*
X147844091Y-92042517D01*
X147827943Y-91999223D01*
X147793797Y-91907671D01*
X147793793Y-91907664D01*
X147707547Y-91792455D01*
X147707544Y-91792452D01*
X147592335Y-91706206D01*
X147592328Y-91706202D01*
X147460917Y-91657189D01*
X147404983Y-91615318D01*
X147380566Y-91549853D01*
X147395418Y-91481580D01*
X147416563Y-91453332D01*
X147530104Y-91339792D01*
X147590535Y-91256616D01*
X147655048Y-91167820D01*
X147655047Y-91167820D01*
X147655051Y-91167816D01*
X147751557Y-90978412D01*
X147817246Y-90776243D01*
X147850500Y-90566287D01*
X147850500Y-90353713D01*
X147817246Y-90143757D01*
X147751557Y-89941588D01*
X147655051Y-89752184D01*
X147655049Y-89752181D01*
X147655048Y-89752179D01*
X147530109Y-89580213D01*
X147379786Y-89429890D01*
X147207818Y-89304950D01*
X147207308Y-89304690D01*
X147199054Y-89300485D01*
X147148259Y-89252512D01*
X147131463Y-89184692D01*
X147153999Y-89118556D01*
X147199054Y-89079515D01*
X147207816Y-89075051D01*
X147294789Y-89011862D01*
X147379786Y-88950109D01*
X147379788Y-88950106D01*
X147379792Y-88950104D01*
X147530104Y-88799792D01*
X147530106Y-88799788D01*
X147530109Y-88799786D01*
X147655048Y-88627820D01*
X147655047Y-88627820D01*
X147655051Y-88627816D01*
X147751557Y-88438412D01*
X147817246Y-88236243D01*
X147850500Y-88026287D01*
X147850500Y-87813713D01*
X147817246Y-87603757D01*
X147751557Y-87401588D01*
X147655051Y-87212184D01*
X147655049Y-87212181D01*
X147655048Y-87212179D01*
X147530109Y-87040213D01*
X147379786Y-86889890D01*
X147207820Y-86764951D01*
X147207115Y-86764591D01*
X147199054Y-86760485D01*
X147148259Y-86712512D01*
X147131463Y-86644692D01*
X147153999Y-86578556D01*
X147199054Y-86539515D01*
X147207816Y-86535051D01*
X147294789Y-86471862D01*
X147379786Y-86410109D01*
X147379788Y-86410106D01*
X147379792Y-86410104D01*
X147530104Y-86259792D01*
X147530106Y-86259788D01*
X147530109Y-86259786D01*
X147655048Y-86087820D01*
X147655047Y-86087820D01*
X147655051Y-86087816D01*
X147751557Y-85898412D01*
X147817246Y-85696243D01*
X147850500Y-85486287D01*
X147850500Y-85273713D01*
X147817246Y-85063757D01*
X147751557Y-84861588D01*
X147655051Y-84672184D01*
X147655049Y-84672181D01*
X147655048Y-84672179D01*
X147530109Y-84500213D01*
X147379786Y-84349890D01*
X147207820Y-84224951D01*
X147207115Y-84224591D01*
X147199054Y-84220485D01*
X147148259Y-84172512D01*
X147131463Y-84104692D01*
X147153999Y-84038556D01*
X147199054Y-83999515D01*
X147207816Y-83995051D01*
X147267118Y-83951966D01*
X147379786Y-83870109D01*
X147379788Y-83870106D01*
X147379792Y-83870104D01*
X147530104Y-83719792D01*
X147530106Y-83719788D01*
X147530109Y-83719786D01*
X147655048Y-83547820D01*
X147655047Y-83547820D01*
X147655051Y-83547816D01*
X147751557Y-83358412D01*
X147817246Y-83156243D01*
X147850500Y-82946287D01*
X147850500Y-82733713D01*
X147817246Y-82523757D01*
X147751557Y-82321588D01*
X147655051Y-82132184D01*
X147655049Y-82132181D01*
X147655048Y-82132179D01*
X147530109Y-81960213D01*
X147379786Y-81809890D01*
X147207820Y-81684951D01*
X147207115Y-81684591D01*
X147199054Y-81680485D01*
X147148259Y-81632512D01*
X147131463Y-81564692D01*
X147153999Y-81498556D01*
X147199054Y-81459515D01*
X147207816Y-81455051D01*
X147373121Y-81334951D01*
X147379786Y-81330109D01*
X147379788Y-81330106D01*
X147379792Y-81330104D01*
X147530104Y-81179792D01*
X147530106Y-81179788D01*
X147530109Y-81179786D01*
X147655048Y-81007820D01*
X147655047Y-81007820D01*
X147655051Y-81007816D01*
X147751557Y-80818412D01*
X147817246Y-80616243D01*
X147850500Y-80406287D01*
X147850500Y-80193713D01*
X147817246Y-79983757D01*
X147751557Y-79781588D01*
X147655051Y-79592184D01*
X147655049Y-79592181D01*
X147655048Y-79592179D01*
X147530109Y-79420213D01*
X147379786Y-79269890D01*
X147207820Y-79144951D01*
X147018414Y-79048444D01*
X147018413Y-79048443D01*
X147018412Y-79048443D01*
X146816243Y-78982754D01*
X146816241Y-78982753D01*
X146816240Y-78982753D01*
X146654957Y-78957208D01*
X146606287Y-78949500D01*
X146393713Y-78949500D01*
X146345042Y-78957208D01*
X146183760Y-78982753D01*
X145981585Y-79048444D01*
X145792179Y-79144951D01*
X145620213Y-79269890D01*
X145469890Y-79420213D01*
X145344949Y-79592182D01*
X145276362Y-79726794D01*
X145228388Y-79777591D01*
X145165877Y-79794500D01*
X125216115Y-79794500D01*
X125149076Y-79774815D01*
X125116393Y-79741428D01*
X125115151Y-79742331D01*
X124991971Y-79572786D01*
X124847213Y-79428028D01*
X124681613Y-79307715D01*
X124681612Y-79307714D01*
X124681610Y-79307713D01*
X124607390Y-79269896D01*
X124499223Y-79214781D01*
X124304534Y-79151522D01*
X124129995Y-79123878D01*
X124102352Y-79119500D01*
X123897648Y-79119500D01*
X123873329Y-79123351D01*
X123695465Y-79151522D01*
X123500776Y-79214781D01*
X123318386Y-79307715D01*
X123152786Y-79428028D01*
X123008028Y-79572786D01*
X122887715Y-79738386D01*
X122794781Y-79920776D01*
X122731522Y-80115465D01*
X122699500Y-80317648D01*
X122699500Y-80522351D01*
X122731522Y-80724534D01*
X122794781Y-80919223D01*
X122846135Y-81020009D01*
X122885168Y-81096616D01*
X122887715Y-81101613D01*
X123008028Y-81267213D01*
X123152786Y-81411971D01*
X123284261Y-81507491D01*
X123318390Y-81532287D01*
X123392406Y-81570000D01*
X123411080Y-81579515D01*
X123461876Y-81627490D01*
X123478671Y-81695311D01*
X123456134Y-81761446D01*
X123411080Y-81800485D01*
X123318386Y-81847715D01*
X123152786Y-81968028D01*
X123008028Y-82112786D01*
X122887715Y-82278386D01*
X122794781Y-82460776D01*
X122731522Y-82655465D01*
X122699500Y-82857648D01*
X122699500Y-83062351D01*
X122731522Y-83264534D01*
X122794781Y-83459223D01*
X122858691Y-83584653D01*
X122885168Y-83636616D01*
X122887715Y-83641613D01*
X123008028Y-83807213D01*
X123152786Y-83951971D01*
X123284261Y-84047491D01*
X123318390Y-84072287D01*
X123392406Y-84110000D01*
X123411080Y-84119515D01*
X123461876Y-84167490D01*
X123478671Y-84235311D01*
X123456134Y-84301446D01*
X123411080Y-84340485D01*
X123318386Y-84387715D01*
X123152786Y-84508028D01*
X123008028Y-84652786D01*
X122887715Y-84818386D01*
X122794781Y-85000776D01*
X122731522Y-85195465D01*
X122699500Y-85397648D01*
X122699500Y-85602351D01*
X122731522Y-85804534D01*
X122794781Y-85999223D01*
X122858691Y-86124653D01*
X122885168Y-86176616D01*
X122887715Y-86181613D01*
X123008028Y-86347213D01*
X123152786Y-86491971D01*
X123307749Y-86604556D01*
X123318390Y-86612287D01*
X123392406Y-86650000D01*
X123411080Y-86659515D01*
X123461876Y-86707490D01*
X123478671Y-86775311D01*
X123456134Y-86841446D01*
X123411080Y-86880485D01*
X123318386Y-86927715D01*
X123152786Y-87048028D01*
X123008028Y-87192786D01*
X122887715Y-87358386D01*
X122794781Y-87540776D01*
X122731522Y-87735465D01*
X122699500Y-87937648D01*
X122699500Y-88142351D01*
X122731522Y-88344534D01*
X122794781Y-88539223D01*
X122858691Y-88664653D01*
X122885168Y-88716616D01*
X122887715Y-88721613D01*
X123008028Y-88887213D01*
X123152786Y-89031971D01*
X123275906Y-89121421D01*
X123318390Y-89152287D01*
X123392406Y-89190000D01*
X123411080Y-89199515D01*
X123461876Y-89247490D01*
X123478671Y-89315311D01*
X123456134Y-89381446D01*
X123411080Y-89420485D01*
X123318386Y-89467715D01*
X123152786Y-89588028D01*
X123008028Y-89732786D01*
X122887715Y-89898386D01*
X122794781Y-90080776D01*
X122731522Y-90275465D01*
X122699500Y-90477648D01*
X122699500Y-90682351D01*
X122731522Y-90884534D01*
X122794781Y-91079223D01*
X122846090Y-91179920D01*
X122885168Y-91256616D01*
X122887715Y-91261613D01*
X123008028Y-91427213D01*
X123152786Y-91571971D01*
X123304852Y-91682451D01*
X123318390Y-91692287D01*
X123409840Y-91738883D01*
X123411080Y-91739515D01*
X123461876Y-91787490D01*
X123478671Y-91855311D01*
X123456134Y-91921446D01*
X123411080Y-91960485D01*
X123318386Y-92007715D01*
X123152786Y-92128028D01*
X123008028Y-92272786D01*
X122887715Y-92438386D01*
X122794781Y-92620776D01*
X122731522Y-92815465D01*
X122699500Y-93017648D01*
X122699500Y-93222351D01*
X122731522Y-93424534D01*
X122794781Y-93619223D01*
X122825805Y-93680109D01*
X122883106Y-93792569D01*
X122887715Y-93801613D01*
X123008028Y-93967213D01*
X123152786Y-94111971D01*
X123318385Y-94232284D01*
X123318387Y-94232285D01*
X123318390Y-94232287D01*
X123411080Y-94279515D01*
X123411630Y-94279795D01*
X123462426Y-94327770D01*
X123479221Y-94395591D01*
X123456684Y-94461725D01*
X123411630Y-94500765D01*
X123318644Y-94548143D01*
X123274077Y-94580523D01*
X123274077Y-94580524D01*
X123953554Y-95260000D01*
X123947339Y-95260000D01*
X123845606Y-95287259D01*
X123754394Y-95339920D01*
X123679920Y-95414394D01*
X123627259Y-95505606D01*
X123600000Y-95607339D01*
X123600000Y-95613553D01*
X122920524Y-94934077D01*
X122920523Y-94934077D01*
X122888143Y-94978644D01*
X122795244Y-95160968D01*
X122732009Y-95355582D01*
X122700000Y-95557682D01*
X122700000Y-95762317D01*
X122732009Y-95964417D01*
X122795244Y-96159031D01*
X122888141Y-96341350D01*
X122888147Y-96341359D01*
X122920523Y-96385921D01*
X122920524Y-96385922D01*
X123600000Y-95706446D01*
X123600000Y-95712661D01*
X123627259Y-95814394D01*
X123679920Y-95905606D01*
X123754394Y-95980080D01*
X123845606Y-96032741D01*
X123947339Y-96060000D01*
X123953553Y-96060000D01*
X123274076Y-96739474D01*
X123318652Y-96771861D01*
X123411628Y-96819234D01*
X123462425Y-96867208D01*
X123479220Y-96935029D01*
X123456683Y-97001164D01*
X123411630Y-97040203D01*
X123318388Y-97087713D01*
X123152786Y-97208028D01*
X123008028Y-97352786D01*
X122887715Y-97518386D01*
X122794781Y-97700776D01*
X122731522Y-97895465D01*
X122699500Y-98097648D01*
X122699500Y-98302351D01*
X122731522Y-98504534D01*
X122794781Y-98699223D01*
X122858691Y-98824653D01*
X122887585Y-98881359D01*
X122887715Y-98881613D01*
X123008028Y-99047213D01*
X123152786Y-99191971D01*
X123258090Y-99268477D01*
X123318390Y-99312287D01*
X123409840Y-99358883D01*
X123411080Y-99359515D01*
X123461876Y-99407490D01*
X123478671Y-99475311D01*
X123456134Y-99541446D01*
X123411080Y-99580485D01*
X123318386Y-99627715D01*
X123152786Y-99748028D01*
X123008032Y-99892782D01*
X123008028Y-99892787D01*
X122974900Y-99938385D01*
X122919571Y-99981051D01*
X122874582Y-99989500D01*
X122102230Y-99989500D01*
X122035191Y-99969815D01*
X122014549Y-99953181D01*
X117716819Y-95655451D01*
X117702115Y-95628523D01*
X117685523Y-95602705D01*
X117684631Y-95596504D01*
X117683334Y-95594128D01*
X117680500Y-95567770D01*
X117680500Y-95557648D01*
X117648477Y-95355465D01*
X117599390Y-95204393D01*
X117585220Y-95160781D01*
X117585218Y-95160778D01*
X117585218Y-95160776D01*
X117545952Y-95083713D01*
X117492287Y-94978390D01*
X117460092Y-94934077D01*
X117371971Y-94812786D01*
X117227213Y-94668028D01*
X117061614Y-94547715D01*
X117055006Y-94544348D01*
X116968917Y-94500483D01*
X116918123Y-94452511D01*
X116901328Y-94384690D01*
X116923865Y-94318555D01*
X116968917Y-94279516D01*
X117061610Y-94232287D01*
X117127384Y-94184500D01*
X117227213Y-94111971D01*
X117227215Y-94111968D01*
X117227219Y-94111966D01*
X117371966Y-93967219D01*
X117371968Y-93967215D01*
X117371971Y-93967213D01*
X117451687Y-93857491D01*
X117492287Y-93801610D01*
X117585220Y-93619219D01*
X117648477Y-93424534D01*
X117680500Y-93222352D01*
X117680500Y-93017648D01*
X117672358Y-92966243D01*
X117648477Y-92815465D01*
X117585218Y-92620776D01*
X117535173Y-92522559D01*
X117492287Y-92438390D01*
X117484556Y-92427749D01*
X117371971Y-92272786D01*
X117227213Y-92128028D01*
X117061614Y-92007715D01*
X117044947Y-91999223D01*
X116968917Y-91960483D01*
X116918123Y-91912511D01*
X116901328Y-91844690D01*
X116923865Y-91778555D01*
X116968917Y-91739516D01*
X117061610Y-91692287D01*
X117109919Y-91657189D01*
X117227213Y-91571971D01*
X117227215Y-91571968D01*
X117227219Y-91571966D01*
X117371966Y-91427219D01*
X117371968Y-91427215D01*
X117371971Y-91427213D01*
X117477913Y-91281394D01*
X117492287Y-91261610D01*
X117585220Y-91079219D01*
X117648477Y-90884534D01*
X117680500Y-90682352D01*
X117680500Y-90477648D01*
X117672358Y-90426243D01*
X117648477Y-90275465D01*
X117585218Y-90080776D01*
X117535177Y-89982567D01*
X117492287Y-89898390D01*
X117474239Y-89873549D01*
X117371971Y-89732786D01*
X117227213Y-89588028D01*
X117061614Y-89467715D01*
X117055006Y-89464348D01*
X116968917Y-89420483D01*
X116918123Y-89372511D01*
X116901328Y-89304690D01*
X116923865Y-89238555D01*
X116968917Y-89199516D01*
X117061610Y-89152287D01*
X117127384Y-89104500D01*
X117227213Y-89031971D01*
X117227215Y-89031968D01*
X117227219Y-89031966D01*
X117371966Y-88887219D01*
X117371968Y-88887215D01*
X117371971Y-88887213D01*
X117451687Y-88777491D01*
X117492287Y-88721610D01*
X117585220Y-88539219D01*
X117648477Y-88344534D01*
X117680500Y-88142352D01*
X117680500Y-87937648D01*
X117674849Y-87901969D01*
X117648477Y-87735465D01*
X117604589Y-87600393D01*
X117585220Y-87540781D01*
X117585218Y-87540778D01*
X117585218Y-87540776D01*
X117535177Y-87442567D01*
X117492287Y-87358390D01*
X117483862Y-87346794D01*
X117371971Y-87192786D01*
X117227213Y-87048028D01*
X117061614Y-86927715D01*
X117055006Y-86924348D01*
X116968917Y-86880483D01*
X116918123Y-86832511D01*
X116901328Y-86764690D01*
X116923865Y-86698555D01*
X116968917Y-86659516D01*
X117061610Y-86612287D01*
X117127819Y-86564184D01*
X117227213Y-86491971D01*
X117227215Y-86491968D01*
X117227219Y-86491966D01*
X117371966Y-86347219D01*
X117371968Y-86347215D01*
X117371971Y-86347213D01*
X117451687Y-86237491D01*
X117492287Y-86181610D01*
X117585220Y-85999219D01*
X117648477Y-85804534D01*
X117680500Y-85602352D01*
X117680500Y-85397648D01*
X117675438Y-85365686D01*
X117648477Y-85195465D01*
X117585218Y-85000776D01*
X117539809Y-84911658D01*
X117492287Y-84818390D01*
X117483862Y-84806794D01*
X117371971Y-84652786D01*
X117227213Y-84508028D01*
X117061614Y-84387715D01*
X117055006Y-84384348D01*
X116968917Y-84340483D01*
X116918123Y-84292511D01*
X116901328Y-84224690D01*
X116923865Y-84158555D01*
X116968917Y-84119516D01*
X117061610Y-84072287D01*
X117108037Y-84038556D01*
X117227213Y-83951971D01*
X117227215Y-83951968D01*
X117227219Y-83951966D01*
X117371966Y-83807219D01*
X117371968Y-83807215D01*
X117371971Y-83807213D01*
X117451687Y-83697491D01*
X117492287Y-83641610D01*
X117585220Y-83459219D01*
X117648477Y-83264534D01*
X117680500Y-83062352D01*
X117680500Y-82857648D01*
X117672358Y-82806243D01*
X117648477Y-82655465D01*
X117585218Y-82460776D01*
X117545952Y-82383713D01*
X117492287Y-82278390D01*
X117483862Y-82266794D01*
X117371971Y-82112786D01*
X117227219Y-81968034D01*
X117216447Y-81960208D01*
X117133547Y-81899978D01*
X117090882Y-81844649D01*
X117084903Y-81775036D01*
X117117508Y-81713240D01*
X117167426Y-81681955D01*
X117249334Y-81654814D01*
X117398656Y-81562712D01*
X117522712Y-81438656D01*
X117614814Y-81289334D01*
X117669999Y-81122797D01*
X117680500Y-81020009D01*
X117680499Y-79819992D01*
X117669999Y-79717203D01*
X117614814Y-79550666D01*
X117522712Y-79401344D01*
X117398656Y-79277288D01*
X117249334Y-79185186D01*
X117082797Y-79130001D01*
X117082795Y-79130000D01*
X116980010Y-79119500D01*
X115779998Y-79119500D01*
X115779981Y-79119501D01*
X115677203Y-79130000D01*
X115677200Y-79130001D01*
X115510668Y-79185185D01*
X115510663Y-79185187D01*
X115361342Y-79277289D01*
X115237289Y-79401342D01*
X115145187Y-79550663D01*
X115145186Y-79550666D01*
X115090001Y-79717203D01*
X115090001Y-79717204D01*
X115090000Y-79717204D01*
X115079500Y-79819983D01*
X115079500Y-81020001D01*
X115079501Y-81020018D01*
X115090000Y-81122796D01*
X115090001Y-81122799D01*
X115137856Y-81267213D01*
X115145186Y-81289334D01*
X115237288Y-81438656D01*
X115361344Y-81562712D01*
X115510666Y-81654814D01*
X115592570Y-81681954D01*
X115650015Y-81721727D01*
X115676838Y-81786243D01*
X115664523Y-81855018D01*
X115626451Y-81899978D01*
X115532787Y-81968028D01*
X115532782Y-81968032D01*
X115388028Y-82112786D01*
X115267715Y-82278386D01*
X115174781Y-82460776D01*
X115111522Y-82655465D01*
X115079500Y-82857648D01*
X115079500Y-83062351D01*
X115111522Y-83264534D01*
X115174781Y-83459223D01*
X115238691Y-83584653D01*
X115265168Y-83636616D01*
X115267715Y-83641613D01*
X115388028Y-83807213D01*
X115532786Y-83951971D01*
X115664261Y-84047491D01*
X115698390Y-84072287D01*
X115772406Y-84110000D01*
X115791080Y-84119515D01*
X115841876Y-84167490D01*
X115858671Y-84235311D01*
X115836134Y-84301446D01*
X115791080Y-84340485D01*
X115698386Y-84387715D01*
X115532786Y-84508028D01*
X115388028Y-84652786D01*
X115267715Y-84818386D01*
X115174781Y-85000776D01*
X115111522Y-85195465D01*
X115079500Y-85397648D01*
X115079500Y-85602351D01*
X115111522Y-85804534D01*
X115174781Y-85999223D01*
X115238691Y-86124653D01*
X115265168Y-86176616D01*
X115267715Y-86181613D01*
X115388028Y-86347213D01*
X115532786Y-86491971D01*
X115687749Y-86604556D01*
X115698390Y-86612287D01*
X115772406Y-86650000D01*
X115791080Y-86659515D01*
X115841876Y-86707490D01*
X115858671Y-86775311D01*
X115836134Y-86841446D01*
X115791080Y-86880485D01*
X115698386Y-86927715D01*
X115532786Y-87048028D01*
X115388028Y-87192786D01*
X115267715Y-87358386D01*
X115174781Y-87540776D01*
X115111522Y-87735465D01*
X115079500Y-87937648D01*
X115079500Y-88142351D01*
X115111522Y-88344534D01*
X115174781Y-88539223D01*
X115238691Y-88664653D01*
X115265168Y-88716616D01*
X115267715Y-88721613D01*
X115388028Y-88887213D01*
X115532786Y-89031971D01*
X115655906Y-89121421D01*
X115698390Y-89152287D01*
X115772406Y-89190000D01*
X115791080Y-89199515D01*
X115841876Y-89247490D01*
X115858671Y-89315311D01*
X115836134Y-89381446D01*
X115791080Y-89420485D01*
X115698386Y-89467715D01*
X115532786Y-89588028D01*
X115388028Y-89732786D01*
X115267715Y-89898386D01*
X115174781Y-90080776D01*
X115111522Y-90275465D01*
X115081656Y-90464034D01*
X115078774Y-90470113D01*
X115078928Y-90476842D01*
X115063995Y-90501287D01*
X115051727Y-90527169D01*
X115046014Y-90530726D01*
X115042507Y-90536468D01*
X115016733Y-90548958D01*
X114992415Y-90564100D01*
X114985685Y-90564003D01*
X114979631Y-90566938D01*
X114951196Y-90563511D01*
X114922552Y-90563102D01*
X114915306Y-90559185D01*
X114910263Y-90558578D01*
X114894805Y-90548105D01*
X114880144Y-90540181D01*
X114875640Y-90536455D01*
X114847219Y-90508034D01*
X114798468Y-90472614D01*
X114795461Y-90470127D01*
X114778002Y-90444279D01*
X114758949Y-90419571D01*
X114758038Y-90414722D01*
X114756353Y-90412227D01*
X114756184Y-90404849D01*
X114750500Y-90374582D01*
X114750500Y-78874500D01*
X114770185Y-78807461D01*
X114822989Y-78761706D01*
X114874500Y-78750500D01*
X124573920Y-78750500D01*
X124671462Y-78731096D01*
X124718913Y-78721658D01*
X124855495Y-78665084D01*
X124904729Y-78632186D01*
X124978416Y-78582952D01*
X125742952Y-77818416D01*
X125792186Y-77744729D01*
X125825084Y-77695495D01*
X125881658Y-77558913D01*
X125909877Y-77417050D01*
X125910500Y-77413920D01*
X125910500Y-76625416D01*
X125930185Y-76558377D01*
X125961613Y-76525099D01*
X126007219Y-76491966D01*
X126151966Y-76347219D01*
X126151968Y-76347215D01*
X126151971Y-76347213D01*
X126204732Y-76274590D01*
X126272287Y-76181610D01*
X126365220Y-75999219D01*
X126428477Y-75804534D01*
X126460500Y-75602352D01*
X126460500Y-75524361D01*
X126480185Y-75457322D01*
X126496819Y-75436680D01*
X126779463Y-75154036D01*
X126779465Y-75154033D01*
X126786374Y-75143694D01*
X126878013Y-75006547D01*
X126945894Y-74842666D01*
X126949249Y-74825802D01*
X126980499Y-74668695D01*
X126980500Y-74668693D01*
X126980500Y-58502294D01*
X127000185Y-58435255D01*
X127023981Y-58407993D01*
X127026557Y-58405792D01*
X127026566Y-58405786D01*
X127188286Y-58244066D01*
X127322717Y-58059038D01*
X127426548Y-57855258D01*
X127497222Y-57637745D01*
X127533000Y-57411854D01*
X127533000Y-57088146D01*
X127497222Y-56862255D01*
X127497221Y-56862251D01*
X127497221Y-56862250D01*
X127426549Y-56644744D01*
X127380143Y-56553667D01*
X127322717Y-56440962D01*
X127188286Y-56255934D01*
X127026566Y-56094214D01*
X126841538Y-55959783D01*
X126826491Y-55952116D01*
X126637755Y-55855950D01*
X126420248Y-55785278D01*
X126234812Y-55755908D01*
X126194354Y-55749500D01*
X125965646Y-55749500D01*
X125925188Y-55755908D01*
X125739753Y-55785278D01*
X125739750Y-55785278D01*
X125522244Y-55855950D01*
X125318461Y-55959783D01*
X125252550Y-56007671D01*
X125133434Y-56094214D01*
X125133432Y-56094216D01*
X125133431Y-56094216D01*
X124971716Y-56255931D01*
X124971709Y-56255940D01*
X124910007Y-56340864D01*
X124854677Y-56383530D01*
X124785063Y-56389508D01*
X124723269Y-56356901D01*
X124709372Y-56340863D01*
X124647907Y-56256263D01*
X124647902Y-56256257D01*
X124486242Y-56094597D01*
X124301276Y-55960211D01*
X124097568Y-55856417D01*
X123880124Y-55785765D01*
X123790000Y-55771490D01*
X123790000Y-56759252D01*
X123752292Y-56737482D01*
X123612409Y-56700000D01*
X123467591Y-56700000D01*
X123327708Y-56737482D01*
X123290000Y-56759252D01*
X123290000Y-55771490D01*
X123289999Y-55771490D01*
X123199875Y-55785765D01*
X122982431Y-55856417D01*
X122778719Y-55960213D01*
X122595939Y-56093010D01*
X122530132Y-56116490D01*
X122462079Y-56100664D01*
X122413384Y-56050558D01*
X122406875Y-56036033D01*
X122396296Y-56007669D01*
X122396295Y-56007667D01*
X122396293Y-56007664D01*
X122310047Y-55892455D01*
X122310044Y-55892452D01*
X122194835Y-55806206D01*
X122194828Y-55806202D01*
X122059982Y-55755908D01*
X122059983Y-55755908D01*
X122000383Y-55749501D01*
X122000381Y-55749500D01*
X122000373Y-55749500D01*
X122000364Y-55749500D01*
X119999629Y-55749500D01*
X119999623Y-55749501D01*
X119940016Y-55755908D01*
X119805171Y-55806202D01*
X119805164Y-55806206D01*
X119689955Y-55892452D01*
X119689952Y-55892455D01*
X119603706Y-56007664D01*
X119603702Y-56007671D01*
X119553408Y-56142517D01*
X119547001Y-56202116D01*
X119547000Y-56202135D01*
X119547000Y-57378137D01*
X119527315Y-57445176D01*
X119510681Y-57465818D01*
X118163319Y-58813181D01*
X118101996Y-58846666D01*
X118075638Y-58849500D01*
X114990047Y-58849500D01*
X114923008Y-58829815D01*
X114902366Y-58813181D01*
X114847213Y-58758028D01*
X114681613Y-58637715D01*
X114681612Y-58637714D01*
X114681610Y-58637713D01*
X114606613Y-58599500D01*
X114499223Y-58544781D01*
X114304534Y-58481522D01*
X114129995Y-58453878D01*
X114102352Y-58449500D01*
X113897648Y-58449500D01*
X113873329Y-58453351D01*
X113695465Y-58481522D01*
X113500776Y-58544781D01*
X113419912Y-58585985D01*
X113363617Y-58599500D01*
X109303649Y-58599500D01*
X109236610Y-58579815D01*
X109203332Y-58548387D01*
X109184517Y-58522490D01*
X109017510Y-58355483D01*
X108826433Y-58216657D01*
X108820367Y-58213566D01*
X108615996Y-58109433D01*
X108391368Y-58036446D01*
X108158097Y-57999500D01*
X108158092Y-57999500D01*
X107921908Y-57999500D01*
X107921903Y-57999500D01*
X107688631Y-58036446D01*
X107464003Y-58109433D01*
X107253566Y-58216657D01*
X107144550Y-58295862D01*
X107062490Y-58355483D01*
X107062488Y-58355485D01*
X107062487Y-58355485D01*
X106895485Y-58522487D01*
X106895485Y-58522488D01*
X106895483Y-58522490D01*
X106850361Y-58584595D01*
X106756657Y-58713566D01*
X106649433Y-58924003D01*
X106576446Y-59148631D01*
X106539500Y-59381902D01*
X106539500Y-59618097D01*
X106576446Y-59851368D01*
X106649433Y-60075996D01*
X106736440Y-60246755D01*
X106756657Y-60286433D01*
X106895483Y-60477510D01*
X107062490Y-60644517D01*
X107253567Y-60783343D01*
X107352991Y-60834002D01*
X107464003Y-60890566D01*
X107464005Y-60890566D01*
X107464008Y-60890568D01*
X107584412Y-60929689D01*
X107688631Y-60963553D01*
X107921903Y-61000500D01*
X107921908Y-61000500D01*
X108158097Y-61000500D01*
X108391368Y-60963553D01*
X108417020Y-60955218D01*
X108615992Y-60890568D01*
X108826433Y-60783343D01*
X109017510Y-60644517D01*
X109184517Y-60477510D01*
X109203332Y-60451613D01*
X109258661Y-60408949D01*
X109303649Y-60400500D01*
X112801929Y-60400500D01*
X112868968Y-60420185D01*
X112902245Y-60451613D01*
X112950825Y-60518477D01*
X113008034Y-60597219D01*
X113152786Y-60741971D01*
X113307749Y-60854556D01*
X113318390Y-60862287D01*
X113373895Y-60890568D01*
X113500776Y-60955218D01*
X113500778Y-60955218D01*
X113500781Y-60955220D01*
X113605137Y-60989127D01*
X113695465Y-61018477D01*
X113796557Y-61034488D01*
X113897648Y-61050500D01*
X113897649Y-61050500D01*
X114102351Y-61050500D01*
X114102352Y-61050500D01*
X114304534Y-61018477D01*
X114499219Y-60955220D01*
X114681610Y-60862287D01*
X114790268Y-60783343D01*
X114847213Y-60741971D01*
X114847215Y-60741968D01*
X114847219Y-60741966D01*
X114902366Y-60686819D01*
X114963689Y-60653334D01*
X114990047Y-60650500D01*
X118588693Y-60650500D01*
X118588694Y-60650499D01*
X118762666Y-60615895D01*
X118844606Y-60581953D01*
X118926547Y-60548013D01*
X119014959Y-60488936D01*
X119074036Y-60449464D01*
X120736681Y-58786817D01*
X120798004Y-58753333D01*
X120824362Y-58750499D01*
X122000371Y-58750499D01*
X122000372Y-58750499D01*
X122059983Y-58744091D01*
X122194831Y-58693796D01*
X122310046Y-58607546D01*
X122396296Y-58492331D01*
X122406872Y-58463974D01*
X122448740Y-58408041D01*
X122514204Y-58383622D01*
X122582477Y-58398472D01*
X122595940Y-58406988D01*
X122778723Y-58539788D01*
X122982429Y-58643582D01*
X123199871Y-58714234D01*
X123290000Y-58728509D01*
X123290000Y-57740747D01*
X123327708Y-57762518D01*
X123467591Y-57800000D01*
X123612409Y-57800000D01*
X123752292Y-57762518D01*
X123790000Y-57740747D01*
X123790000Y-58728508D01*
X123880128Y-58714234D01*
X124097570Y-58643582D01*
X124301276Y-58539788D01*
X124486242Y-58405402D01*
X124647905Y-58243739D01*
X124709371Y-58159137D01*
X124764701Y-58116470D01*
X124834314Y-58110491D01*
X124896109Y-58143096D01*
X124910007Y-58159134D01*
X124971714Y-58244066D01*
X125053466Y-58325818D01*
X125133432Y-58405784D01*
X125136019Y-58407993D01*
X125136730Y-58409082D01*
X125136880Y-58409232D01*
X125136848Y-58409263D01*
X125174220Y-58466495D01*
X125179500Y-58502294D01*
X125179500Y-74075500D01*
X125159815Y-74142539D01*
X125107011Y-74188294D01*
X125062422Y-74197994D01*
X125062511Y-74199117D01*
X125057650Y-74199499D01*
X124855465Y-74231522D01*
X124660776Y-74294781D01*
X124478386Y-74387715D01*
X124312786Y-74508028D01*
X124168028Y-74652786D01*
X124047715Y-74818386D01*
X123954781Y-75000776D01*
X123891522Y-75195465D01*
X123859500Y-75397648D01*
X123859500Y-75602351D01*
X123891522Y-75804534D01*
X123954781Y-75999223D01*
X124047715Y-76181613D01*
X124168028Y-76347213D01*
X124168034Y-76347219D01*
X124312781Y-76491966D01*
X124358384Y-76525098D01*
X124401050Y-76580425D01*
X124409500Y-76625416D01*
X124409500Y-76977770D01*
X124400855Y-77007210D01*
X124394332Y-77037197D01*
X124390577Y-77042212D01*
X124389815Y-77044809D01*
X124373181Y-77065451D01*
X124225451Y-77213181D01*
X124164128Y-77246666D01*
X124137770Y-77249500D01*
X114426080Y-77249500D01*
X114281092Y-77278340D01*
X114281086Y-77278342D01*
X114144508Y-77334914D01*
X114144496Y-77334921D01*
X114095269Y-77367813D01*
X114021588Y-77417044D01*
X114021580Y-77417050D01*
X113417047Y-78021584D01*
X113417043Y-78021589D01*
X113371002Y-78090498D01*
X113371001Y-78090500D01*
X113352958Y-78117502D01*
X113334916Y-78144504D01*
X113334912Y-78144511D01*
X113278343Y-78281082D01*
X113278340Y-78281092D01*
X113249500Y-78426079D01*
X113249500Y-90374582D01*
X113229815Y-90441621D01*
X113198385Y-90474900D01*
X113152787Y-90508028D01*
X113152782Y-90508032D01*
X113008028Y-90652786D01*
X112887715Y-90818386D01*
X112794781Y-91000776D01*
X112731522Y-91195465D01*
X112699500Y-91397648D01*
X112699500Y-91602351D01*
X112731522Y-91804534D01*
X112794781Y-91999223D01*
X112847209Y-92102116D01*
X112887585Y-92181359D01*
X112887715Y-92181613D01*
X113008028Y-92347213D01*
X113008034Y-92347219D01*
X113152781Y-92491966D01*
X113198384Y-92525098D01*
X113241050Y-92580425D01*
X113249500Y-92625416D01*
X113249500Y-93353918D01*
X113249500Y-93353920D01*
X113249499Y-93353920D01*
X113278340Y-93498907D01*
X113278343Y-93498917D01*
X113334912Y-93635488D01*
X113334918Y-93635499D01*
X113344939Y-93650495D01*
X113344941Y-93650500D01*
X113417046Y-93758414D01*
X113417052Y-93758421D01*
X115053526Y-95394893D01*
X115087011Y-95456216D01*
X115088318Y-95501971D01*
X115079500Y-95557647D01*
X115079500Y-95762351D01*
X115111522Y-95964534D01*
X115174781Y-96159223D01*
X115238691Y-96284653D01*
X115267585Y-96341359D01*
X115267715Y-96341613D01*
X115388028Y-96507213D01*
X115532786Y-96651971D01*
X115698385Y-96772284D01*
X115698387Y-96772285D01*
X115698390Y-96772287D01*
X115743446Y-96795244D01*
X115791630Y-96819795D01*
X115842426Y-96867770D01*
X115859221Y-96935591D01*
X115836684Y-97001725D01*
X115791630Y-97040765D01*
X115698644Y-97088143D01*
X115654077Y-97120523D01*
X115654077Y-97120524D01*
X116333554Y-97800000D01*
X116327339Y-97800000D01*
X116225606Y-97827259D01*
X116134394Y-97879920D01*
X116059920Y-97954394D01*
X116007259Y-98045606D01*
X115980000Y-98147339D01*
X115980000Y-98153553D01*
X115300524Y-97474077D01*
X115300523Y-97474077D01*
X115268143Y-97518644D01*
X115175244Y-97700968D01*
X115112009Y-97895582D01*
X115080000Y-98097682D01*
X115080000Y-98302317D01*
X115112009Y-98504417D01*
X115175244Y-98699031D01*
X115268141Y-98881350D01*
X115268147Y-98881359D01*
X115300523Y-98925921D01*
X115300524Y-98925922D01*
X115980000Y-98246446D01*
X115980000Y-98252661D01*
X116007259Y-98354394D01*
X116059920Y-98445606D01*
X116134394Y-98520080D01*
X116225606Y-98572741D01*
X116327339Y-98600000D01*
X116333553Y-98600000D01*
X115654076Y-99279474D01*
X115698652Y-99311861D01*
X115791628Y-99359234D01*
X115842425Y-99407208D01*
X115859220Y-99475029D01*
X115836683Y-99541164D01*
X115791630Y-99580203D01*
X115698388Y-99627713D01*
X115532786Y-99748028D01*
X115532782Y-99748032D01*
X115417634Y-99863181D01*
X115356311Y-99896666D01*
X115329953Y-99899500D01*
X110229602Y-99899500D01*
X110162563Y-99879815D01*
X110119117Y-99831795D01*
X110112284Y-99818385D01*
X109991971Y-99652786D01*
X109847213Y-99508028D01*
X109681613Y-99387715D01*
X109681612Y-99387714D01*
X109681610Y-99387713D01*
X109624653Y-99358691D01*
X109499223Y-99294781D01*
X109304534Y-99231522D01*
X109129995Y-99203878D01*
X109102352Y-99199500D01*
X108897648Y-99199500D01*
X108864470Y-99204755D01*
X108695462Y-99231523D01*
X108695460Y-99231523D01*
X108681149Y-99236173D01*
X108611308Y-99238164D01*
X108568629Y-99217583D01*
X108561474Y-99212238D01*
X108488716Y-99139480D01*
X108386559Y-99080500D01*
X108380220Y-99076840D01*
X108380212Y-99076834D01*
X108351788Y-99060424D01*
X108351787Y-99060423D01*
X108290693Y-99044053D01*
X108199057Y-99019499D01*
X108040943Y-99019499D01*
X108033347Y-99019499D01*
X108033331Y-99019500D01*
X103172596Y-99019500D01*
X103105557Y-98999815D01*
X103072278Y-98968386D01*
X103069523Y-98964594D01*
X102953828Y-98805354D01*
X102814646Y-98666172D01*
X102655405Y-98550476D01*
X102480029Y-98461117D01*
X102292826Y-98400290D01*
X102098422Y-98369500D01*
X102098417Y-98369500D01*
X101901583Y-98369500D01*
X101901578Y-98369500D01*
X101707173Y-98400290D01*
X101519970Y-98461117D01*
X101344594Y-98550476D01*
X101276431Y-98600000D01*
X101185354Y-98666172D01*
X101185352Y-98666174D01*
X101185351Y-98666174D01*
X101046174Y-98805351D01*
X101046174Y-98805352D01*
X101046172Y-98805354D01*
X101015757Y-98847217D01*
X100930476Y-98964594D01*
X100841117Y-99139970D01*
X100780290Y-99327173D01*
X100749500Y-99521577D01*
X100749500Y-99718422D01*
X100780290Y-99912826D01*
X100841117Y-100100029D01*
X100912832Y-100240776D01*
X100930476Y-100275405D01*
X101046172Y-100434646D01*
X101185354Y-100573828D01*
X101344595Y-100689524D01*
X101422957Y-100729451D01*
X101519970Y-100778882D01*
X101519972Y-100778882D01*
X101519975Y-100778884D01*
X101598917Y-100804534D01*
X101707173Y-100839709D01*
X101901578Y-100870500D01*
X101901583Y-100870500D01*
X102098422Y-100870500D01*
X102292826Y-100839709D01*
X102480025Y-100778884D01*
X102655405Y-100689524D01*
X102814646Y-100573828D01*
X102953828Y-100434646D01*
X103069524Y-100275405D01*
X103069524Y-100275403D01*
X103072278Y-100271614D01*
X103127608Y-100228949D01*
X103172596Y-100220500D01*
X107582373Y-100220500D01*
X107649412Y-100240185D01*
X107695167Y-100292989D01*
X107705111Y-100362147D01*
X107704858Y-100363816D01*
X107699500Y-100397648D01*
X107699500Y-100397650D01*
X107699500Y-100602351D01*
X107731522Y-100804534D01*
X107794781Y-100999223D01*
X107817869Y-101044534D01*
X107883320Y-101172989D01*
X107887715Y-101181613D01*
X108008028Y-101347213D01*
X108152786Y-101491971D01*
X108318388Y-101612286D01*
X108371828Y-101639516D01*
X108422623Y-101687490D01*
X108439418Y-101755312D01*
X108416880Y-101821446D01*
X108371828Y-101860484D01*
X108318388Y-101887713D01*
X108152786Y-102008028D01*
X108008028Y-102152786D01*
X107887715Y-102318386D01*
X107794781Y-102500776D01*
X107731522Y-102695465D01*
X107702094Y-102881270D01*
X107699500Y-102897648D01*
X107699500Y-103102352D01*
X107716304Y-103208444D01*
X107731523Y-103304534D01*
X107736172Y-103318843D01*
X107738167Y-103388684D01*
X107705922Y-103444842D01*
X107287584Y-103863181D01*
X107226261Y-103896666D01*
X107199903Y-103899500D01*
X103172596Y-103899500D01*
X103105557Y-103879815D01*
X103072278Y-103848386D01*
X103069523Y-103844594D01*
X102953828Y-103685354D01*
X102814646Y-103546172D01*
X102655405Y-103430476D01*
X102654255Y-103429890D01*
X102480029Y-103341117D01*
X102292826Y-103280290D01*
X102098422Y-103249500D01*
X102098417Y-103249500D01*
X101901583Y-103249500D01*
X101901578Y-103249500D01*
X101707173Y-103280290D01*
X101519970Y-103341117D01*
X101344594Y-103430476D01*
X101253741Y-103496485D01*
X101185354Y-103546172D01*
X101185352Y-103546174D01*
X101185351Y-103546174D01*
X101046174Y-103685351D01*
X101046174Y-103685352D01*
X101046172Y-103685354D01*
X100997621Y-103752179D01*
X100930476Y-103844594D01*
X100841117Y-104019970D01*
X100780290Y-104207173D01*
X100749500Y-104401577D01*
X100749500Y-104598422D01*
X100780290Y-104792826D01*
X100841117Y-104980029D01*
X100928544Y-105151614D01*
X100930476Y-105155405D01*
X101046172Y-105314646D01*
X101185354Y-105453828D01*
X101344595Y-105569524D01*
X101427455Y-105611743D01*
X101519970Y-105658882D01*
X101519972Y-105658882D01*
X101519975Y-105658884D01*
X101620317Y-105691487D01*
X101707173Y-105719709D01*
X101901578Y-105750500D01*
X101901583Y-105750500D01*
X102098422Y-105750500D01*
X102292826Y-105719709D01*
X102317915Y-105711557D01*
X102480025Y-105658884D01*
X102655405Y-105569524D01*
X102814646Y-105453828D01*
X102953828Y-105314646D01*
X103069524Y-105155405D01*
X103069524Y-105155403D01*
X103072278Y-105151614D01*
X103127608Y-105108949D01*
X103172596Y-105100500D01*
X107413331Y-105100500D01*
X107413347Y-105100501D01*
X107420943Y-105100501D01*
X107579054Y-105100501D01*
X107579057Y-105100501D01*
X107731785Y-105059577D01*
X107781904Y-105030639D01*
X107868716Y-104980520D01*
X107980520Y-104868716D01*
X107980520Y-104868714D01*
X107990728Y-104858507D01*
X107990730Y-104858504D01*
X108555158Y-104294075D01*
X108616479Y-104260592D01*
X108681151Y-104263825D01*
X108695466Y-104268477D01*
X108897648Y-104300500D01*
X108897649Y-104300500D01*
X109102351Y-104300500D01*
X109102352Y-104300500D01*
X109304534Y-104268477D01*
X109499219Y-104205220D01*
X109681610Y-104112287D01*
X109808668Y-104019975D01*
X109847213Y-103991971D01*
X109847215Y-103991968D01*
X109847219Y-103991966D01*
X109991966Y-103847219D01*
X109991968Y-103847215D01*
X109991971Y-103847213D01*
X110112284Y-103681614D01*
X110112283Y-103681614D01*
X110112287Y-103681610D01*
X110119117Y-103668204D01*
X110167091Y-103617409D01*
X110229602Y-103600500D01*
X115026619Y-103600500D01*
X115093658Y-103620185D01*
X115139413Y-103672989D01*
X115144550Y-103686182D01*
X115174778Y-103779216D01*
X115194308Y-103817545D01*
X115257511Y-103941588D01*
X115267715Y-103961613D01*
X115388028Y-104127213D01*
X115532786Y-104271971D01*
X115687749Y-104384556D01*
X115698390Y-104392287D01*
X115789840Y-104438883D01*
X115791080Y-104439515D01*
X115841876Y-104487490D01*
X115858671Y-104555311D01*
X115836134Y-104621446D01*
X115791080Y-104660485D01*
X115698386Y-104707715D01*
X115532786Y-104828028D01*
X115388028Y-104972786D01*
X115264849Y-105142331D01*
X115263176Y-105141115D01*
X115217792Y-105182169D01*
X115163885Y-105194500D01*
X114241607Y-105194500D01*
X114118393Y-105194500D01*
X114093437Y-105199464D01*
X114016620Y-105214743D01*
X113997547Y-105218537D01*
X113997545Y-105218538D01*
X113952639Y-105237139D01*
X113883718Y-105265686D01*
X113883711Y-105265690D01*
X113877655Y-105269737D01*
X113858190Y-105282743D01*
X113858189Y-105282744D01*
X113858188Y-105282743D01*
X113781266Y-105334142D01*
X113781265Y-105334143D01*
X113757536Y-105357873D01*
X113694142Y-105421267D01*
X113694139Y-105421270D01*
X110330742Y-108784666D01*
X110269419Y-108818151D01*
X110199727Y-108813167D01*
X110143794Y-108771295D01*
X110119377Y-108705831D01*
X110132576Y-108640690D01*
X110204755Y-108499031D01*
X110267990Y-108304417D01*
X110300000Y-108102317D01*
X110300000Y-107897682D01*
X110267990Y-107695582D01*
X110204755Y-107500968D01*
X110111859Y-107318650D01*
X110079474Y-107274077D01*
X110079474Y-107274076D01*
X109400000Y-107953553D01*
X109400000Y-107947339D01*
X109372741Y-107845606D01*
X109320080Y-107754394D01*
X109245606Y-107679920D01*
X109154394Y-107627259D01*
X109052661Y-107600000D01*
X109046446Y-107600000D01*
X109725922Y-106920524D01*
X109725921Y-106920523D01*
X109681359Y-106888147D01*
X109681350Y-106888141D01*
X109499031Y-106795244D01*
X109304417Y-106732009D01*
X109102317Y-106700000D01*
X108897683Y-106700000D01*
X108695582Y-106732009D01*
X108500968Y-106795244D01*
X108318644Y-106888143D01*
X108274077Y-106920523D01*
X108274077Y-106920524D01*
X108953554Y-107600000D01*
X108947339Y-107600000D01*
X108845606Y-107627259D01*
X108754394Y-107679920D01*
X108679920Y-107754394D01*
X108627259Y-107845606D01*
X108600000Y-107947339D01*
X108600000Y-107953553D01*
X107920524Y-107274077D01*
X107920523Y-107274077D01*
X107888143Y-107318644D01*
X107795244Y-107500968D01*
X107732009Y-107695582D01*
X107700000Y-107897682D01*
X107700000Y-108102317D01*
X107732009Y-108304417D01*
X107795244Y-108499031D01*
X107888141Y-108681350D01*
X107888147Y-108681359D01*
X107920523Y-108725921D01*
X107920524Y-108725922D01*
X108600000Y-108046446D01*
X108600000Y-108052661D01*
X108627259Y-108154394D01*
X108679920Y-108245606D01*
X108754394Y-108320080D01*
X108845606Y-108372741D01*
X108947339Y-108400000D01*
X108953553Y-108400000D01*
X108274076Y-109079474D01*
X108318650Y-109111859D01*
X108500968Y-109204755D01*
X108695582Y-109267990D01*
X108897683Y-109300000D01*
X109102317Y-109300000D01*
X109304417Y-109267990D01*
X109499031Y-109204755D01*
X109640690Y-109132576D01*
X109709359Y-109119680D01*
X109774100Y-109145956D01*
X109814357Y-109203063D01*
X109817349Y-109272868D01*
X109784666Y-109330742D01*
X85957837Y-133157571D01*
X85896514Y-133191056D01*
X85831838Y-133187821D01*
X85824219Y-133185345D01*
X85816241Y-133182753D01*
X85645797Y-133155757D01*
X85606287Y-133149500D01*
X85393713Y-133149500D01*
X85345042Y-133157208D01*
X85183760Y-133182753D01*
X84981585Y-133248444D01*
X84792179Y-133344951D01*
X84620213Y-133469890D01*
X84469890Y-133620213D01*
X84344949Y-133792182D01*
X84340484Y-133800946D01*
X84292509Y-133851742D01*
X84224688Y-133868536D01*
X84158553Y-133845998D01*
X84119516Y-133800946D01*
X84115050Y-133792182D01*
X83990109Y-133620213D01*
X83839786Y-133469890D01*
X83667820Y-133344951D01*
X83478414Y-133248444D01*
X83478413Y-133248443D01*
X83478412Y-133248443D01*
X83276243Y-133182754D01*
X83276241Y-133182753D01*
X83276240Y-133182753D01*
X83114957Y-133157208D01*
X83066287Y-133149500D01*
X82853713Y-133149500D01*
X82805042Y-133157208D01*
X82643760Y-133182753D01*
X82441585Y-133248444D01*
X82252179Y-133344951D01*
X82080213Y-133469890D01*
X81929890Y-133620213D01*
X81804949Y-133792182D01*
X81800484Y-133800946D01*
X81752509Y-133851742D01*
X81684688Y-133868536D01*
X81618553Y-133845998D01*
X81579516Y-133800946D01*
X81575050Y-133792182D01*
X81450109Y-133620213D01*
X81299786Y-133469890D01*
X81127820Y-133344951D01*
X80938414Y-133248444D01*
X80938413Y-133248443D01*
X80938412Y-133248443D01*
X80736243Y-133182754D01*
X80736241Y-133182753D01*
X80736240Y-133182753D01*
X80574957Y-133157208D01*
X80526287Y-133149500D01*
X80313713Y-133149500D01*
X80265042Y-133157208D01*
X80103760Y-133182753D01*
X79901585Y-133248444D01*
X79712179Y-133344951D01*
X79540213Y-133469890D01*
X79389890Y-133620213D01*
X79264949Y-133792182D01*
X79260484Y-133800946D01*
X79212509Y-133851742D01*
X79144688Y-133868536D01*
X79078553Y-133845998D01*
X79039516Y-133800946D01*
X79035050Y-133792182D01*
X78910109Y-133620213D01*
X78759786Y-133469890D01*
X78587820Y-133344951D01*
X78398414Y-133248444D01*
X78398413Y-133248443D01*
X78398412Y-133248443D01*
X78196243Y-133182754D01*
X78196241Y-133182753D01*
X78196240Y-133182753D01*
X78034957Y-133157208D01*
X77986287Y-133149500D01*
X77773713Y-133149500D01*
X77725042Y-133157208D01*
X77563760Y-133182753D01*
X77361585Y-133248444D01*
X77172179Y-133344951D01*
X77000213Y-133469890D01*
X76849890Y-133620213D01*
X76724949Y-133792182D01*
X76720484Y-133800946D01*
X76672509Y-133851742D01*
X76604688Y-133868536D01*
X76538553Y-133845998D01*
X76499516Y-133800946D01*
X76495050Y-133792182D01*
X76370109Y-133620213D01*
X76219786Y-133469890D01*
X76047820Y-133344951D01*
X75858414Y-133248444D01*
X75858413Y-133248443D01*
X75858412Y-133248443D01*
X75656243Y-133182754D01*
X75656241Y-133182753D01*
X75656240Y-133182753D01*
X75494957Y-133157208D01*
X75446287Y-133149500D01*
X75233713Y-133149500D01*
X75185042Y-133157208D01*
X75023760Y-133182753D01*
X74821585Y-133248444D01*
X74632179Y-133344951D01*
X74460213Y-133469890D01*
X74309890Y-133620213D01*
X74184949Y-133792182D01*
X74180484Y-133800946D01*
X74132509Y-133851742D01*
X74064688Y-133868536D01*
X73998553Y-133845998D01*
X73959516Y-133800946D01*
X73955050Y-133792182D01*
X73830109Y-133620213D01*
X73679786Y-133469890D01*
X73507820Y-133344951D01*
X73318414Y-133248444D01*
X73318413Y-133248443D01*
X73318412Y-133248443D01*
X73116243Y-133182754D01*
X73116241Y-133182753D01*
X73116240Y-133182753D01*
X72954957Y-133157208D01*
X72906287Y-133149500D01*
X72693713Y-133149500D01*
X72645042Y-133157208D01*
X72483760Y-133182753D01*
X72281585Y-133248444D01*
X72092179Y-133344951D01*
X71920213Y-133469890D01*
X71769890Y-133620213D01*
X71644951Y-133792179D01*
X71548444Y-133981585D01*
X71482753Y-134183760D01*
X71449500Y-134393713D01*
X65500500Y-134393713D01*
X65500500Y-106442135D01*
X69149500Y-106442135D01*
X69149500Y-108237870D01*
X69149501Y-108237876D01*
X69155908Y-108297483D01*
X69206202Y-108432328D01*
X69206206Y-108432335D01*
X69292452Y-108547544D01*
X69292455Y-108547547D01*
X69407664Y-108633793D01*
X69407671Y-108633797D01*
X69539082Y-108682810D01*
X69595016Y-108724681D01*
X69619433Y-108790145D01*
X69604582Y-108858418D01*
X69583431Y-108886673D01*
X69469889Y-109000215D01*
X69344951Y-109172179D01*
X69248444Y-109361585D01*
X69182753Y-109563760D01*
X69149500Y-109773713D01*
X69149500Y-109986286D01*
X69182310Y-110193445D01*
X69182754Y-110196243D01*
X69217024Y-110301716D01*
X69248444Y-110398414D01*
X69344951Y-110587820D01*
X69469890Y-110759786D01*
X69620213Y-110910109D01*
X69792182Y-111035050D01*
X69800946Y-111039516D01*
X69851742Y-111087491D01*
X69868536Y-111155312D01*
X69845998Y-111221447D01*
X69800946Y-111260484D01*
X69792182Y-111264949D01*
X69620213Y-111389890D01*
X69469890Y-111540213D01*
X69344951Y-111712179D01*
X69248444Y-111901585D01*
X69182753Y-112103760D01*
X69171421Y-112175311D01*
X69149500Y-112313713D01*
X69149500Y-112526287D01*
X69182754Y-112736243D01*
X69231970Y-112887715D01*
X69248444Y-112938414D01*
X69344951Y-113127820D01*
X69469890Y-113299786D01*
X69620213Y-113450109D01*
X69792182Y-113575050D01*
X69800946Y-113579516D01*
X69851742Y-113627491D01*
X69868536Y-113695312D01*
X69845998Y-113761447D01*
X69800946Y-113800484D01*
X69792182Y-113804949D01*
X69620213Y-113929890D01*
X69469890Y-114080213D01*
X69344951Y-114252179D01*
X69248444Y-114441585D01*
X69182753Y-114643760D01*
X69149500Y-114853713D01*
X69149500Y-115066286D01*
X69182753Y-115276239D01*
X69248444Y-115478414D01*
X69344951Y-115667820D01*
X69469890Y-115839786D01*
X69620213Y-115990109D01*
X69792182Y-116115050D01*
X69800946Y-116119516D01*
X69851742Y-116167491D01*
X69868536Y-116235312D01*
X69845998Y-116301447D01*
X69800946Y-116340484D01*
X69792182Y-116344949D01*
X69620213Y-116469890D01*
X69469890Y-116620213D01*
X69344951Y-116792179D01*
X69248444Y-116981585D01*
X69182753Y-117183760D01*
X69149500Y-117393713D01*
X69149500Y-117606286D01*
X69182753Y-117816239D01*
X69248444Y-118018414D01*
X69344951Y-118207820D01*
X69469890Y-118379786D01*
X69620213Y-118530109D01*
X69792182Y-118655050D01*
X69800946Y-118659516D01*
X69851742Y-118707491D01*
X69868536Y-118775312D01*
X69845998Y-118841447D01*
X69800946Y-118880484D01*
X69792182Y-118884949D01*
X69620213Y-119009890D01*
X69469890Y-119160213D01*
X69344951Y-119332179D01*
X69248444Y-119521585D01*
X69182753Y-119723760D01*
X69182420Y-119725865D01*
X69149500Y-119933713D01*
X69149500Y-120146287D01*
X69153031Y-120168583D01*
X69182096Y-120352093D01*
X69182754Y-120356243D01*
X69246798Y-120553350D01*
X69248444Y-120558414D01*
X69344951Y-120747820D01*
X69469890Y-120919786D01*
X69620213Y-121070109D01*
X69792182Y-121195050D01*
X69800946Y-121199516D01*
X69851742Y-121247491D01*
X69868536Y-121315312D01*
X69845998Y-121381447D01*
X69800946Y-121420484D01*
X69792182Y-121424949D01*
X69620213Y-121549890D01*
X69469890Y-121700213D01*
X69344951Y-121872179D01*
X69248444Y-122061585D01*
X69182753Y-122263760D01*
X69149500Y-122473713D01*
X69149500Y-122686286D01*
X69182753Y-122896239D01*
X69248444Y-123098414D01*
X69344951Y-123287820D01*
X69469890Y-123459786D01*
X69620213Y-123610109D01*
X69792182Y-123735050D01*
X69800946Y-123739516D01*
X69851742Y-123787491D01*
X69868536Y-123855312D01*
X69845998Y-123921447D01*
X69800946Y-123960484D01*
X69792182Y-123964949D01*
X69620213Y-124089890D01*
X69469890Y-124240213D01*
X69344951Y-124412179D01*
X69248444Y-124601585D01*
X69182753Y-124803760D01*
X69155338Y-124976851D01*
X69149500Y-125013713D01*
X69149500Y-125226287D01*
X69182754Y-125436243D01*
X69241842Y-125618097D01*
X69248444Y-125638414D01*
X69344951Y-125827820D01*
X69469890Y-125999786D01*
X69620213Y-126150109D01*
X69792179Y-126275048D01*
X69792181Y-126275049D01*
X69792184Y-126275051D01*
X69981588Y-126371557D01*
X70183757Y-126437246D01*
X70393713Y-126470500D01*
X70393714Y-126470500D01*
X70606286Y-126470500D01*
X70606287Y-126470500D01*
X70816243Y-126437246D01*
X71018412Y-126371557D01*
X71207816Y-126275051D01*
X71229789Y-126259086D01*
X71379786Y-126150109D01*
X71379788Y-126150106D01*
X71379792Y-126150104D01*
X71530104Y-125999792D01*
X71530106Y-125999788D01*
X71530109Y-125999786D01*
X71655048Y-125827820D01*
X71655047Y-125827820D01*
X71655051Y-125827816D01*
X71751557Y-125638412D01*
X71817246Y-125436243D01*
X71850500Y-125226287D01*
X71850500Y-125013713D01*
X71817246Y-124803757D01*
X71751557Y-124601588D01*
X71655051Y-124412184D01*
X71655049Y-124412181D01*
X71655048Y-124412179D01*
X71530109Y-124240213D01*
X71379786Y-124089890D01*
X71207820Y-123964951D01*
X71204346Y-123963181D01*
X71199054Y-123960485D01*
X71148259Y-123912512D01*
X71131463Y-123844692D01*
X71153999Y-123778556D01*
X71199054Y-123739515D01*
X71207816Y-123735051D01*
X71229789Y-123719086D01*
X71379786Y-123610109D01*
X71379788Y-123610106D01*
X71379792Y-123610104D01*
X71530104Y-123459792D01*
X71530106Y-123459788D01*
X71530109Y-123459786D01*
X71655048Y-123287820D01*
X71655047Y-123287820D01*
X71655051Y-123287816D01*
X71751557Y-123098412D01*
X71817246Y-122896243D01*
X71850500Y-122686287D01*
X71850500Y-122473713D01*
X71817246Y-122263757D01*
X71803506Y-122221473D01*
X71801512Y-122151635D01*
X71833755Y-122095478D01*
X91858506Y-102070728D01*
X91858511Y-102070724D01*
X91868714Y-102060520D01*
X91868716Y-102060520D01*
X91980520Y-101948716D01*
X92031460Y-101860485D01*
X92036193Y-101852288D01*
X92036194Y-101852286D01*
X92059574Y-101811790D01*
X92059575Y-101811789D01*
X92059575Y-101811787D01*
X92059577Y-101811785D01*
X92100501Y-101659057D01*
X92100501Y-101500942D01*
X92100501Y-101493347D01*
X92100500Y-101493329D01*
X92100500Y-95397682D01*
X107700000Y-95397682D01*
X107700000Y-95602317D01*
X107732009Y-95804417D01*
X107795244Y-95999031D01*
X107888141Y-96181350D01*
X107888147Y-96181359D01*
X107920523Y-96225921D01*
X107920524Y-96225922D01*
X108600000Y-95546446D01*
X108600000Y-95552661D01*
X108627259Y-95654394D01*
X108679920Y-95745606D01*
X108754394Y-95820080D01*
X108845606Y-95872741D01*
X108947339Y-95900000D01*
X108953553Y-95900000D01*
X108274076Y-96579474D01*
X108318650Y-96611859D01*
X108500968Y-96704755D01*
X108695582Y-96767990D01*
X108897683Y-96800000D01*
X109102317Y-96800000D01*
X109304417Y-96767990D01*
X109499031Y-96704755D01*
X109681349Y-96611859D01*
X109725921Y-96579474D01*
X109046447Y-95900000D01*
X109052661Y-95900000D01*
X109154394Y-95872741D01*
X109245606Y-95820080D01*
X109320080Y-95745606D01*
X109372741Y-95654394D01*
X109400000Y-95552661D01*
X109400000Y-95546447D01*
X110079474Y-96225921D01*
X110111859Y-96181349D01*
X110204755Y-95999031D01*
X110267990Y-95804417D01*
X110300000Y-95602317D01*
X110300000Y-95397682D01*
X110267990Y-95195582D01*
X110204755Y-95000968D01*
X110111859Y-94818650D01*
X110079474Y-94774077D01*
X110079474Y-94774076D01*
X109400000Y-95453551D01*
X109400000Y-95447339D01*
X109372741Y-95345606D01*
X109320080Y-95254394D01*
X109245606Y-95179920D01*
X109154394Y-95127259D01*
X109052661Y-95100000D01*
X109046446Y-95100000D01*
X109725922Y-94420524D01*
X109725921Y-94420523D01*
X109681359Y-94388147D01*
X109681350Y-94388141D01*
X109499031Y-94295244D01*
X109304417Y-94232009D01*
X109102317Y-94200000D01*
X108897683Y-94200000D01*
X108695582Y-94232009D01*
X108500968Y-94295244D01*
X108318644Y-94388143D01*
X108274077Y-94420523D01*
X108274077Y-94420524D01*
X108953554Y-95100000D01*
X108947339Y-95100000D01*
X108845606Y-95127259D01*
X108754394Y-95179920D01*
X108679920Y-95254394D01*
X108627259Y-95345606D01*
X108600000Y-95447339D01*
X108600000Y-95453553D01*
X107920524Y-94774077D01*
X107920523Y-94774077D01*
X107888143Y-94818644D01*
X107795244Y-95000968D01*
X107732009Y-95195582D01*
X107700000Y-95397682D01*
X92100500Y-95397682D01*
X92100500Y-95089060D01*
X92100501Y-95089047D01*
X92100501Y-94920945D01*
X92100501Y-94920943D01*
X92059577Y-94768215D01*
X91980520Y-94631284D01*
X91247118Y-93897883D01*
X90527590Y-93178355D01*
X90527588Y-93178352D01*
X90408717Y-93059481D01*
X90408709Y-93059475D01*
X90285143Y-92988135D01*
X90285140Y-92988134D01*
X90271785Y-92980423D01*
X90119057Y-92939499D01*
X89960943Y-92939499D01*
X89953347Y-92939499D01*
X89953331Y-92939500D01*
X89440907Y-92939500D01*
X89373868Y-92919815D01*
X89328113Y-92867011D01*
X89318169Y-92797853D01*
X89334175Y-92752380D01*
X89362339Y-92704755D01*
X89376744Y-92680398D01*
X89422598Y-92522569D01*
X89422599Y-92522559D01*
X89422606Y-92522479D01*
X89425499Y-92485704D01*
X89425500Y-92485686D01*
X89425500Y-92054313D01*
X89425499Y-92054298D01*
X89422598Y-92017432D01*
X89422597Y-92017426D01*
X89376745Y-91859606D01*
X89376744Y-91859603D01*
X89376744Y-91859602D01*
X89293081Y-91718135D01*
X89293078Y-91718132D01*
X89288298Y-91711969D01*
X89290750Y-91710066D01*
X89264155Y-91661421D01*
X89269104Y-91591726D01*
X89289940Y-91559304D01*
X89288298Y-91558031D01*
X89293075Y-91551870D01*
X89293081Y-91551865D01*
X89376744Y-91410398D01*
X89380438Y-91397682D01*
X107700000Y-91397682D01*
X107700000Y-91602317D01*
X107732009Y-91804417D01*
X107795244Y-91999031D01*
X107888141Y-92181350D01*
X107888147Y-92181359D01*
X107920523Y-92225921D01*
X107920524Y-92225922D01*
X108600000Y-91546446D01*
X108600000Y-91552661D01*
X108627259Y-91654394D01*
X108679920Y-91745606D01*
X108754394Y-91820080D01*
X108845606Y-91872741D01*
X108947339Y-91900000D01*
X108953553Y-91900000D01*
X108274076Y-92579474D01*
X108318650Y-92611859D01*
X108500968Y-92704755D01*
X108695582Y-92767990D01*
X108897683Y-92800000D01*
X109102317Y-92800000D01*
X109304417Y-92767990D01*
X109499031Y-92704755D01*
X109681349Y-92611859D01*
X109725921Y-92579474D01*
X109046447Y-91900000D01*
X109052661Y-91900000D01*
X109154394Y-91872741D01*
X109245606Y-91820080D01*
X109320080Y-91745606D01*
X109372741Y-91654394D01*
X109400000Y-91552661D01*
X109400000Y-91546447D01*
X110079474Y-92225921D01*
X110111859Y-92181349D01*
X110204755Y-91999031D01*
X110267990Y-91804417D01*
X110300000Y-91602317D01*
X110300000Y-91397682D01*
X110267990Y-91195582D01*
X110204755Y-91000968D01*
X110111859Y-90818650D01*
X110079474Y-90774077D01*
X110079474Y-90774076D01*
X109400000Y-91453551D01*
X109400000Y-91447339D01*
X109372741Y-91345606D01*
X109320080Y-91254394D01*
X109245606Y-91179920D01*
X109154394Y-91127259D01*
X109052661Y-91100000D01*
X109046446Y-91100000D01*
X109725922Y-90420524D01*
X109725921Y-90420523D01*
X109681359Y-90388147D01*
X109681350Y-90388141D01*
X109499031Y-90295244D01*
X109304417Y-90232009D01*
X109102317Y-90200000D01*
X108897683Y-90200000D01*
X108695582Y-90232009D01*
X108500968Y-90295244D01*
X108318644Y-90388143D01*
X108274077Y-90420523D01*
X108274077Y-90420524D01*
X108953554Y-91100000D01*
X108947339Y-91100000D01*
X108845606Y-91127259D01*
X108754394Y-91179920D01*
X108679920Y-91254394D01*
X108627259Y-91345606D01*
X108600000Y-91447339D01*
X108600000Y-91453553D01*
X107920524Y-90774077D01*
X107920523Y-90774077D01*
X107888143Y-90818644D01*
X107795244Y-91000968D01*
X107732009Y-91195582D01*
X107700000Y-91397682D01*
X89380438Y-91397682D01*
X89422598Y-91252569D01*
X89425500Y-91215694D01*
X89425500Y-90784306D01*
X89422598Y-90747431D01*
X89403690Y-90682351D01*
X89376745Y-90589606D01*
X89376744Y-90589603D01*
X89376744Y-90589602D01*
X89293081Y-90448135D01*
X89287394Y-90442448D01*
X89279795Y-90430139D01*
X89274238Y-90409865D01*
X89264155Y-90391421D01*
X89265189Y-90376846D01*
X89261328Y-90362754D01*
X89267615Y-90342694D01*
X89269104Y-90321726D01*
X89279025Y-90306288D01*
X89282224Y-90296082D01*
X89289479Y-90290021D01*
X89289940Y-90289304D01*
X89288298Y-90288031D01*
X89293075Y-90281870D01*
X89293081Y-90281865D01*
X89376744Y-90140398D01*
X89422598Y-89982569D01*
X89425500Y-89945694D01*
X89425500Y-89514306D01*
X89422598Y-89477431D01*
X89419775Y-89467715D01*
X89376745Y-89319606D01*
X89376744Y-89319603D01*
X89376744Y-89319602D01*
X89293081Y-89178135D01*
X89293078Y-89178132D01*
X89288298Y-89171969D01*
X89290750Y-89170066D01*
X89264155Y-89121421D01*
X89269104Y-89051726D01*
X89289940Y-89019304D01*
X89288298Y-89018031D01*
X89293075Y-89011870D01*
X89293081Y-89011865D01*
X89376744Y-88870398D01*
X89418972Y-88725050D01*
X89422597Y-88712573D01*
X89422598Y-88712567D01*
X89424753Y-88685185D01*
X89425500Y-88675694D01*
X89425500Y-88244306D01*
X89422598Y-88207431D01*
X89403690Y-88142351D01*
X89376745Y-88049606D01*
X89376744Y-88049603D01*
X89376744Y-88049602D01*
X89293081Y-87908135D01*
X89293078Y-87908132D01*
X89288298Y-87901969D01*
X89290750Y-87900066D01*
X89264155Y-87851421D01*
X89269104Y-87781726D01*
X89289940Y-87749304D01*
X89288298Y-87748031D01*
X89293075Y-87741870D01*
X89293081Y-87741865D01*
X89376744Y-87600398D01*
X89422598Y-87442569D01*
X89425500Y-87405694D01*
X89425500Y-86974306D01*
X89422598Y-86937431D01*
X89419775Y-86927715D01*
X89376745Y-86779606D01*
X89376744Y-86779603D01*
X89376744Y-86779602D01*
X89293081Y-86638135D01*
X89293078Y-86638132D01*
X89288298Y-86631969D01*
X89290750Y-86630066D01*
X89264155Y-86581421D01*
X89269104Y-86511726D01*
X89289940Y-86479304D01*
X89288298Y-86478031D01*
X89293075Y-86471870D01*
X89293081Y-86471865D01*
X89376744Y-86330398D01*
X89418972Y-86185050D01*
X89422597Y-86172573D01*
X89422598Y-86172567D01*
X89424753Y-86145185D01*
X89425500Y-86135694D01*
X89425500Y-85704306D01*
X89422598Y-85667431D01*
X89403690Y-85602351D01*
X89376745Y-85509606D01*
X89376744Y-85509603D01*
X89376744Y-85509602D01*
X89293081Y-85368135D01*
X89293079Y-85368133D01*
X89293076Y-85368129D01*
X89176870Y-85251923D01*
X89176862Y-85251917D01*
X89035396Y-85168255D01*
X89035393Y-85168254D01*
X88877573Y-85122402D01*
X88877567Y-85122401D01*
X88840701Y-85119500D01*
X88840694Y-85119500D01*
X86959306Y-85119500D01*
X86959298Y-85119500D01*
X86922432Y-85122401D01*
X86922426Y-85122402D01*
X86764606Y-85168254D01*
X86764603Y-85168255D01*
X86623137Y-85251917D01*
X86623129Y-85251923D01*
X86616872Y-85258181D01*
X86555549Y-85291666D01*
X86529191Y-85294500D01*
X84518389Y-85294500D01*
X84397553Y-85318535D01*
X84397541Y-85318539D01*
X84365262Y-85331909D01*
X84350397Y-85338067D01*
X84283719Y-85365685D01*
X84283717Y-85365686D01*
X84181266Y-85434141D01*
X84181263Y-85434144D01*
X81371111Y-88244298D01*
X80441269Y-89174140D01*
X80441267Y-89174142D01*
X80416614Y-89198795D01*
X80354142Y-89261266D01*
X80324956Y-89304947D01*
X80324954Y-89304950D01*
X80296897Y-89346937D01*
X80243283Y-89391741D01*
X80173958Y-89400446D01*
X80110931Y-89370289D01*
X80082809Y-89325481D01*
X80079844Y-89326765D01*
X80076744Y-89319603D01*
X80076744Y-89319602D01*
X79993081Y-89178135D01*
X79993078Y-89178132D01*
X79988298Y-89171969D01*
X79990750Y-89170066D01*
X79964155Y-89121421D01*
X79969104Y-89051726D01*
X79989940Y-89019304D01*
X79988298Y-89018031D01*
X79993075Y-89011870D01*
X79993081Y-89011865D01*
X80076744Y-88870398D01*
X80118972Y-88725050D01*
X80122597Y-88712573D01*
X80122598Y-88712567D01*
X80124753Y-88685185D01*
X80125500Y-88675694D01*
X80125500Y-88244306D01*
X80122598Y-88207431D01*
X80103690Y-88142351D01*
X80076745Y-88049606D01*
X80076744Y-88049603D01*
X80076744Y-88049602D01*
X79993081Y-87908135D01*
X79993078Y-87908132D01*
X79988298Y-87901969D01*
X79990750Y-87900066D01*
X79964155Y-87851421D01*
X79969104Y-87781726D01*
X79989940Y-87749304D01*
X79988298Y-87748031D01*
X79993075Y-87741870D01*
X79993081Y-87741865D01*
X80076744Y-87600398D01*
X80122598Y-87442569D01*
X80125500Y-87405694D01*
X80125500Y-86974306D01*
X80122598Y-86937431D01*
X80119775Y-86927715D01*
X80076745Y-86779606D01*
X80076744Y-86779603D01*
X80076744Y-86779602D01*
X79993081Y-86638135D01*
X79993078Y-86638132D01*
X79988298Y-86631969D01*
X79990750Y-86630066D01*
X79964155Y-86581421D01*
X79969104Y-86511726D01*
X79989940Y-86479304D01*
X79988298Y-86478031D01*
X79993075Y-86471870D01*
X79993081Y-86471865D01*
X80076744Y-86330398D01*
X80118972Y-86185050D01*
X80122597Y-86172573D01*
X80122598Y-86172567D01*
X80124753Y-86145185D01*
X80125500Y-86135694D01*
X80125500Y-85704306D01*
X80122598Y-85667431D01*
X80103690Y-85602351D01*
X80076745Y-85509606D01*
X80076744Y-85509603D01*
X80076744Y-85509602D01*
X79993081Y-85368135D01*
X79993079Y-85368133D01*
X79993076Y-85368129D01*
X79876870Y-85251923D01*
X79876862Y-85251917D01*
X79735396Y-85168255D01*
X79735393Y-85168254D01*
X79577573Y-85122402D01*
X79577567Y-85122401D01*
X79540701Y-85119500D01*
X79540694Y-85119500D01*
X77659306Y-85119500D01*
X77659298Y-85119500D01*
X77622432Y-85122401D01*
X77622426Y-85122402D01*
X77464606Y-85168254D01*
X77464603Y-85168255D01*
X77323137Y-85251917D01*
X77323129Y-85251923D01*
X77316872Y-85258181D01*
X77255549Y-85291666D01*
X77229191Y-85294500D01*
X74340453Y-85294500D01*
X74273414Y-85274815D01*
X74252772Y-85258181D01*
X71942428Y-82947837D01*
X71908943Y-82886514D01*
X71912178Y-82821837D01*
X71917246Y-82806243D01*
X71950500Y-82596287D01*
X71950500Y-82383713D01*
X71917246Y-82173757D01*
X71851557Y-81971588D01*
X71755051Y-81782184D01*
X71755049Y-81782181D01*
X71755048Y-81782179D01*
X71630109Y-81610213D01*
X71479786Y-81459890D01*
X71307820Y-81334951D01*
X71118414Y-81238444D01*
X71118413Y-81238443D01*
X71118412Y-81238443D01*
X70916243Y-81172754D01*
X70916241Y-81172753D01*
X70916240Y-81172753D01*
X70754957Y-81147208D01*
X70706287Y-81139500D01*
X70493713Y-81139500D01*
X70445042Y-81147208D01*
X70283760Y-81172753D01*
X70081585Y-81238444D01*
X69892179Y-81334951D01*
X69720213Y-81459890D01*
X69569890Y-81610213D01*
X69444951Y-81782179D01*
X69348444Y-81971585D01*
X69282753Y-82173760D01*
X69265700Y-82281428D01*
X69249500Y-82383713D01*
X69249500Y-82596287D01*
X69282754Y-82806243D01*
X69328257Y-82946287D01*
X69348444Y-83008414D01*
X69444951Y-83197820D01*
X69569890Y-83369786D01*
X69720213Y-83520109D01*
X69892182Y-83645050D01*
X69900946Y-83649516D01*
X69951742Y-83697491D01*
X69968536Y-83765312D01*
X69945998Y-83831447D01*
X69900946Y-83870484D01*
X69892182Y-83874949D01*
X69720213Y-83999890D01*
X69569890Y-84150213D01*
X69444951Y-84322179D01*
X69348444Y-84511585D01*
X69282753Y-84713760D01*
X69265700Y-84821428D01*
X69249500Y-84923713D01*
X69249500Y-85136287D01*
X69258873Y-85195465D01*
X69278365Y-85318537D01*
X69282754Y-85346243D01*
X69328761Y-85487838D01*
X69348444Y-85548414D01*
X69444951Y-85737820D01*
X69569890Y-85909786D01*
X69720213Y-86060109D01*
X69892182Y-86185050D01*
X69900946Y-86189516D01*
X69951742Y-86237491D01*
X69968536Y-86305312D01*
X69945998Y-86371447D01*
X69900946Y-86410484D01*
X69892182Y-86414949D01*
X69720213Y-86539890D01*
X69569890Y-86690213D01*
X69444951Y-86862179D01*
X69348444Y-87051585D01*
X69282753Y-87253760D01*
X69249500Y-87463713D01*
X69249500Y-87676286D01*
X69278365Y-87858537D01*
X69282754Y-87886243D01*
X69328257Y-88026287D01*
X69348444Y-88088414D01*
X69444951Y-88277820D01*
X69569890Y-88449786D01*
X69720213Y-88600109D01*
X69892182Y-88725050D01*
X69900946Y-88729516D01*
X69951742Y-88777491D01*
X69968536Y-88845312D01*
X69945998Y-88911447D01*
X69900946Y-88950484D01*
X69892182Y-88954949D01*
X69720213Y-89079890D01*
X69569890Y-89230213D01*
X69444951Y-89402179D01*
X69348444Y-89591585D01*
X69348443Y-89591587D01*
X69348443Y-89591588D01*
X69327101Y-89657272D01*
X69282753Y-89793760D01*
X69249500Y-90003713D01*
X69249500Y-90216286D01*
X69277238Y-90391421D01*
X69282754Y-90426243D01*
X69328257Y-90566287D01*
X69348444Y-90628414D01*
X69444951Y-90817820D01*
X69569890Y-90989786D01*
X69720213Y-91140109D01*
X69892182Y-91265050D01*
X69900946Y-91269516D01*
X69951742Y-91317491D01*
X69968536Y-91385312D01*
X69945998Y-91451447D01*
X69900946Y-91490484D01*
X69892182Y-91494949D01*
X69720213Y-91619890D01*
X69569890Y-91770213D01*
X69444951Y-91942179D01*
X69348444Y-92131585D01*
X69282753Y-92333760D01*
X69258689Y-92485694D01*
X69249500Y-92543713D01*
X69249500Y-92756287D01*
X69256424Y-92800000D01*
X69278365Y-92938537D01*
X69282754Y-92966243D01*
X69333915Y-93123701D01*
X69348444Y-93168414D01*
X69444951Y-93357820D01*
X69569890Y-93529786D01*
X69720213Y-93680109D01*
X69892182Y-93805050D01*
X69900946Y-93809516D01*
X69951742Y-93857491D01*
X69968536Y-93925312D01*
X69945998Y-93991447D01*
X69900946Y-94030484D01*
X69892182Y-94034949D01*
X69720213Y-94159890D01*
X69569890Y-94310213D01*
X69444951Y-94482179D01*
X69348444Y-94671585D01*
X69282753Y-94873760D01*
X69258689Y-95025694D01*
X69249500Y-95083713D01*
X69249500Y-95296287D01*
X69251109Y-95306446D01*
X69278293Y-95478081D01*
X69282754Y-95506243D01*
X69335897Y-95669801D01*
X69348444Y-95708414D01*
X69444951Y-95897820D01*
X69569890Y-96069786D01*
X69720213Y-96220109D01*
X69892182Y-96345050D01*
X69900946Y-96349516D01*
X69951742Y-96397491D01*
X69968536Y-96465312D01*
X69945998Y-96531447D01*
X69900946Y-96570484D01*
X69892182Y-96574949D01*
X69720213Y-96699890D01*
X69569890Y-96850213D01*
X69444951Y-97022179D01*
X69348444Y-97211585D01*
X69282753Y-97413760D01*
X69249500Y-97623713D01*
X69249500Y-97836286D01*
X69275429Y-97999999D01*
X69282754Y-98046243D01*
X69347531Y-98245606D01*
X69348444Y-98248414D01*
X69444951Y-98437820D01*
X69569890Y-98609786D01*
X69683430Y-98723326D01*
X69716915Y-98784649D01*
X69711931Y-98854341D01*
X69670059Y-98910274D01*
X69639083Y-98927189D01*
X69507669Y-98976203D01*
X69507664Y-98976206D01*
X69392455Y-99062452D01*
X69392452Y-99062455D01*
X69306206Y-99177664D01*
X69306202Y-99177671D01*
X69255908Y-99312517D01*
X69249501Y-99372116D01*
X69249500Y-99372135D01*
X69249500Y-101167870D01*
X69249501Y-101167876D01*
X69255908Y-101227483D01*
X69306202Y-101362328D01*
X69306206Y-101362335D01*
X69392452Y-101477544D01*
X69392455Y-101477547D01*
X69507664Y-101563793D01*
X69507671Y-101563797D01*
X69642517Y-101614091D01*
X69642516Y-101614091D01*
X69649444Y-101614835D01*
X69702127Y-101620500D01*
X71497872Y-101620499D01*
X71557483Y-101614091D01*
X71692331Y-101563796D01*
X71807546Y-101477546D01*
X71893796Y-101362331D01*
X71944091Y-101227483D01*
X71950500Y-101167873D01*
X71950499Y-99855450D01*
X71970184Y-99788412D01*
X71986813Y-99767775D01*
X75424589Y-96330001D01*
X77077704Y-96330001D01*
X77077899Y-96332486D01*
X77123718Y-96490198D01*
X77207314Y-96631552D01*
X77207321Y-96631561D01*
X77323438Y-96747678D01*
X77323447Y-96747685D01*
X77464803Y-96831282D01*
X77464806Y-96831283D01*
X77622504Y-96877099D01*
X77622510Y-96877100D01*
X77659350Y-96879999D01*
X77659366Y-96880000D01*
X78350000Y-96880000D01*
X78350000Y-96330000D01*
X77077705Y-96330000D01*
X77077704Y-96330001D01*
X75424589Y-96330001D01*
X76282771Y-95471819D01*
X76344094Y-95438334D01*
X76370452Y-95435500D01*
X77044889Y-95435500D01*
X77111928Y-95455185D01*
X77157683Y-95507989D01*
X77167627Y-95577147D01*
X77151621Y-95622621D01*
X77123718Y-95669801D01*
X77077899Y-95827513D01*
X77077704Y-95829998D01*
X77077705Y-95830000D01*
X78476000Y-95830000D01*
X78543039Y-95849685D01*
X78588794Y-95902489D01*
X78600000Y-95954000D01*
X78600000Y-96080000D01*
X78726000Y-96080000D01*
X78793039Y-96099685D01*
X78838794Y-96152489D01*
X78850000Y-96204000D01*
X78850000Y-96880000D01*
X79540634Y-96880000D01*
X79540649Y-96879999D01*
X79577489Y-96877100D01*
X79577495Y-96877099D01*
X79735193Y-96831283D01*
X79735196Y-96831282D01*
X79842184Y-96768010D01*
X79909907Y-96750827D01*
X79976170Y-96772987D01*
X80019934Y-96827453D01*
X80027303Y-96896933D01*
X79995939Y-96959367D01*
X79992986Y-96962423D01*
X71002227Y-105953181D01*
X70940904Y-105986666D01*
X70914546Y-105989500D01*
X69602129Y-105989500D01*
X69602123Y-105989501D01*
X69542516Y-105995908D01*
X69407671Y-106046202D01*
X69407664Y-106046206D01*
X69292455Y-106132452D01*
X69292452Y-106132455D01*
X69206206Y-106247664D01*
X69206202Y-106247671D01*
X69155908Y-106382517D01*
X69149501Y-106442116D01*
X69149500Y-106442135D01*
X65500500Y-106442135D01*
X65500500Y-74131947D01*
X68750000Y-74131947D01*
X68750000Y-74368052D01*
X68786934Y-74601247D01*
X68859897Y-74825802D01*
X68967087Y-75036174D01*
X69027338Y-75119104D01*
X69027340Y-75119105D01*
X69726212Y-74420233D01*
X69737482Y-74462292D01*
X69809890Y-74587708D01*
X69912292Y-74690110D01*
X70037708Y-74762518D01*
X70079765Y-74773787D01*
X69380893Y-75472658D01*
X69463828Y-75532914D01*
X69674197Y-75640102D01*
X69898752Y-75713065D01*
X69898751Y-75713065D01*
X70131948Y-75750000D01*
X70368052Y-75750000D01*
X70601247Y-75713065D01*
X70825802Y-75640102D01*
X71036163Y-75532918D01*
X71036169Y-75532914D01*
X71119104Y-75472658D01*
X71119105Y-75472658D01*
X70420233Y-74773787D01*
X70462292Y-74762518D01*
X70587708Y-74690110D01*
X70690110Y-74587708D01*
X70762518Y-74462292D01*
X70773787Y-74420234D01*
X71472658Y-75119105D01*
X71472658Y-75119104D01*
X71532914Y-75036169D01*
X71532918Y-75036163D01*
X71640102Y-74825802D01*
X71713065Y-74601247D01*
X71750000Y-74368052D01*
X71750000Y-74131947D01*
X75250000Y-74131947D01*
X75250000Y-74368052D01*
X75286934Y-74601247D01*
X75359897Y-74825802D01*
X75467087Y-75036174D01*
X75527338Y-75119104D01*
X75527340Y-75119105D01*
X76226212Y-74420233D01*
X76237482Y-74462292D01*
X76309890Y-74587708D01*
X76412292Y-74690110D01*
X76537708Y-74762518D01*
X76579765Y-74773787D01*
X75880893Y-75472658D01*
X75963828Y-75532914D01*
X76174197Y-75640102D01*
X76398752Y-75713065D01*
X76398751Y-75713065D01*
X76631948Y-75750000D01*
X76868052Y-75750000D01*
X77101247Y-75713065D01*
X77325802Y-75640102D01*
X77536163Y-75532918D01*
X77536169Y-75532914D01*
X77619104Y-75472658D01*
X77619105Y-75472658D01*
X76920233Y-74773787D01*
X76962292Y-74762518D01*
X77087708Y-74690110D01*
X77190110Y-74587708D01*
X77262518Y-74462292D01*
X77273787Y-74420234D01*
X77972658Y-75119105D01*
X77972658Y-75119104D01*
X78032914Y-75036169D01*
X78032918Y-75036163D01*
X78140102Y-74825802D01*
X78213065Y-74601247D01*
X78250000Y-74368052D01*
X78250000Y-74131947D01*
X78213065Y-73898752D01*
X78140102Y-73674197D01*
X78032914Y-73463828D01*
X77972658Y-73380894D01*
X77972658Y-73380893D01*
X77273787Y-74079765D01*
X77262518Y-74037708D01*
X77190110Y-73912292D01*
X77087708Y-73809890D01*
X76962292Y-73737482D01*
X76920234Y-73726212D01*
X77619105Y-73027340D01*
X77619104Y-73027338D01*
X77536174Y-72967087D01*
X77325802Y-72859897D01*
X77101247Y-72786934D01*
X77101248Y-72786934D01*
X76868052Y-72750000D01*
X76631948Y-72750000D01*
X76398752Y-72786934D01*
X76174197Y-72859897D01*
X75963830Y-72967084D01*
X75880894Y-73027340D01*
X76579766Y-73726212D01*
X76537708Y-73737482D01*
X76412292Y-73809890D01*
X76309890Y-73912292D01*
X76237482Y-74037708D01*
X76226212Y-74079766D01*
X75527340Y-73380894D01*
X75467084Y-73463830D01*
X75359897Y-73674197D01*
X75286934Y-73898752D01*
X75250000Y-74131947D01*
X71750000Y-74131947D01*
X71713065Y-73898752D01*
X71640102Y-73674197D01*
X71532914Y-73463828D01*
X71472658Y-73380894D01*
X71472658Y-73380893D01*
X70773787Y-74079765D01*
X70762518Y-74037708D01*
X70690110Y-73912292D01*
X70587708Y-73809890D01*
X70462292Y-73737482D01*
X70420234Y-73726212D01*
X71119105Y-73027340D01*
X71119104Y-73027339D01*
X71036174Y-72967087D01*
X70825802Y-72859897D01*
X70601247Y-72786934D01*
X70601248Y-72786934D01*
X70368052Y-72750000D01*
X70131948Y-72750000D01*
X69898752Y-72786934D01*
X69674197Y-72859897D01*
X69463830Y-72967084D01*
X69380894Y-73027340D01*
X70079766Y-73726212D01*
X70037708Y-73737482D01*
X69912292Y-73809890D01*
X69809890Y-73912292D01*
X69737482Y-74037708D01*
X69726212Y-74079766D01*
X69027340Y-73380894D01*
X68967084Y-73463830D01*
X68859897Y-73674197D01*
X68786934Y-73898752D01*
X68750000Y-74131947D01*
X65500500Y-74131947D01*
X65500500Y-69631902D01*
X68749500Y-69631902D01*
X68749500Y-69868097D01*
X68786446Y-70101368D01*
X68859433Y-70325996D01*
X68919155Y-70443205D01*
X68966657Y-70536433D01*
X69105483Y-70727510D01*
X69272490Y-70894517D01*
X69463567Y-71033343D01*
X69562991Y-71084002D01*
X69674003Y-71140566D01*
X69674005Y-71140566D01*
X69674008Y-71140568D01*
X69794412Y-71179689D01*
X69898631Y-71213553D01*
X70131903Y-71250500D01*
X70131908Y-71250500D01*
X70368097Y-71250500D01*
X70601368Y-71213553D01*
X70825992Y-71140568D01*
X71036433Y-71033343D01*
X71227510Y-70894517D01*
X71394517Y-70727510D01*
X71533343Y-70536433D01*
X71580845Y-70443205D01*
X71628820Y-70392409D01*
X71691330Y-70375500D01*
X75308670Y-70375500D01*
X75375709Y-70395185D01*
X75419155Y-70443205D01*
X75466657Y-70536433D01*
X75605483Y-70727510D01*
X75772490Y-70894517D01*
X75963567Y-71033343D01*
X76062991Y-71084002D01*
X76174003Y-71140566D01*
X76174005Y-71140566D01*
X76174008Y-71140568D01*
X76294412Y-71179689D01*
X76398631Y-71213553D01*
X76631903Y-71250500D01*
X76631908Y-71250500D01*
X76868097Y-71250500D01*
X77101368Y-71213553D01*
X77325992Y-71140568D01*
X77536433Y-71033343D01*
X77727510Y-70894517D01*
X77894517Y-70727510D01*
X78033343Y-70536433D01*
X78080845Y-70443205D01*
X78128820Y-70392409D01*
X78191330Y-70375500D01*
X108938394Y-70375500D01*
X108939548Y-70375500D01*
X109006587Y-70395185D01*
X109027229Y-70411819D01*
X113697781Y-75082371D01*
X113731266Y-75143694D01*
X113730785Y-75190416D01*
X113732285Y-75190654D01*
X113699500Y-75397648D01*
X113699500Y-75602351D01*
X113731522Y-75804534D01*
X113794781Y-75999223D01*
X113887715Y-76181613D01*
X114008028Y-76347213D01*
X114152786Y-76491971D01*
X114274535Y-76580425D01*
X114318390Y-76612287D01*
X114434607Y-76671503D01*
X114500776Y-76705218D01*
X114500778Y-76705218D01*
X114500781Y-76705220D01*
X114605137Y-76739127D01*
X114695465Y-76768477D01*
X114796557Y-76784488D01*
X114897648Y-76800500D01*
X114897649Y-76800500D01*
X115102351Y-76800500D01*
X115102352Y-76800500D01*
X115304534Y-76768477D01*
X115499219Y-76705220D01*
X115681610Y-76612287D01*
X115801619Y-76525096D01*
X115847213Y-76491971D01*
X115847215Y-76491968D01*
X115847219Y-76491966D01*
X115991966Y-76347219D01*
X115991968Y-76347215D01*
X115991971Y-76347213D01*
X116044732Y-76274590D01*
X116112287Y-76181610D01*
X116205220Y-75999219D01*
X116268477Y-75804534D01*
X116300500Y-75602352D01*
X116300500Y-75397648D01*
X116268477Y-75195466D01*
X116266913Y-75190654D01*
X116205218Y-75000776D01*
X116171503Y-74934607D01*
X116112287Y-74818390D01*
X116071694Y-74762518D01*
X115991971Y-74652786D01*
X115847213Y-74508028D01*
X115681613Y-74387715D01*
X115681612Y-74387714D01*
X115681610Y-74387713D01*
X115624653Y-74358691D01*
X115499223Y-74294781D01*
X115304534Y-74231522D01*
X115129995Y-74203878D01*
X115102352Y-74199500D01*
X114897648Y-74199500D01*
X114794101Y-74215900D01*
X114690654Y-74232285D01*
X114690333Y-74230262D01*
X114629120Y-74227149D01*
X114582371Y-74197781D01*
X109743150Y-69358560D01*
X109735860Y-69351270D01*
X109735858Y-69351267D01*
X109648733Y-69264142D01*
X109597509Y-69229915D01*
X109546286Y-69195688D01*
X109546283Y-69195686D01*
X109546280Y-69195685D01*
X109472603Y-69165168D01*
X109472601Y-69165167D01*
X109465792Y-69162347D01*
X109432452Y-69148537D01*
X109372029Y-69136518D01*
X109367306Y-69135578D01*
X109367304Y-69135578D01*
X109311610Y-69124500D01*
X109311607Y-69124500D01*
X109311606Y-69124500D01*
X109061606Y-69124500D01*
X78191330Y-69124500D01*
X78124291Y-69104815D01*
X78080845Y-69056795D01*
X78033342Y-68963566D01*
X77894517Y-68772490D01*
X77727510Y-68605483D01*
X77536433Y-68466657D01*
X77325996Y-68359433D01*
X77101368Y-68286446D01*
X76868097Y-68249500D01*
X76868092Y-68249500D01*
X76631908Y-68249500D01*
X76631903Y-68249500D01*
X76398631Y-68286446D01*
X76174003Y-68359433D01*
X75963566Y-68466657D01*
X75854550Y-68545862D01*
X75772490Y-68605483D01*
X75772488Y-68605485D01*
X75772487Y-68605485D01*
X75605485Y-68772487D01*
X75605485Y-68772488D01*
X75605483Y-68772490D01*
X75545862Y-68854550D01*
X75466657Y-68963566D01*
X75419155Y-69056795D01*
X75371180Y-69107591D01*
X75308670Y-69124500D01*
X71691330Y-69124500D01*
X71624291Y-69104815D01*
X71580845Y-69056795D01*
X71533342Y-68963566D01*
X71394517Y-68772490D01*
X71227510Y-68605483D01*
X71036433Y-68466657D01*
X70825996Y-68359433D01*
X70601368Y-68286446D01*
X70368097Y-68249500D01*
X70368092Y-68249500D01*
X70131908Y-68249500D01*
X70131903Y-68249500D01*
X69898631Y-68286446D01*
X69674003Y-68359433D01*
X69463566Y-68466657D01*
X69354550Y-68545862D01*
X69272490Y-68605483D01*
X69272488Y-68605485D01*
X69272487Y-68605485D01*
X69105485Y-68772487D01*
X69105485Y-68772488D01*
X69105483Y-68772490D01*
X69045862Y-68854550D01*
X68966657Y-68963566D01*
X68859433Y-69174003D01*
X68786446Y-69398631D01*
X68749500Y-69631902D01*
X65500500Y-69631902D01*
X65500500Y-61481386D01*
X74249500Y-61481386D01*
X74249500Y-63418613D01*
X74249501Y-63418652D01*
X74252295Y-63471243D01*
X74252295Y-63471244D01*
X74296754Y-63701121D01*
X74296755Y-63701126D01*
X74345326Y-63829832D01*
X74379425Y-63920189D01*
X74497929Y-64122131D01*
X74497934Y-64122138D01*
X74648856Y-64301141D01*
X74648858Y-64301143D01*
X74827861Y-64452065D01*
X74827868Y-64452070D01*
X75029810Y-64570574D01*
X75248874Y-64653245D01*
X75478759Y-64697705D01*
X75531378Y-64700500D01*
X75531386Y-64700500D01*
X77468614Y-64700500D01*
X77468622Y-64700500D01*
X77521241Y-64697705D01*
X77751126Y-64653245D01*
X77970190Y-64570574D01*
X78172132Y-64452070D01*
X78351142Y-64301142D01*
X78502070Y-64122132D01*
X78620574Y-63920190D01*
X78703245Y-63701126D01*
X78747705Y-63471241D01*
X78750500Y-63418622D01*
X78750500Y-61481378D01*
X78747705Y-61428759D01*
X78703245Y-61198874D01*
X78620574Y-60979810D01*
X78502070Y-60777868D01*
X78502065Y-60777861D01*
X78351143Y-60598858D01*
X78351141Y-60598856D01*
X78172138Y-60447934D01*
X78172131Y-60447929D01*
X77970189Y-60329425D01*
X77848075Y-60283342D01*
X77751126Y-60246755D01*
X77751121Y-60246754D01*
X77751116Y-60246752D01*
X77748470Y-60246240D01*
X77747451Y-60245713D01*
X77746050Y-60245317D01*
X77746130Y-60245031D01*
X77686392Y-60214177D01*
X77651503Y-60153641D01*
X77654881Y-60083853D01*
X77695452Y-60026970D01*
X77760337Y-60001052D01*
X77772009Y-60000499D01*
X81297872Y-60000499D01*
X81357483Y-59994091D01*
X81492331Y-59943796D01*
X81607546Y-59857546D01*
X81693796Y-59742331D01*
X81744091Y-59607483D01*
X81750500Y-59547873D01*
X81750500Y-58881902D01*
X84249500Y-58881902D01*
X84249500Y-59118097D01*
X84286446Y-59351368D01*
X84359433Y-59575996D01*
X84429460Y-59713430D01*
X84466657Y-59786433D01*
X84605483Y-59977510D01*
X84772490Y-60144517D01*
X84963567Y-60283343D01*
X85054008Y-60329425D01*
X85174003Y-60390566D01*
X85174005Y-60390566D01*
X85174008Y-60390568D01*
X85294412Y-60429689D01*
X85398631Y-60463553D01*
X85631903Y-60500500D01*
X85631908Y-60500500D01*
X85868097Y-60500500D01*
X86101368Y-60463553D01*
X86144729Y-60449464D01*
X86325992Y-60390568D01*
X86536433Y-60283343D01*
X86727510Y-60144517D01*
X86894517Y-59977510D01*
X86913332Y-59951613D01*
X86968661Y-59908949D01*
X87013649Y-59900500D01*
X90986351Y-59900500D01*
X91053390Y-59920185D01*
X91086667Y-59951612D01*
X91105483Y-59977510D01*
X91272490Y-60144517D01*
X91463567Y-60283343D01*
X91554008Y-60329425D01*
X91674003Y-60390566D01*
X91674005Y-60390566D01*
X91674008Y-60390568D01*
X91794412Y-60429689D01*
X91898631Y-60463553D01*
X92131903Y-60500500D01*
X92131908Y-60500500D01*
X92368097Y-60500500D01*
X92601368Y-60463553D01*
X92644729Y-60449464D01*
X92825992Y-60390568D01*
X93036433Y-60283343D01*
X93227510Y-60144517D01*
X93394517Y-59977510D01*
X93413332Y-59951613D01*
X93468661Y-59908949D01*
X93513649Y-59900500D01*
X96301929Y-59900500D01*
X96368968Y-59920185D01*
X96402245Y-59951613D01*
X96492612Y-60075992D01*
X96508034Y-60097219D01*
X96652786Y-60241971D01*
X96773159Y-60329425D01*
X96818390Y-60362287D01*
X96932021Y-60420185D01*
X97000776Y-60455218D01*
X97000778Y-60455218D01*
X97000781Y-60455220D01*
X97069383Y-60477510D01*
X97195465Y-60518477D01*
X97296557Y-60534488D01*
X97397648Y-60550500D01*
X97397649Y-60550500D01*
X97602351Y-60550500D01*
X97602352Y-60550500D01*
X97804534Y-60518477D01*
X97999219Y-60455220D01*
X98181610Y-60362287D01*
X98290268Y-60283343D01*
X98347213Y-60241971D01*
X98347215Y-60241968D01*
X98347219Y-60241966D01*
X98402366Y-60186819D01*
X98463689Y-60153334D01*
X98490047Y-60150500D01*
X101531408Y-60150500D01*
X101598447Y-60170185D01*
X101641893Y-60218205D01*
X101656440Y-60246755D01*
X101676657Y-60286433D01*
X101815483Y-60477510D01*
X101982490Y-60644517D01*
X102173567Y-60783343D01*
X102272991Y-60834002D01*
X102384003Y-60890566D01*
X102384005Y-60890566D01*
X102384008Y-60890568D01*
X102504412Y-60929689D01*
X102608631Y-60963553D01*
X102841903Y-61000500D01*
X102841908Y-61000500D01*
X103078097Y-61000500D01*
X103311368Y-60963553D01*
X103337020Y-60955218D01*
X103535992Y-60890568D01*
X103746433Y-60783343D01*
X103937510Y-60644517D01*
X104104517Y-60477510D01*
X104243343Y-60286433D01*
X104350568Y-60075992D01*
X104423553Y-59851368D01*
X104440823Y-59742328D01*
X104460500Y-59618097D01*
X104460500Y-59381902D01*
X104423553Y-59148631D01*
X104389689Y-59044412D01*
X104350568Y-58924008D01*
X104350566Y-58924005D01*
X104350566Y-58924003D01*
X104265997Y-58758028D01*
X104243343Y-58713567D01*
X104104517Y-58522490D01*
X103937510Y-58355483D01*
X103746433Y-58216657D01*
X103740367Y-58213566D01*
X103535996Y-58109433D01*
X103311368Y-58036446D01*
X103078097Y-57999500D01*
X103078092Y-57999500D01*
X102841908Y-57999500D01*
X102841903Y-57999500D01*
X102608631Y-58036446D01*
X102384003Y-58109433D01*
X102173563Y-58216659D01*
X102023319Y-58325818D01*
X101957513Y-58349298D01*
X101950434Y-58349500D01*
X98490047Y-58349500D01*
X98423008Y-58329815D01*
X98402366Y-58313181D01*
X98347213Y-58258028D01*
X98181613Y-58137715D01*
X98181612Y-58137714D01*
X98181610Y-58137713D01*
X98090031Y-58091051D01*
X97999223Y-58044781D01*
X97804534Y-57981522D01*
X97629995Y-57953878D01*
X97602352Y-57949500D01*
X97397648Y-57949500D01*
X97373329Y-57953351D01*
X97195465Y-57981522D01*
X97000776Y-58044781D01*
X96919912Y-58085985D01*
X96863617Y-58099500D01*
X93513649Y-58099500D01*
X93446610Y-58079815D01*
X93413332Y-58048387D01*
X93394517Y-58022490D01*
X93227510Y-57855483D01*
X93036433Y-57716657D01*
X92984332Y-57690110D01*
X92825996Y-57609433D01*
X92601368Y-57536446D01*
X92368097Y-57499500D01*
X92368092Y-57499500D01*
X92131908Y-57499500D01*
X92131903Y-57499500D01*
X91898631Y-57536446D01*
X91674003Y-57609433D01*
X91463566Y-57716657D01*
X91400445Y-57762518D01*
X91272490Y-57855483D01*
X91272488Y-57855485D01*
X91272487Y-57855485D01*
X91105485Y-58022487D01*
X91105485Y-58022488D01*
X91105483Y-58022490D01*
X91086667Y-58048386D01*
X91031339Y-58091051D01*
X90986351Y-58099500D01*
X87013649Y-58099500D01*
X86946610Y-58079815D01*
X86913332Y-58048387D01*
X86894517Y-58022490D01*
X86727510Y-57855483D01*
X86536433Y-57716657D01*
X86484332Y-57690110D01*
X86325996Y-57609433D01*
X86101368Y-57536446D01*
X85868097Y-57499500D01*
X85868092Y-57499500D01*
X85631908Y-57499500D01*
X85631903Y-57499500D01*
X85398631Y-57536446D01*
X85174003Y-57609433D01*
X84963566Y-57716657D01*
X84900445Y-57762518D01*
X84772490Y-57855483D01*
X84772488Y-57855485D01*
X84772487Y-57855485D01*
X84605485Y-58022487D01*
X84605485Y-58022488D01*
X84605483Y-58022490D01*
X84563834Y-58079815D01*
X84466657Y-58213566D01*
X84359433Y-58424003D01*
X84286446Y-58648631D01*
X84249500Y-58881902D01*
X81750500Y-58881902D01*
X81750500Y-58774500D01*
X81770185Y-58707461D01*
X81822989Y-58661706D01*
X81874500Y-58650500D01*
X82588693Y-58650500D01*
X82588694Y-58650499D01*
X82762666Y-58615895D01*
X82844606Y-58581953D01*
X82926547Y-58548013D01*
X83026056Y-58481523D01*
X83074036Y-58449464D01*
X85493216Y-56030282D01*
X85554537Y-55996799D01*
X85600289Y-55995492D01*
X85631908Y-56000500D01*
X85631911Y-56000500D01*
X85868097Y-56000500D01*
X86101368Y-55963553D01*
X86111647Y-55960213D01*
X86325992Y-55890568D01*
X86536433Y-55783343D01*
X86727510Y-55644517D01*
X86894517Y-55477510D01*
X86913332Y-55451613D01*
X86968661Y-55408949D01*
X87013649Y-55400500D01*
X90986351Y-55400500D01*
X91053390Y-55420185D01*
X91086667Y-55451612D01*
X91105483Y-55477510D01*
X91272490Y-55644517D01*
X91463567Y-55783343D01*
X91554104Y-55829474D01*
X91674003Y-55890566D01*
X91674005Y-55890566D01*
X91674008Y-55890568D01*
X91794412Y-55929689D01*
X91898631Y-55963553D01*
X92131903Y-56000500D01*
X92131908Y-56000500D01*
X92368097Y-56000500D01*
X92601368Y-55963553D01*
X92611647Y-55960213D01*
X92825992Y-55890568D01*
X93036433Y-55783343D01*
X93227510Y-55644517D01*
X93394517Y-55477510D01*
X93533343Y-55286433D01*
X93640568Y-55075992D01*
X93713553Y-54851368D01*
X93750500Y-54618097D01*
X93750500Y-54381902D01*
X93715704Y-54162214D01*
X93713553Y-54148632D01*
X93713244Y-54147682D01*
X96200000Y-54147682D01*
X96200000Y-54352317D01*
X96232009Y-54554417D01*
X96295244Y-54749031D01*
X96388141Y-54931350D01*
X96388147Y-54931359D01*
X96420523Y-54975921D01*
X96420524Y-54975922D01*
X97100000Y-54296446D01*
X97100000Y-54302661D01*
X97127259Y-54404394D01*
X97179920Y-54495606D01*
X97254394Y-54570080D01*
X97345606Y-54622741D01*
X97447339Y-54650000D01*
X97453553Y-54650000D01*
X96774076Y-55329474D01*
X96818650Y-55361859D01*
X97000968Y-55454755D01*
X97195582Y-55517990D01*
X97397683Y-55550000D01*
X97602317Y-55550000D01*
X97804417Y-55517990D01*
X97999031Y-55454755D01*
X98181349Y-55361859D01*
X98225921Y-55329474D01*
X97546447Y-54650000D01*
X97552661Y-54650000D01*
X97654394Y-54622741D01*
X97745606Y-54570080D01*
X97820080Y-54495606D01*
X97872741Y-54404394D01*
X97900000Y-54302661D01*
X97900000Y-54296447D01*
X98579474Y-54975921D01*
X98611859Y-54931349D01*
X98704755Y-54749031D01*
X98737686Y-54647682D01*
X112700000Y-54647682D01*
X112700000Y-54852317D01*
X112732009Y-55054417D01*
X112795244Y-55249031D01*
X112888141Y-55431350D01*
X112888147Y-55431359D01*
X112920523Y-55475921D01*
X112920524Y-55475922D01*
X113600000Y-54796446D01*
X113600000Y-54802661D01*
X113627259Y-54904394D01*
X113679920Y-54995606D01*
X113754394Y-55070080D01*
X113845606Y-55122741D01*
X113947339Y-55150000D01*
X113953553Y-55150000D01*
X113274076Y-55829474D01*
X113318650Y-55861859D01*
X113500968Y-55954755D01*
X113695582Y-56017990D01*
X113897683Y-56050000D01*
X114102317Y-56050000D01*
X114304417Y-56017990D01*
X114499031Y-55954755D01*
X114681349Y-55861859D01*
X114725921Y-55829474D01*
X114046447Y-55150000D01*
X114052661Y-55150000D01*
X114154394Y-55122741D01*
X114245606Y-55070080D01*
X114320080Y-54995606D01*
X114372741Y-54904394D01*
X114400000Y-54802661D01*
X114400000Y-54796448D01*
X115079474Y-55475922D01*
X115079474Y-55475921D01*
X115111859Y-55431349D01*
X115204755Y-55249031D01*
X115267990Y-55054417D01*
X115300000Y-54852317D01*
X115300000Y-54647682D01*
X115267990Y-54445582D01*
X115204755Y-54250968D01*
X115111859Y-54068650D01*
X115079474Y-54024077D01*
X115079474Y-54024076D01*
X114400000Y-54703551D01*
X114400000Y-54697339D01*
X114372741Y-54595606D01*
X114320080Y-54504394D01*
X114245606Y-54429920D01*
X114154394Y-54377259D01*
X114052661Y-54350000D01*
X114046446Y-54350000D01*
X114725922Y-53670524D01*
X114725921Y-53670523D01*
X114681359Y-53638147D01*
X114681350Y-53638141D01*
X114499031Y-53545244D01*
X114304417Y-53482009D01*
X114102317Y-53450000D01*
X113897683Y-53450000D01*
X113695582Y-53482009D01*
X113500968Y-53545244D01*
X113318644Y-53638143D01*
X113274077Y-53670523D01*
X113274077Y-53670524D01*
X113953554Y-54350000D01*
X113947339Y-54350000D01*
X113845606Y-54377259D01*
X113754394Y-54429920D01*
X113679920Y-54504394D01*
X113627259Y-54595606D01*
X113600000Y-54697339D01*
X113600000Y-54703553D01*
X112920524Y-54024077D01*
X112920523Y-54024077D01*
X112888143Y-54068644D01*
X112795244Y-54250968D01*
X112732009Y-54445582D01*
X112700000Y-54647682D01*
X98737686Y-54647682D01*
X98751718Y-54604497D01*
X98767990Y-54554417D01*
X98800000Y-54352317D01*
X98800000Y-54147682D01*
X98767990Y-53945582D01*
X98706423Y-53756102D01*
X98704754Y-53750967D01*
X98611859Y-53568650D01*
X98579474Y-53524077D01*
X98579474Y-53524076D01*
X97900000Y-54203551D01*
X97900000Y-54197339D01*
X97872741Y-54095606D01*
X97820080Y-54004394D01*
X97745606Y-53929920D01*
X97654394Y-53877259D01*
X97552661Y-53850000D01*
X97546446Y-53850000D01*
X98225922Y-53170524D01*
X98225921Y-53170523D01*
X98181359Y-53138147D01*
X98181350Y-53138141D01*
X97999031Y-53045244D01*
X97804417Y-52982009D01*
X97602317Y-52950000D01*
X97397683Y-52950000D01*
X97195582Y-52982009D01*
X97000968Y-53045244D01*
X96818644Y-53138143D01*
X96774077Y-53170523D01*
X96774077Y-53170524D01*
X97453554Y-53850000D01*
X97447339Y-53850000D01*
X97345606Y-53877259D01*
X97254394Y-53929920D01*
X97179920Y-54004394D01*
X97127259Y-54095606D01*
X97100000Y-54197339D01*
X97100000Y-54203553D01*
X96420524Y-53524077D01*
X96420523Y-53524077D01*
X96388143Y-53568644D01*
X96295244Y-53750968D01*
X96232009Y-53945582D01*
X96200000Y-54147682D01*
X93713244Y-54147682D01*
X93640568Y-53924008D01*
X93640566Y-53924005D01*
X93640566Y-53924003D01*
X93584002Y-53812991D01*
X93533343Y-53713567D01*
X93394517Y-53522490D01*
X93227510Y-53355483D01*
X93036433Y-53216657D01*
X92825996Y-53109433D01*
X92601368Y-53036446D01*
X92368097Y-52999500D01*
X92368092Y-52999500D01*
X92131908Y-52999500D01*
X92131903Y-52999500D01*
X91898631Y-53036446D01*
X91674003Y-53109433D01*
X91463566Y-53216657D01*
X91354550Y-53295862D01*
X91272490Y-53355483D01*
X91272488Y-53355485D01*
X91272487Y-53355485D01*
X91105485Y-53522487D01*
X91105485Y-53522488D01*
X91105483Y-53522490D01*
X91086667Y-53548386D01*
X91031339Y-53591051D01*
X90986351Y-53599500D01*
X87013649Y-53599500D01*
X86946610Y-53579815D01*
X86913332Y-53548387D01*
X86894517Y-53522490D01*
X86727510Y-53355483D01*
X86536433Y-53216657D01*
X86325996Y-53109433D01*
X86101368Y-53036446D01*
X85868097Y-52999500D01*
X85868092Y-52999500D01*
X85631908Y-52999500D01*
X85631903Y-52999500D01*
X85398631Y-53036446D01*
X85174003Y-53109433D01*
X84963566Y-53216657D01*
X84854550Y-53295862D01*
X84772490Y-53355483D01*
X84772488Y-53355485D01*
X84772487Y-53355485D01*
X84605485Y-53522487D01*
X84605485Y-53522488D01*
X84605483Y-53522490D01*
X84571950Y-53568644D01*
X84466657Y-53713566D01*
X84359433Y-53924003D01*
X84286446Y-54148631D01*
X84249500Y-54381902D01*
X84249500Y-54618091D01*
X84254507Y-54649706D01*
X84245551Y-54719000D01*
X84219714Y-54756784D01*
X82163319Y-56813181D01*
X82136391Y-56827884D01*
X82110573Y-56844477D01*
X82104372Y-56845368D01*
X82101996Y-56846666D01*
X82075638Y-56849500D01*
X81874499Y-56849500D01*
X81807460Y-56829815D01*
X81761705Y-56777011D01*
X81750499Y-56725500D01*
X81750499Y-55952129D01*
X81750498Y-55952123D01*
X81750497Y-55952116D01*
X81744091Y-55892517D01*
X81743363Y-55890566D01*
X81693797Y-55757671D01*
X81693793Y-55757664D01*
X81607547Y-55642455D01*
X81607544Y-55642452D01*
X81492335Y-55556206D01*
X81492328Y-55556202D01*
X81357482Y-55505908D01*
X81357483Y-55505908D01*
X81297883Y-55499501D01*
X81297881Y-55499500D01*
X81297873Y-55499500D01*
X81297864Y-55499500D01*
X77702129Y-55499500D01*
X77702123Y-55499501D01*
X77642516Y-55505908D01*
X77507671Y-55556202D01*
X77507664Y-55556206D01*
X77392455Y-55642452D01*
X77392452Y-55642455D01*
X77306206Y-55757664D01*
X77306202Y-55757671D01*
X77255908Y-55892517D01*
X77249501Y-55952116D01*
X77249501Y-55952123D01*
X77249500Y-55952135D01*
X77249500Y-59547870D01*
X77249501Y-59547876D01*
X77255908Y-59607483D01*
X77306202Y-59742328D01*
X77306206Y-59742335D01*
X77392452Y-59857544D01*
X77392455Y-59857547D01*
X77507664Y-59943793D01*
X77507673Y-59943798D01*
X77554937Y-59961426D01*
X77610871Y-60003296D01*
X77635289Y-60068760D01*
X77620438Y-60137033D01*
X77571033Y-60186439D01*
X77505028Y-60201433D01*
X77468657Y-60199501D01*
X77468628Y-60199500D01*
X77468622Y-60199500D01*
X75531378Y-60199500D01*
X75531370Y-60199500D01*
X75531347Y-60199501D01*
X75478756Y-60202295D01*
X75478755Y-60202295D01*
X75248878Y-60246754D01*
X75248876Y-60246754D01*
X75248874Y-60246755D01*
X75174933Y-60274659D01*
X75029810Y-60329425D01*
X74827868Y-60447929D01*
X74827861Y-60447934D01*
X74648858Y-60598856D01*
X74648856Y-60598858D01*
X74497934Y-60777861D01*
X74497929Y-60777868D01*
X74379425Y-60979810D01*
X74324659Y-61124933D01*
X74296755Y-61198874D01*
X74296754Y-61198876D01*
X74296754Y-61198878D01*
X74252295Y-61428755D01*
X74252295Y-61428756D01*
X74249501Y-61481347D01*
X74249500Y-61481386D01*
X65500500Y-61481386D01*
X65500500Y-56685803D01*
X71500000Y-56685803D01*
X71500000Y-57500000D01*
X73000000Y-57500000D01*
X73000000Y-58000000D01*
X71500001Y-58000000D01*
X71500001Y-58814197D01*
X71510400Y-58946332D01*
X71565377Y-59164519D01*
X71658428Y-59369374D01*
X71658431Y-59369380D01*
X71786559Y-59554323D01*
X71786569Y-59554335D01*
X71945664Y-59713430D01*
X71945676Y-59713440D01*
X72130619Y-59841568D01*
X72130625Y-59841571D01*
X72335480Y-59934622D01*
X72553667Y-59989599D01*
X72685810Y-59999999D01*
X73249999Y-59999999D01*
X73250000Y-59999998D01*
X73250000Y-59183012D01*
X73307007Y-59215925D01*
X73434174Y-59250000D01*
X73565826Y-59250000D01*
X73692993Y-59215925D01*
X73750000Y-59183012D01*
X73750000Y-59999999D01*
X74314182Y-59999999D01*
X74314197Y-59999998D01*
X74446332Y-59989599D01*
X74664519Y-59934622D01*
X74869374Y-59841571D01*
X74869380Y-59841568D01*
X75054323Y-59713440D01*
X75054335Y-59713430D01*
X75213430Y-59554335D01*
X75213440Y-59554323D01*
X75341568Y-59369380D01*
X75341571Y-59369374D01*
X75434622Y-59164519D01*
X75489599Y-58946332D01*
X75499999Y-58814196D01*
X75500000Y-58814184D01*
X75500000Y-58000000D01*
X74000000Y-58000000D01*
X74000000Y-57500000D01*
X75499999Y-57500000D01*
X75499999Y-56685817D01*
X75499998Y-56685802D01*
X75489599Y-56553667D01*
X75434622Y-56335480D01*
X75341571Y-56130625D01*
X75341568Y-56130619D01*
X75213440Y-55945676D01*
X75213430Y-55945664D01*
X75054335Y-55786569D01*
X75054323Y-55786559D01*
X74869380Y-55658431D01*
X74869374Y-55658428D01*
X74664519Y-55565377D01*
X74446332Y-55510400D01*
X74314196Y-55500000D01*
X73750000Y-55500000D01*
X73750000Y-56316988D01*
X73692993Y-56284075D01*
X73565826Y-56250000D01*
X73434174Y-56250000D01*
X73307007Y-56284075D01*
X73250000Y-56316988D01*
X73250000Y-55500000D01*
X72685817Y-55500000D01*
X72685802Y-55500001D01*
X72553667Y-55510400D01*
X72335480Y-55565377D01*
X72130625Y-55658428D01*
X72130619Y-55658431D01*
X71945676Y-55786559D01*
X71945664Y-55786569D01*
X71786569Y-55945664D01*
X71786559Y-55945676D01*
X71658431Y-56130619D01*
X71658428Y-56130625D01*
X71565377Y-56335480D01*
X71510400Y-56553667D01*
X71500000Y-56685803D01*
X65500500Y-56685803D01*
X65500500Y-51624500D01*
X65520185Y-51557461D01*
X65572989Y-51511706D01*
X65624500Y-51500500D01*
X151875500Y-51500500D01*
X151942539Y-51520185D01*
G37*
%TD.AperFunction*%
%TD*%
M02*
