M48
; DRILL file {KiCad 9.0.2} date 2026-03-01T17:26:29+0530
; FORMAT={-:-/ absolute / metric / decimal}
; #@! TF.CreationDate,2026-03-01T17:26:29+05:30
; #@! TF.GenerationSoftware,Kicad,Pcbnew,9.0.2
; #@! TF.FileFunction,Plated,1,2,PTH
FMAT,2
METRIC
; #@! TA.AperFunction,Plated,PTH,ViaDrill
T1C0.300
; #@! TA.AperFunction,Plated,PTH,ComponentDrill
T2C0.750
; #@! TA.AperFunction,Plated,PTH,ComponentDrill
T3C0.800
; #@! TA.AperFunction,Plated,PTH,ComponentDrill
T4C0.900
; #@! TA.AperFunction,Plated,PTH,ComponentDrill
T5C1.000
; #@! TA.AperFunction,Plated,PTH,ComponentDrill
T6C1.100
%
G90
G05
T1
X87.0Y-104.5
T2
X128.73Y-119.36
X130.0Y-119.36
X131.27Y-119.36
T3
X97.5Y-54.25
X97.5Y-59.25
X102.0Y-99.62
X102.0Y-104.5
X102.96Y-59.5
X108.04Y-59.5
X109.0Y-91.5
X109.0Y-95.5
X109.0Y-100.5
X109.0Y-103.0
X109.0Y-108.0
X114.0Y-54.75
X114.0Y-59.75
X114.0Y-91.5
X115.0Y-75.5
X116.38Y-80.42
X116.38Y-82.96
X116.38Y-85.5
X116.38Y-88.04
X116.38Y-90.58
X116.38Y-93.12
X116.38Y-95.66
X116.38Y-98.2
X116.38Y-100.74
X116.38Y-103.28
X116.38Y-105.82
X116.38Y-108.36
X116.38Y-110.9
X116.38Y-113.44
X116.5Y-117.92
X116.5Y-128.08
X124.0Y-80.42
X124.0Y-82.96
X124.0Y-85.5
X124.0Y-88.04
X124.0Y-90.58
X124.0Y-93.12
X124.0Y-95.66
X124.0Y-98.2
X124.0Y-100.74
X124.0Y-103.28
X124.0Y-105.82
X124.0Y-108.36
X124.0Y-110.9
X124.0Y-113.44
X124.0Y-117.92
X124.0Y-128.08
X125.16Y-75.5
X127.5Y-98.0
X128.5Y-114.0
X132.5Y-98.0
X138.66Y-114.0
T4
X116.5Y-131.23
X116.5Y-133.77
X124.0Y-131.23
X124.0Y-133.77
T5
X70.5Y-107.34
X70.5Y-109.88
X70.5Y-112.42
X70.5Y-114.96
X70.5Y-117.5
X70.5Y-120.04
X70.5Y-122.58
X70.5Y-125.12
X70.6Y-82.49
X70.6Y-85.03
X70.6Y-87.57
X70.6Y-90.11
X70.6Y-92.65
X70.6Y-95.19
X70.6Y-97.73
X70.6Y-100.27
X72.8Y-134.5
X75.34Y-134.5
X77.88Y-134.5
X80.42Y-134.5
X82.96Y-134.5
X85.5Y-134.5
X88.04Y-134.5
X90.58Y-134.5
X137.4Y-125.5
X143.96Y-104.46
X143.96Y-107.0
X143.96Y-109.54
X145.0Y-125.5
X146.5Y-80.3
X146.5Y-82.84
X146.5Y-85.38
X146.5Y-87.92
X146.5Y-90.46
X146.5Y-93.0
X146.5Y-104.46
X146.5Y-107.0
X146.5Y-109.54
T6
X70.25Y-69.75
X70.25Y-74.25
X76.75Y-69.75
X76.75Y-74.25
X85.75Y-54.5
X85.75Y-59.0
X92.25Y-54.5
X92.25Y-59.0
X121.0Y-57.25
X123.54Y-57.25
X126.08Y-57.25
T5
G00X73.5Y-56.75
M15
G01X73.5Y-58.75
M16
G05
G00X75.5Y-62.45
M15
G01X77.5Y-62.45
M16
G05
G00X79.5Y-56.75
M15
G01X79.5Y-58.75
M16
G05
M30
